<?xml version="1.0" encoding="utf-8"?>
<!-- Generator: Adobe Illustrator 21.1.0, SVG Export Plug-In . SVG Version: 6.00 Build 0)  -->
<svg version="1.1" id="Layer_1" xmlns="http://www.w3.org/2000/svg" xmlns:xlink="http://www.w3.org/1999/xlink" x="0px" y="0px"
	 viewBox="0 0 640 188.6" style="enable-background:new 0 0 640 188.6;" xml:space="preserve">
<style type="text/css">
	.st0{fill:#412020;}
</style>
<g>
	<path class="st0" d="M201.7,44.7c-0.5,0.8-1,2.5-1.6,3c-0.8,0.8-1.6,1.7-2.4,2.4c-1.3,1-1.5,2.3-2.4,3.1c-0.5,0.4-1,0.7-1.5,1.1
		c-1.7,1.3-3,3.1-5.1,3.9c-1.5,0.6-3.4,0.9-5,0.9c-1.3,0-3.3-0.1-3.3-1.8c0-2.6,3.6-7.3,5.6-8.9c0.6-0.5,1-1.3,1.6-1.7
		c1.7-1.1,4.1-2.7,6.2-2.7c0.4,0,1.1,0.1,1.1,0.7c0,1-2,2.8-2.9,3.3c-0.3,0.2-0.8,0.4-1.1,0.8c-0.3,0.3-0.3,0.5-0.5,0.9
		c-0.3,0.7-1.2,1.1-1.8,1.5c-0.5,0.3-0.9,0.8-1.4,1c-1.4,0.8-3,2.2-3,4c0,0.6,0.4,0.9,1,0.9c1.7,0,5.3-2.2,6.7-3.3
		c1.3-1.1,2.3-2.7,3.8-3.6c0.9-0.6,1-1.1,1.4-2c0.7-0.3,1.6-2.2,2.2-2.9c0.8-1,2.6-5,2.6-6.3c0-2.4-1.9-2.5-3.7-2.7h-0.6
		c-0.5,0-0.9,0.1-1.4,0.1c-0.3,0-0.6-0.1-0.9-0.1c-1,0-1.5,0.1-2.3,0.5c-1.2,0.5-2.1,0.2-3.1,1.1c-1.4,1.1-1.9,0.5-3,1.2
		c-3.4,2.3-7,4.6-9.8,7.6c-0.5,0.5-0.9,1-1.3,1.4c-0.6,0.5-1.3,0.8-1.8,1.3c-0.3,0.4-0.8,0.8-1.2,1.2c-0.8,0.7-1.2,1.6-2,2.3
		c-0.9,0.8-1.6,1.6-2.5,2.3c-0.8,0.7-2.2,3.1-2.7,4.1c-0.3,0.6-0.5,1.1-0.9,1.6c-0.6,0.8-1,1.6-1.7,2.4c-0.5,0.6-0.8,1.2-0.8,2
		c0,0.4-0.1,0.8-0.1,1.3c0,1,0.1,1.7,1,2.3c1.6,1,3,1.5,4.7,2.3c0.9,0.5,2.4,0.3,3.4,0.6c0.6,0.2,1.2,0.3,1.9,0.3
		c1.9,0,3.7-0.4,5.5-0.4c3.6,0,7.3-0.6,10.8-1.6c1.6-0.4,3.1-1,4.7-1.6c1-0.4,7-3,7.5-3c0.2,0,0.4,0.1,0.4,0.3c0,0.5-0.9,0.8-1.2,1
		c-1.5,0.6-2.7,1.5-4.3,1.9c-1.7,0.5-3.1,1.6-4.8,2c-0.7,0.2-1.3,0.5-1.9,0.8c-1.5,0.5-3.1,1.3-4.8,1.3c-1.6,0-3,0.8-4.6,0.9
		c-2,0.2-4,0.3-6.1,0.3c-0.9,0-1.9,0.3-2.8,0.3c-2.2,0-4.3-0.6-6.4-0.9c-3.2-0.5-5.9-0.8-8.3-3.1c-1.1-1.1-2-2.6-2-4.2
		c0-2.6,2.7-6.5,4.4-8.3c0.9-1,4-4.8,5-5.4c1.1-0.6,1.9-1.7,2.9-2.4c1.4-1,2.4-2.4,3.8-3.4c1-0.6,2-1,2.9-1.9c0.8-0.9,3.7-3,4.8-3.6
		c0.6-0.3,1.2-0.8,1.8-1.2l1.1-0.6c0.8-0.6,1.5-1.2,2.3-1.6c1.9-0.7,3.7-1.6,5.6-2.3c3.4-1.1,6.9-1.8,10.4-1.8c0.7,0,1.4,0.2,2,0.5
		c1.6,0.6,1.9,1.3,1.9,2.9C203.7,39.9,203.3,42.4,201.7,44.7z"/>
	<path class="st0" d="M224,68.8c-0.5,0.1-1.1,0.2-1.6,0.2c-0.8,0-2.6-0.5-3.3-0.9c-0.8-0.5-1.2-1.3-2.2-1.3c-0.3,0-0.5,0.2-0.6,0.4
		c-0.6,0.6-1.5,1-2.1,1.7c-2,1.9-7,5.1-9.8,5.1h-1.2c-1.2,0-2.7-0.1-3.7-0.9c-0.5-0.5-2.2-1.7-2.3-2.2c-0.1-0.2-0.1-0.5-0.1-0.7
		c0-1.5,0.9-2,1.6-3.1c0.8-1.2,3.1-2.6,4.3-3.6c1.4-1.1,3.5-2,5.2-2.5c1-0.3,4.6-0.7,5.1-1c0.7-0.4,0.5-1.8,1.4-2.3
		c0.5-0.3,1.2-0.3,1.7-0.6c0.8-0.4,1.5-0.5,2.3-0.5c1.9,0,2.6,0.5,2.6,2.4c0,1.7-1.9,5.4-1.9,5.7c0,0.2,0.1,0.3,0.2,0.4
		c0.3,0.3,0.6,0.8,0.9,1.2c1,1.2,1.4,0.8,2.7,1.2c0.2,0.1,0.3,0.1,0.5,0.1c1.7,0,5.7-2.1,6.5-2.1c0.2,0,0.5,0.1,0.5,0.3
		C230.8,66.6,225,68.7,224,68.8z M214,62.3c-0.1-0.3-0.2-0.5-0.6-0.5c-1.1,0-5.6,2.9-6.7,3.6c-1,0.7-1.6,1.2-2.2,2.3
		c-0.5,0.9-0.6,0.9-1.3,1.6c-0.2,0.2-0.3,0.3-0.3,0.6c0,0.8,1.5,1.6,2.2,1.6c1.1,0,4.1-1,5-1.8c1-1,2-1.9,3.3-2.6
		c0.8-0.5,2-1.2,2-2.3C215.3,64.4,214.3,63,214,62.3z M218.2,60.1c-0.6,0-0.9,0.6-0.9,1c0,0.3,0.2,1,0.5,1c0.4,0,0.8-1.2,0.8-1.5
		C218.6,60.5,218.5,60.1,218.2,60.1z"/>
	<path class="st0" d="M266.5,39.1c-1,0.9-1.6,2.3-2.7,3.3c-1.8,1.6-3.3,3.5-5.1,5.2c-1.9,1.8-4,3.5-5.8,5.4c-1.5,1.5-3.1,2.7-4.8,4
		c-1.9,1.5-4,2.7-6.1,4c-1.7,0.9-3.5,2-4.8,3.4c-0.9,0.9-1.4,2-2.3,2.9c-0.8,0.7-2.1,2.4-2.1,3.5s1.3,1.3,2.1,1.3
		c0.8,0,1.5-0.1,2.2-0.3c3.3-0.8,5.7-1.1,8.8-2.5c0.9-0.3,1.7-0.8,2.6-1.1c1.3-0.4,5.5-2.5,6.3-2.5c0.2,0,0.2,0.1,0.2,0.2
		c0,0.3-0.3,0.6-0.5,0.8c-1,0.8-2.4,1.2-3.7,1.7c-1.4,0.6-2.7,1.4-4.1,1.9c-0.8,0.3-1.5,0.7-2.3,1c-0.9,0.3-1.7,0.8-2.6,1
		c-1.6,0.6-5.2,1.6-6.9,1.6c-1.6,0-2.7-0.2-4-1c-0.9-0.5-2-0.8-2-2c0-0.5-0.2-1-0.2-1.5c0-0.3,0.6-2.9,0.8-3.1
		c0.3-0.5,1.1-1,1.5-1.5c0.8-0.8,1.6-1.7,2.2-2.7c0.7-1.2,2-1.6,2.7-2.9c0.9-1.7,3.1-3.3,4.4-4.8c2.6-2.9,5.1-5.8,8-8.3
		c2.9-2.4,5.5-5.3,8.8-7.3c1.9-1.1,5.5-3,7.6-3c1.5,0,2.6,0.1,2.6,1.8C267.2,38.3,267,38.7,266.5,39.1z M263.4,39.4
		c-0.2,0.1-0.4,0.2-0.6,0.3c-1.1,0.3-1.9,1.3-3,1.7c-1.5,0.5-7.3,5.8-8.9,7.2c-1.7,1.5-3.1,3.4-5,4.9c-0.8,0.8-1.5,1.7-2.2,2.6
		c-0.6,0.9-3.3,3-3.3,4c0,0.1,0.1,0.2,0.2,0.2c1.1,0,5.5-3.5,6.5-4.4c1.7-1.5,3.7-2.7,5.3-4.3c1.7-1.6,3.7-2.9,5.1-4.7
		c0.8-0.9,1.9-1.5,2.6-2.6c0.8-1.2,3.4-2.6,3.4-3.9C263.6,40.1,263.6,39.7,263.4,39.4z"/>
	<path class="st0" d="M277.9,66.3c-1.6,1.3-4,1.7-5.8,2.9c-1.9,1.2-4.3,1.9-6.4,2.6c-0.8,0.2-1.6,0.7-2.4,0.9
		c-1.3,0.3-2.4,1.1-4,1.1h-0.5c-0.6,0-1.2,0.3-1.9,0.3c-1.3,0-2.4-0.7-3.7-1c-0.9-0.2-1.6-0.1-2.3-0.6c-0.8-0.6-2.9-2-2.9-3.1
		c0-0.8,0.6-1.5,1.1-2c0.7-0.9,0.2-1.3,1.3-2.2c1-0.8,1.8-1.9,2.8-2.7c2.7-2.4,3.5-2.8,6.9-3.8c1.1-0.3,2.9-0.9,4-0.9
		c0.2,0,0.3,0.1,0.6,0.1c0.5,0,0.9-0.1,1.4-0.1c0.8,0,1.6,0.3,1.6,1.2c0,1.1-0.6,1.7-1.3,2.5c-0.2,0.2-1.1,0.5-1.5,0.8
		c-1,0.7-1.2,0.9-2.3,1.2c-1,0.3-1.9,1-2.9,1.4c-0.9,0.3-1.8,0.7-2.6,1.2c-1.8,0.9-2.3,1.4-2.3,3.5c0,1.8,1.7,2.7,3.4,2.7
		c2,0,3.2-0.5,5.1-0.8c1.2-0.2,2.3-0.6,3.3-1.1c1.3-0.6,2.6-0.9,3.8-1.5c1-0.5,6.8-3.1,7.3-3.1c0.2,0,0.3,0.1,0.3,0.3
		C278.3,66,278.1,66.2,277.9,66.3z M262.8,61c-0.5,0-1.1,0.5-1.6,0.7c-0.7,0.5-1.5,0.3-2.2,1c-0.6,0.5-1.2,0.6-1.6,1.2
		c-0.2,0.3-0.8,0.5-0.8,0.9c0.3,0,3-1.3,3.6-1.5c0.8-0.3,1.5-0.6,2.1-1.3c0.3-0.3,0.8-0.3,1.2-0.6C263.5,61.3,263,61,262.8,61z"/>
	<path class="st0" d="M307.9,66.5c-1.9,1-3.8,1.9-5.8,2.6c-1.5,0.6-2.9,1.6-4.5,2c-1.5,0.4-2.9,1.1-4.4,1.5
		c-1.1,0.2-2.6,0.3-3.6,0.8c-0.8,0.4-3,0.5-4,0.7c-1.3,0.3-2.7,0.3-4.3,0.3c-0.3,0-0.6,0-0.9-0.1c-1.2-0.1-2.2-0.9-3.4-0.9
		c-1,0-2.3-2.2-2.3-3c0-1.3,0.9-3.5,2-4.4c1.3-1.1,2.4-2.6,4-3.4c2.4-1.3,5-3.5,7.7-4.1c1-0.2,1.9-1,2.8-1c1,0,2-0.3,2.9-0.3
		c1.9,0,3.3,0.1,3.3,2.4c0,0.6-1,3.6-1.5,4c-0.8,0.6-1.3,1.6-2.2,2.2c-0.9,0.5-1.7,1.3-2.8,1.3c-1,0-3.7-0.6-4.1-1.7
		c-0.1-0.5-0.5-0.9-0.5-1.4c0-0.8,0.9-1,0.9-1.7c-0.3,0-1.2,0.7-1.5,0.9c-0.9,0.5-1.3,1.5-2.2,2c-1.5,0.9-1,1.5-1.7,2
		c-0.5,0.4-0.6,1-1,1.5c-0.2,0.3-0.4,0.5-0.4,0.9c0,2,3.7,2.2,6.2,2.2c0.8,0,1.4-0.1,1.8-0.1c1.5,0,3-0.4,4.4-0.5
		c1.8-0.1,3.4-0.9,5.1-1.3c1.9-0.4,3.6-1.6,5.5-2.3c0.9-0.3,4.2-1.9,4.8-1.9c0.2,0,0.7,0.1,0.7,0.3
		C308.7,66.2,308.2,66.4,307.9,66.5z M294.6,59.2c-0.6,0-4.4,0.5-4.5,1.2l0.2,0.1c0.3,0,0.5-0.2,0.8-0.2c0.9,0,2.3,0.3,2.3,1.5
		c0,0.6-0.5,1.7-1.2,1.7c-0.3,0-0.8-0.1-1.1-0.1c-0.5,0-1.6,0.2-1.6,0.9c0,0.7,0.9,1.1,1.5,1.1c2,0,4.5-3.4,4.5-5.2
		C295.5,59.3,295.4,59.2,294.6,59.2z"/>
	<path class="st0" d="M338.2,66.5c-1.9,1-3.8,1.9-5.8,2.6c-1.5,0.6-2.9,1.6-4.5,2c-1.5,0.4-2.9,1.1-4.4,1.5
		c-1.1,0.2-2.6,0.3-3.6,0.8c-0.8,0.4-3,0.5-4,0.7c-1.3,0.3-2.7,0.3-4.3,0.3c-0.3,0-0.6,0-0.9-0.1c-1.2-0.1-2.2-0.9-3.4-0.9
		c-1,0-2.3-2.2-2.3-3c0-1.3,0.9-3.5,2-4.4c1.3-1.1,2.4-2.6,4-3.4c2.4-1.3,5-3.5,7.7-4.1c1-0.2,1.9-1,2.8-1c1,0,2-0.3,2.9-0.3
		c1.9,0,3.3,0.1,3.3,2.4c0,0.6-1,3.6-1.5,4c-0.8,0.6-1.3,1.6-2.2,2.2c-0.9,0.5-1.7,1.3-2.8,1.3c-1,0-3.7-0.6-4.1-1.7
		c-0.1-0.5-0.5-0.9-0.5-1.4c0-0.8,0.9-1,0.9-1.7c-0.3,0-1.2,0.7-1.5,0.9c-0.9,0.5-1.3,1.5-2.2,2c-1.5,0.9-1,1.5-1.7,2
		c-0.5,0.4-0.6,1-1,1.5c-0.2,0.3-0.4,0.5-0.4,0.9c0,2,3.7,2.2,6.2,2.2c0.8,0,1.4-0.1,1.8-0.1c1.5,0,3-0.4,4.4-0.5
		c1.8-0.1,3.4-0.9,5.1-1.3c1.9-0.4,3.6-1.6,5.5-2.3c0.9-0.3,4.2-1.9,4.8-1.9c0.2,0,0.7,0.1,0.7,0.3C339,66.2,338.5,66.4,338.2,66.5z
		 M324.9,59.2c-0.6,0-4.4,0.5-4.5,1.2l0.2,0.1c0.3,0,0.5-0.2,0.8-0.2c0.9,0,2.3,0.3,2.3,1.5c0,0.6-0.5,1.7-1.2,1.7
		c-0.3,0-0.8-0.1-1.1-0.1c-0.5,0-1.6,0.2-1.6,0.9c0,0.7,0.9,1.1,1.5,1.1c2,0,4.5-3.4,4.5-5.2C325.8,59.3,325.6,59.2,324.9,59.2z"/>
	<path class="st0" d="M362.1,66.7c-1.7,0.6-3.3,1.5-4.9,2.2c-1.7,0.7-3.3,1.7-5,2.2c-2.2,0.6-4.1,2-6.4,2.4
		c-0.9,0.1-1.8,0.6-2.7,0.6c-1,0-1.9,0.6-2.9,0.6c-0.8,0-1.6-0.2-2.3-0.6c-1.6-0.8-2.4,0.3-3.5-2c-0.2-0.4-0.3-0.9-0.3-1.4
		c0-1.5,0.9-3,1.9-4.1c0.9-1.1,5.1-5,6.3-5.4c0.5-0.2,1.1-0.3,1.6-0.6c0.9-0.5,1.4-1,2.4-1.2c0.9-0.2,1.9-0.5,2.8-0.5
		c0.5,0,1.6,0.2,1.6,0.8c0,0.2-0.2,0.3-0.3,0.4c-1.5,1.2-2.9,2.6-4.4,3.7c-1.3,0.9-2.8,1.7-4.3,2.4c-1.5,0.8-2.7,2-3.3,3.5
		c-0.2,0.4-0.3,0.8-0.3,1.2c0,1.3,1.6,1.4,2.6,1.4c2.2,0,3.6-0.1,5.7-0.8c1.7-0.6,3.6-0.9,5.2-1.6c2.3-1,4.7-1.9,7-2.9
		c0.9-0.3,3.1-1.5,4-1.5c0.2,0,0.5,0.1,0.5,0.3C363.2,66.3,362.4,66.6,362.1,66.7z M356.9,44.9c-0.6,0-0.9-0.1-1.5-0.2
		c-1-0.3-2.5-0.2-3.3-0.8c-0.6-0.5-1.5-1.7-1.5-2.5c0-0.4,0.2-0.6,0.6-0.9c0.4-0.2,1.4-0.9,1.8-0.9c0.5,0,1,1,1.4,1.4
		c1,1,0.3,0.5,1.8,1.4c0.5,0.3,1.7,1.1,1.7,1.9C357.9,44.8,357.3,44.9,356.9,44.9z"/>
	<path class="st0" d="M385.3,68.8c-0.5,0.1-1.1,0.2-1.6,0.2c-0.8,0-2.6-0.5-3.3-0.9c-0.8-0.5-1.2-1.3-2.2-1.3
		c-0.3,0-0.5,0.2-0.6,0.4c-0.6,0.6-1.5,1-2.1,1.7c-2,1.9-7,5.1-9.8,5.1h-1.2c-1.2,0-2.7-0.1-3.7-0.9c-0.5-0.5-2.2-1.7-2.3-2.2
		c-0.1-0.2-0.1-0.5-0.1-0.7c0-1.5,0.9-2,1.6-3.1c0.8-1.2,3.1-2.6,4.3-3.6c1.4-1.1,3.5-2,5.2-2.5c1-0.3,4.6-0.7,5.1-1
		c0.7-0.4,0.5-1.8,1.4-2.3c0.5-0.3,1.2-0.3,1.7-0.6c0.8-0.4,1.5-0.5,2.3-0.5c1.9,0,2.6,0.5,2.6,2.4c0,1.7-1.9,5.4-1.9,5.7
		c0,0.2,0.1,0.3,0.2,0.4c0.3,0.3,0.6,0.8,0.9,1.2c1,1.2,1.4,0.8,2.7,1.2c0.2,0.1,0.3,0.1,0.5,0.1c1.7,0,5.7-2.1,6.5-2.1
		c0.2,0,0.5,0.1,0.5,0.3C392.1,66.6,386.3,68.7,385.3,68.8z M375.3,62.3c-0.1-0.3-0.2-0.5-0.6-0.5c-1.1,0-5.6,2.9-6.7,3.6
		c-1,0.7-1.6,1.2-2.2,2.3c-0.5,0.9-0.6,0.9-1.3,1.6c-0.2,0.2-0.3,0.3-0.3,0.6c0,0.8,1.5,1.6,2.2,1.6c1.1,0,4.1-1,5-1.8
		c1-1,2-1.9,3.3-2.6c0.8-0.5,2-1.2,2-2.3C376.6,64.4,375.6,63,375.3,62.3z M379.5,60.1c-0.6,0-0.9,0.6-0.9,1c0,0.3,0.2,1,0.5,1
		c0.4,0,0.8-1.2,0.8-1.5C379.9,60.5,379.8,60.1,379.5,60.1z"/>
	<path class="st0" d="M437,66.8c-1.5,0.8-3,1.5-4.5,2.1c-1.2,0.5-2.3,1.2-3.6,1.5c-1,0.3-1.9,0.8-2.9,1c-0.7,0.2-1.3,0.6-2,0.9
		c-0.8,0.3-4.1,1-5,1c-0.2,0-0.3,0-0.4-0.1c-0.8-0.1-1.6,0-2.4-0.3c-0.8-0.3-1.3-1.7-1.3-2.5c0-1.5,1.2-2.3,2.2-3.4l0.3-0.4
		c0.4-0.8,2.7-2.6,2.7-3.1c0-0.1,0-0.2-0.2-0.2c-0.4,0-5.5,2.6-6.9,2.9c-1.5,0.4-2.9,1.3-4.4,1.7c-0.9,0.3-1.9,0.5-2.7,0.9
		c-1.2,0.6-2.4,1-3.6,1.6c-2.2,1-4.7,2.9-7.3,2.9c-1.3,0-1.9-0.9-1.9-2.2c0-1.6,1.9-2.5,2.7-3.8c0.3-0.6,0.6-1,1.1-1.5
		c0.5-0.5,3.3-3.2,3.3-3.8c-0.9,0-1.6,0.8-2.5,1c-0.7,0.2-1.2,0.6-1.8,1c-0.8,0.5-1.7,0.6-2.4,1.2c-0.8,0.5-4.4,2.5-5.1,2.5
		c-0.2,0-0.7-0.1-0.7-0.4c0-0.5,3.1-1.9,3.7-2.2c1.5-0.8,2.8-1.7,4.3-2.6c0.9-0.5,1.5-1.4,2.6-1.7c0.8-0.2,1.5-1.2,2.1-1.2
		c0.5,0,1.2-1,2-1c0.1,0,0.2,0,0.2,0.1c1.6,0.3,4.1-0.1,4.1,2.3c0,1.9-3.3,3.4-4.3,4.9c-0.6,0.9-0.9,1.7-1.8,2.3
		c-0.3,0.3-1.2,0.8-1.2,1.3c0,0.2,0.2,0.3,0.3,0.3c0.5,0,1.7-0.8,2.3-0.9c1-0.3,2-0.6,3-1.2c2.1-1.3,4.7-1.3,6.9-2.7
		c0.9-0.6,2.3-1.5,3.4-1.7c1.3-0.3,2.3-1.5,3.7-1.8c1.2-0.3,2.5-1.5,3.8-1.5c0.8,0,3.7,0.9,3.7,2c0,0.8-1.8,2.7-2.5,3.1
		c-1.3,0.8-1.3,1.5-2.3,2.4c-0.6,0.6-1.5,1.1-1.9,1.9c-0.2,0.4-0.6,0.9-0.6,1.3c0,0.6,0.8,0.6,1.3,0.6c1.5,0,2.8-0.6,4.3-0.9
		c1.2-0.2,2.2-0.9,3.4-1.2c1-0.2,1.9-0.9,2.9-1.2c1.2-0.5,5.6-2.6,6.4-2.6c0.1,0,0.3,0,0.3,0.2C438.1,66.2,437.4,66.6,437,66.8z"/>
	<path class="st0" d="M461.4,66.3c-1.6,1.3-4,1.7-5.8,2.9c-1.9,1.2-4.3,1.9-6.4,2.6c-0.8,0.2-1.6,0.7-2.4,0.9
		c-1.3,0.3-2.4,1.1-4,1.1h-0.5c-0.6,0-1.2,0.3-1.9,0.3c-1.3,0-2.4-0.7-3.7-1c-0.9-0.2-1.6-0.1-2.3-0.6c-0.8-0.6-2.9-2-2.9-3.1
		c0-0.8,0.6-1.5,1.1-2c0.7-0.9,0.2-1.3,1.3-2.2c1-0.8,1.8-1.9,2.8-2.7c2.7-2.4,3.5-2.8,6.9-3.8c1.1-0.3,2.9-0.9,4-0.9
		c0.2,0,0.3,0.1,0.6,0.1c0.5,0,0.9-0.1,1.4-0.1c0.8,0,1.6,0.3,1.6,1.2c0,1.1-0.6,1.7-1.3,2.5c-0.2,0.2-1.1,0.5-1.5,0.8
		c-1,0.7-1.2,0.9-2.3,1.2c-1,0.3-1.9,1-2.9,1.4c-0.9,0.3-1.8,0.7-2.6,1.2c-1.8,0.9-2.3,1.4-2.3,3.5c0,1.8,1.7,2.7,3.4,2.7
		c2,0,3.2-0.5,5.1-0.8c1.2-0.2,2.3-0.6,3.3-1.1c1.3-0.6,2.6-0.9,3.8-1.5c1-0.5,6.8-3.1,7.3-3.1c0.2,0,0.3,0.1,0.3,0.3
		C461.8,66,461.5,66.2,461.4,66.3z M446.3,61c-0.5,0-1.1,0.5-1.6,0.7c-0.7,0.5-1.5,0.3-2.2,1c-0.6,0.5-1.2,0.6-1.6,1.2
		c-0.2,0.3-0.8,0.5-0.8,0.9c0.3,0,3-1.3,3.6-1.5c0.8-0.3,1.5-0.6,2.1-1.3c0.3-0.3,0.8-0.3,1.2-0.6C447,61.3,446.5,61,446.3,61z"/>
	<path class="st0" d="M492.3,66.3c-1,0.6-2.2,1.3-3.2,1.6c-0.9,0.2-1.7,0.6-2.4,1c-3,1.5-7.6,3.8-11,3.8c-1.4,0-2.7,0.4-4.1,0.4
		c-1.2,0-4.6,2.2-6.5,2.6c-0.5,0.1-1,0.4-1.5,0.4c-1,0-2-1.7-2-2.6c0-0.6,0.2-1,0.6-1.4c0.5-0.5,0.7-1.7,1.6-1.7
		c1,0,1.9,0.4,2.9,0.4c1,0,3.1-0.5,3.4-1.7c0.2-1,0.9-1.9,1-2.9c0.3-1.3,0.4-2.6,0.4-3.8c0-0.3-0.1-0.5-0.4-0.5
		c-0.5,0-0.9,0.2-1.3,0.4c-0.6,0.3-1.3,0.5-1.9,0.7c-1.9,0.7-9.1,4.8-10.1,4.8c-0.2,0-0.6-0.1-0.6-0.3c0-0.1,0.1-0.2,0.1-0.3
		c0.1-0.2,5.1-2.8,5.8-3.1l1.4-0.6c0.4-0.2,0.6-0.3,1-0.6c0.5-0.4,1.1-0.6,1.7-0.9c1.3-0.6,3.9-1.5,5-2.4c0.3-0.3,0.6-0.8,0.9-1.1
		c1.5-1.5,6.8-3.4,8.9-3.4c0.6,0,1.2,0.8,1.2,1.4c0,0.4-0.3,0.5-0.6,0.6c-1.2,0.4-2.9,1.3-3.8,2.2c-0.9,0.8-1.9,0.8-2.5,2
		c-0.3,0.6-0.4,1.4-0.4,2.2c0,0.4,0.1,0.8,0.1,1.1c0,0.7,0,1.3-0.3,2c-0.4,1-0.5,2.3-1.3,3.2c-0.1,0.2-0.3,0.3-0.3,0.5
		c0,0.6,0.9,0.9,1.4,0.9c1,0,2.2,0,3.1-0.5c0.9-0.5,2.2-0.7,3.3-1c0.8-0.2,1.6-0.6,2.3-0.9c0.8-0.4,1.6-0.6,2.4-0.9
		c0.6-0.2,1.2-0.6,1.9-0.8c0.8-0.3,1.6-0.6,2.3-0.9c0.5-0.2,0.9-0.5,1.5-0.5c0.1,0,0.4,0,0.4,0.2C492.7,66,492.5,66.2,492.3,66.3z"
		/>
	<path class="st0" d="M129.1,122.7c-0.2,0-2.9-1.2-3.4-1.4c-1.5-0.8-2.9-0.9-4.5-1.3c-0.5-0.1-1-0.2-1.6-0.2c-0.8,0-1.4,0.3-2.2,0.3
		c-1,0-2,0.4-3,0.6c-1.8,0.5-3.1,1-4.5,2.2c-1.7,1.3-3.6,1.9-5.2,3.4c-2,1.9-3.7,4-5.9,5.8c-0.7,0.6-2.2,3.3-2.9,4.3
		c-0.8,1.1-1.6,2.2-2.7,3c-1.2,0.9-1.2,1.6-2.2,2.7c-1,1.2-2,2.3-2.9,3.6c-0.7,1-1.8,1.3-3,1.3c-0.6,0-1.2-0.4-1.2-1.1
		c0-0.5,0.2-1,0.5-1.5c0.8-1.2,2.2-1.8,2.9-3.1c0.8-1.5,2.2-2.6,3-4.1c0.8-1.3,2.2-2.1,2.9-3.5c0.9-1.7,2.3-3.1,3.5-4.6
		c1.9-2.3,3.5-4.8,5-7.3c1.1-1.9,2.4-3.6,3.8-5.3c0.5-0.7,3.8-6.5,3.8-7c0-0.2-0.1-0.2-0.2-0.2c-0.3,0-0.5,0.2-0.8,0.4
		c-1,0.8-2.1,1.4-3,2.3c-1.5,1.4-2.9,3-4.5,4.3c-1.4,1-2.7,2-3.7,3.5c-0.9,1.2-3.3,2.4-4.5,3.4c-1.3,1-2.4,2.1-3.7,3.1
		c-1.2,1-2.5,2.1-3.7,3.2c-0.5,0.5-1,0.9-1.6,1.3c-0.9,0.7-2,1.2-2.8,2.2c-0.8,1-2.1,1.3-3,2.3c-1.3,1.3-2.9,1.9-4.3,3
		c-1.1,0.8-2.3,1.3-3.4,2.3c-0.9,0.9-2.4,0.8-3.6,1.2c-0.6,0.2-1.2,0.5-1.9,0.8c-1.9,0.8-4,1.3-6,1.3c-1.6,0-3.3-0.3-4.8-0.8
		c-3.1-1-5.8-4.1-5.8-7.5c0-0.6,0.1-1.1,0.2-1.6c1.2-3.7,4.4-9,8.4-10.1c2.2-0.6,4.5-1.1,6.8-1.1c0.6,0,1.2,0.1,1.8,0.2
		c1.9,0.5,3.1,3.3,3.1,5.1c0,1-0.5,1.7-0.8,2.6c-0.3,1-0.1,1-0.8,1.9c-1.1,1.3,0.1,1.5-1.9,3c-1.7,1.3-2.3,4.2-4.8,4.2
		c-0.8,0-1.7-0.7-1.7-1.6c0-2.2,6.6-5.4,6.6-11.5c0-1.4-0.1-2.3-1.8-2.3c-2,0-4.6,0.2-6.4,1.1c-2,1-3.8,2-4.9,4.1
		c-1.1,2.1-2.3,3.9-2.3,6.4c0,1.7,0.6,3,2,4c1.7,1.3,4.4,2,6.6,2c0.9,0,1.7-0.2,2.6-0.4c2-0.5,3.1-0.3,5.1-1.3l3.7-1.9
		c1.4-0.8,2.7-1.7,4.1-2.5c1.5-0.8,2.7-1.5,3.9-2.8c1.2-1.3,3-2.2,4.3-3.4c1.8-1.6,3.7-3,5.6-4.5c2.2-1.8,5.1-3.3,6.8-5.5
		c2.5-3.2,6.5-4.7,8.9-8c1.8-2.4,4.5-4.1,6.7-6.2c1-1,2.3-1.6,3.4-2.4c0.9-0.7,2.2-1.8,3.4-1.8c0.8,0,2,1,2,1.9
		c0,0.5-0.3,0.8-0.6,1.2c-1.3,1.6-2.6,3.3-3.8,5c-0.9,1.3-1.3,2.8-2.3,4c-1,1.3-1.9,2.5-2.6,4c-0.5,1.2-1.6,1.9-2.2,3
		c-0.3,0.6-1.7,2.8-1.7,3.4c0,0.1,0.1,0.2,0.2,0.2c0.9,0,6.9-4.7,9.1-5.3c1.7-0.5,3.3-1.5,5.1-1.5c1.1,0,2.3,0.2,3.4,0.2
		c1.5,0,2.9,1.1,4.2,1.6c0.8,0.2,1.4,0.3,2,0.7c0.4,0.2,1.3,0.8,1.3,1.3C130.8,121.2,129.9,122.7,129.1,122.7z"/>
	<path class="st0" d="M139.3,138.7c-0.5,0.1-1.1,0.2-1.6,0.2c-0.8,0-2.6-0.5-3.3-0.9c-0.8-0.5-1.2-1.3-2.2-1.3
		c-0.3,0-0.5,0.2-0.6,0.4c-0.6,0.6-1.5,1-2.1,1.7c-2,1.9-7,5.1-9.8,5.1h-1.2c-1.2,0-2.7-0.1-3.7-0.9c-0.5-0.5-2.2-1.7-2.3-2.2
		c-0.1-0.2-0.1-0.5-0.1-0.7c0-1.5,0.9-2,1.6-3.1c0.8-1.2,3.1-2.6,4.3-3.6c1.4-1.1,3.5-2,5.2-2.5c1-0.3,4.6-0.7,5.1-1
		c0.7-0.4,0.5-1.8,1.4-2.3c0.5-0.3,1.2-0.3,1.7-0.6c0.8-0.4,1.5-0.5,2.3-0.5c1.9,0,2.6,0.5,2.6,2.4c0,1.7-1.9,5.4-1.9,5.7
		c0,0.2,0.1,0.3,0.2,0.4c0.3,0.3,0.6,0.8,0.9,1.2c1,1.2,1.4,0.8,2.7,1.2c0.2,0.1,0.3,0.1,0.5,0.1c1.7,0,5.7-2.1,6.5-2.1
		c0.2,0,0.5,0.1,0.5,0.3C146.1,136.5,140.3,138.6,139.3,138.7z M129.3,132.2c-0.1-0.3-0.2-0.5-0.6-0.5c-1.1,0-5.6,2.9-6.7,3.6
		c-1,0.7-1.6,1.2-2.2,2.3c-0.5,0.9-0.6,0.9-1.3,1.6c-0.2,0.2-0.3,0.3-0.3,0.6c0,0.8,1.5,1.6,2.2,1.6c1.1,0,4.1-1,5-1.8
		c1-1,2-1.9,3.3-2.6c0.8-0.5,2-1.2,2-2.3C130.6,134.3,129.6,132.9,129.3,132.2z M133.5,130c-0.6,0-0.9,0.6-0.9,1c0,0.3,0.2,1,0.5,1
		c0.4,0,0.8-1.2,0.8-1.5C133.9,130.4,133.8,130,133.5,130z"/>
	<path class="st0" d="M172.4,139H172c-0.8,0-1.5,0.5-2.3,0.5c-1.2,0-2.7-1-3.5-1.8c-0.5-0.5-1.2-0.8-1.9-0.8c-0.3,0-0.4,0.5-0.5,0.7
		c-0.3,0.9-1.2,1.5-1.9,2c-1.2,0.9-2,2.3-3.3,3.1c-1.2,0.9-2.3,1.9-3.7,2.6c-1.2,0.6-2.4,1-3.5,1.8c-0.8,0.5-2,0.5-2.9,0.5
		c-1.6,0-5.1-0.5-5.1-2.6c0-2,2.8-5.1,4.1-6.5c1.1-1.3,2.5-3.6,3.8-4.5c0.2-0.2,1.2-0.7,1.2-1.1c0-0.1-0.2-0.3-0.3-0.3
		c-0.1,0-0.6,0.8-0.9,0.9l-1.3,0.8c-0.7,0.5-1.6,0.5-2.2,1c-0.5,0.4-4.4,2.3-5,2.3c-0.3,0-0.5-0.1-0.5-0.4c0-0.5,0.4-0.7,0.8-0.9
		c0.9-0.5,1.9-0.8,2.7-1.3c1.8-1.3,3.8-2.2,5.5-3.5c1-0.8,1-2.2,2.3-2.6c1-0.3,2-1,3.1-1c0.6,0,1.2-0.2,1.8-0.2
		c0.9,0,1.3,0.7,1.3,1.5c0,0.4-0.2,0.6-0.4,0.9c-0.2,0.2-0.2,0.5-0.2,0.7v0.8c0,0.6-0.1,0.9-0.6,1.3c-1.2,0.8-1.7,2.3-2.7,3.3
		c-1.2,1.2-4.3,4.4-5.1,5.7c-0.3,0.5-0.4,1-0.9,1.4c-0.5,0.3-0.7,0.9-0.7,1.5c0,0.7,0.5,0.8,1,0.8c1.9,0,4.4-2,6.1-3
		c1.5-0.8,2.4-2.2,3.7-3.2c1.1-0.9,2.2-2.5,2.7-3.9c0.2-0.6,1.1-2.2,1.9-2.2c1.7,0,4,4.6,5.7,4.6c0.7,0,1.5-0.2,2.2-0.2
		c1.7,0,5-2.2,5.9-2.2c0.2,0,0.3,0.1,0.3,0.3C178.9,136.7,173.5,139,172.4,139z"/>
	<path class="st0" d="M201.9,138.7c-0.5,0.1-1.1,0.2-1.6,0.2c-0.8,0-2.6-0.5-3.3-0.9c-0.8-0.5-1.2-1.3-2.2-1.3
		c-0.3,0-0.5,0.2-0.6,0.4c-0.6,0.6-1.5,1-2.1,1.7c-2,1.9-7,5.1-9.8,5.1h-1.2c-1.2,0-2.7-0.1-3.7-0.9c-0.5-0.5-2.2-1.7-2.3-2.2
		c-0.1-0.2-0.1-0.5-0.1-0.7c0-1.5,0.9-2,1.6-3.1c0.8-1.2,3.1-2.6,4.3-3.6c1.4-1.1,3.5-2,5.2-2.5c1-0.3,4.6-0.7,5.1-1
		c0.7-0.4,0.5-1.8,1.4-2.3c0.5-0.3,1.2-0.3,1.7-0.6c0.8-0.4,1.5-0.5,2.3-0.5c1.9,0,2.6,0.5,2.6,2.4c0,1.7-1.9,5.4-1.9,5.7
		c0,0.2,0.1,0.3,0.2,0.4c0.3,0.3,0.6,0.8,0.9,1.2c1,1.2,1.4,0.8,2.7,1.2c0.2,0.1,0.3,0.1,0.5,0.1c1.7,0,5.7-2.1,6.5-2.1
		c0.2,0,0.5,0.1,0.5,0.3C208.7,136.5,202.9,138.6,201.9,138.7z M191.9,132.2c-0.1-0.3-0.2-0.5-0.6-0.5c-1.1,0-5.6,2.9-6.7,3.6
		c-1,0.7-1.6,1.2-2.2,2.3c-0.5,0.9-0.6,0.9-1.3,1.6c-0.2,0.2-0.3,0.3-0.3,0.6c0,0.8,1.5,1.6,2.2,1.6c1.1,0,4.1-1,5-1.8
		c1-1,2-1.9,3.3-2.6c0.8-0.5,2-1.2,2-2.3C193.2,134.3,192.1,132.9,191.9,132.2z M196.1,130c-0.6,0-0.9,0.6-0.9,1c0,0.3,0.2,1,0.5,1
		c0.4,0,0.8-1.2,0.8-1.5C196.5,130.4,196.4,130,196.1,130z"/>
	<path class="st0" d="M252.5,136.4c-0.6,0.5-6.8,3.2-7.6,3.4c-1,0.3-2.7,1.5-3.6,1.5s-2.4,1.2-3.5,1.4c-2.5,0.5-4.9,1.9-7.5,1.9
		c-1.2,0-4.4-0.8-5-1.8c-0.3-0.6-0.4-1.3-0.4-2c0-0.3,0-0.7,0.1-1c0.2-1.9,2.7-3.4,2.7-4.1c0-0.2-0.2-0.3-0.4-0.3
		c-0.9,0-2.6,1.2-3.4,1.7c-1.3,0.8-2.6,1.3-3.9,2c-1.2,0.6-2.2,1.6-3.4,2.2c-1.2,0.6-2.4,1.2-3.7,1.7c-1.4,0.5-2.1,1.3-3.8,1.3
		c-0.8,0-2.4-0.3-2.4-1.3c0-0.4,0.2-0.7,0.5-0.9c1.5-1.8,2.6-3.9,4.3-5.5c0.5-0.5,1.5-1.5,1.6-2.2c-0.1-0.2-0.2-0.2-0.2-0.2
		c-0.3,0-6.5,3.8-7.7,3.8c-0.2,0-0.6-0.1-0.6-0.3c0-0.5,1.9-1.2,2.3-1.5c2.5-1.2,5-2.5,7.4-3.8c0.6-0.3,1.3-0.8,1.9-1.2
		c0.6-0.5,1.2-1,1.9-1.4c1.3-0.6,1.7-2.2,2.8-3c0.9-0.7,1.5-1.6,2.3-2.5c0.9-1,1.4-2.3,2.5-3.2c1.6-1.3,2.6-3,3.9-4.5
		c1.2-1.5,2.9-2.6,4.2-4.1c1.2-1.5,2.4-3.1,4-4.3c1.6-1.2,2.8-2.7,4.4-3.7c2.2-1.4,5.9-3.8,8.5-3.8c1,0,1.5,1,1.5,1.9
		c0,1.5-1.5,3.7-2.7,4.5c-2,1.4-3.1,3.6-5.2,4.8c-0.8,0.5-1.3,1.4-2.2,1.9c-0.9,0.5-1.5,1.5-2.4,2c-1.3,0.8-2.2,2-3.4,3
		c-1.5,1.3-3,2.4-4.7,3.6c-1.6,1.1-3.1,2.4-4.7,3.5c-2.1,1.5-3.5,3.6-5.2,5.4c-1,1-1.9,2.2-2.9,3.3c-0.6,0.8-1.2,1.6-1.9,2.3
		c-0.7,0.7-1.6,1.4-2,2.3c-0.3,0.6-1.6,1.8-1.6,2.1c0,0.1,0.1,0.2,0.2,0.2c1.2,0,5.5-2.4,6.5-3.1c1.3-1,2.9-1.6,4.3-2.4l7.1-3.9
		c0.9-0.5,1.7-0.8,2.7-0.8c1.1,0,2.3,0.6,2.3,1.9c0,0.4-0.2,0.7-0.4,1c-1,1.4-2.5,2.3-3.5,3.8c-0.8,1.3-1.8,1.9-2.6,3
		c-0.2,0.3-0.3,0.5-0.3,0.8c0,1,0.8,1.5,1.7,1.5c1.9,0,3.7-0.8,5.6-1.2c0.9-0.2,1.8-0.6,2.7-0.9c1.6-0.6,3.2-1.1,4.8-1.7l7-2.9
		c0.5-0.2,1.1-0.5,1.7-0.5c0.1,0.1,0.2,0.2,0.2,0.3C253.1,136,252.7,136.3,252.5,136.4z M246.4,105.7c-1.7,0-7.2,5.8-8.9,7.2
		c-1.2,0.9-1.7,2.6-2.9,3.6c-0.6,0.5-1.2,1.3-1.9,1.7c-0.7,0.3-0.8,0.9-1.2,1.5c-0.2,0.3-1,0.8-1,1.2c0,0.1,0.1,0.2,0.1,0.2
		c0.4,0,2.1-1.6,2.4-2c0.5-0.5,1-0.7,1.6-1c1-0.5,1.4-1,2.1-1.8c0.6-0.7,1.6-1,2.2-1.7c0.5-0.6,1.2-1.1,1.7-1.7
		c0.8-1.1,2-1.7,2.9-2.7c0.6-0.8,2-1.7,2.3-2.5c0.3-0.7,0.5-1.1,1-1.7H246.4z"/>
	<path class="st0" d="M276.4,136.7c-1.7,0.6-3.3,1.5-4.9,2.2c-1.7,0.7-3.3,1.7-5,2.2c-2.2,0.6-4.1,2-6.4,2.4
		c-0.9,0.1-1.8,0.6-2.7,0.6c-1,0-1.9,0.6-2.9,0.6c-0.8,0-1.6-0.2-2.3-0.6c-1.6-0.8-2.4,0.3-3.5-2c-0.2-0.4-0.3-0.9-0.3-1.4
		c0-1.5,0.9-3,1.9-4.1c0.9-1.1,5.1-5,6.4-5.4c0.5-0.2,1.1-0.3,1.6-0.6c0.9-0.5,1.4-1,2.4-1.2c0.9-0.2,1.9-0.5,2.8-0.5
		c0.5,0,1.6,0.2,1.6,0.8c0,0.2-0.2,0.3-0.3,0.4c-1.5,1.2-2.9,2.6-4.4,3.7c-1.3,0.9-2.8,1.7-4.3,2.4c-1.5,0.8-2.7,2-3.3,3.5
		c-0.2,0.4-0.3,0.8-0.3,1.2c0,1.3,1.6,1.4,2.6,1.4c2.2,0,3.6-0.1,5.7-0.8c1.7-0.6,3.6-0.9,5.2-1.6c2.3-1,4.7-1.9,7-2.9
		c0.9-0.3,3.1-1.5,4-1.5c0.2,0,0.5,0.1,0.5,0.3C277.5,136.2,276.7,136.5,276.4,136.7z M271.2,114.8c-0.6,0-0.9-0.1-1.5-0.2
		c-1-0.3-2.5-0.2-3.3-0.8c-0.6-0.5-1.5-1.7-1.5-2.5c0-0.4,0.2-0.6,0.6-0.9c0.4-0.2,1.4-0.9,1.8-0.9c0.5,0,1,1,1.4,1.4
		c1,1,0.3,0.5,1.8,1.4c0.5,0.3,1.7,1.1,1.7,1.9C272.2,114.7,271.6,114.8,271.2,114.8z"/>
	<path class="st0" d="M308,136.2c-1,0.6-2.2,1.3-3.2,1.6c-0.9,0.2-1.7,0.6-2.4,1c-3,1.5-7.6,3.8-11,3.8c-1.4,0-2.7,0.4-4.1,0.4
		c-1.2,0-4.6,2.2-6.5,2.6c-0.5,0.1-1,0.4-1.5,0.4c-1,0-2-1.7-2-2.6c0-0.6,0.2-1,0.6-1.4c0.5-0.5,0.7-1.7,1.6-1.7
		c1,0,1.9,0.4,2.9,0.4c1,0,3.1-0.5,3.4-1.7c0.2-1,0.9-1.9,1-2.9c0.3-1.3,0.4-2.6,0.4-3.8c0-0.3-0.1-0.5-0.4-0.5
		c-0.5,0-0.9,0.2-1.3,0.4c-0.6,0.3-1.3,0.5-1.9,0.7c-1.9,0.7-9.1,4.8-10.1,4.8c-0.2,0-0.6-0.1-0.6-0.3c0-0.1,0.1-0.2,0.1-0.3
		c0.1-0.2,5.1-2.8,5.8-3.1l1.4-0.6c0.4-0.2,0.6-0.3,1-0.6c0.5-0.4,1.1-0.6,1.7-0.9c1.3-0.6,3.9-1.5,5-2.4c0.3-0.3,0.6-0.8,0.9-1.1
		c1.5-1.5,6.8-3.4,8.9-3.4c0.6,0,1.2,0.8,1.2,1.4c0,0.4-0.3,0.5-0.6,0.6c-1.2,0.4-2.9,1.3-3.8,2.2c-0.9,0.8-1.9,0.8-2.5,2
		c-0.3,0.6-0.4,1.4-0.4,2.2c0,0.4,0.1,0.8,0.1,1.1c0,0.7,0,1.3-0.3,2c-0.4,1-0.5,2.3-1.3,3.2c-0.1,0.2-0.3,0.3-0.3,0.5
		c0,0.6,0.9,0.9,1.4,0.9c1,0,2.2,0,3.1-0.5c0.9-0.5,2.2-0.7,3.3-1c0.8-0.2,1.6-0.6,2.3-0.9c0.8-0.4,1.6-0.6,2.4-0.9
		c0.6-0.2,1.2-0.6,1.9-0.8c0.8-0.3,1.6-0.6,2.3-0.9c0.5-0.2,0.9-0.5,1.5-0.5c0.1,0,0.4,0,0.4,0.2C308.4,136,308.2,136.1,308,136.2z"
		/>
	<path class="st0" d="M337.8,139.4c-1.4,0.8-4.1,1.5-5.6,1.7c-1.7,0.2-3.5,0.7-5.2,0.7c-1.7,0-3.4-1.5-3.4-3.2c0-0.7,0.5-2.1,1-2.6
		c0.4-0.5,0.6-1,0.9-1.5c0.5-0.6,1-1.8,1-2.6c0-0.2-0.1-0.5-0.3-0.5c-1.5,0-7,3.3-8,4.5c-0.7,0.8-1.5,1.5-2.2,2.3
		c-0.6,0.7-1.5,1.2-2,1.9c-0.7,0.8-1.6,1.3-2.2,2.3c-0.5,1-1.4,1.5-2.2,2.2c-0.8,0.7-1.4,1.5-2,2.3c-1.1,1.5-2.3,2.9-3.7,4.1
		c-0.8,0.8-1.7,1.5-2.4,2.4c-0.8,1.2-1.7,2.3-2.6,3.4c-1.2,1.6-2.8,2.9-4,4.4c-0.9,1-1.5,2.3-2.2,3.6c-0.5,0.9-0.8,1.9-1.5,2.6
		c-0.2,0.3-0.6,0.6-1,0.6c-1,0-3.5-2.2-4.1-3c-0.3-0.3-0.3-0.5-0.3-0.9c0-0.4,0.1-0.8,0.1-1.2c0.2-1.2,3.8-4.2,5-4.8
		c0.6-0.4,0.7-0.9,1.2-1.3c1-0.8,1.7-1.8,2.6-2.6c1-0.8,2-1.6,2.9-2.4c1.9-1.7,3.6-3.6,5.4-5.5c1.7-1.9,3.5-3.8,5.2-5.7
		c1.4-1.6,2.6-3.4,4.3-4.9c0.5-0.5,2.1-2.1,2.1-2.9c0-0.1-0.1-0.1-0.2-0.1c-0.2,0-4.3,2.1-5.1,2.4c-1.1,0.4-3.3,2-4.5,2
		c-0.2,0-0.6-0.2-0.6-0.4c0-0.3,0.6-0.6,0.9-0.8c1.2-0.5,2.3-1.2,3.5-1.7c2.2-0.9,4.1-2.3,6.4-3.4c1.2-0.6,3.3-2.9,4.4-3.8
		c1-1,2.2-1.7,3.1-2.8c1-1.2,2.5-1.9,3.5-3.1c1.6-2.1,6.2-6.4,9-6.4c0.5,0,0.8,0.3,0.8,0.8c0,0.7-0.5,1.2-1,1.4
		c-1.1,0.5-1.5,1.7-2.4,2.4c-2.4,1.9-4.4,4.1-6.5,6.4c-0.6,0.6-1.1,1.2-1.6,1.9c-0.3,0.5-0.6,0.9-1,1.3c-0.5,0.5-2.2,2.2-2.2,2.9
		c0.1,0,0.1,0.1,0.2,0.1c0.3,0,1.3-0.6,1.7-0.8c0.9-0.3,1.7-0.5,2.4-1.1c0.8-0.5,1.6-0.7,2.5-0.9c1.2-0.3,2.1-1.8,3.1-1.8
		c0.2,0,0.4,0.1,0.6,0.1c0.3,0,0.6-0.1,0.9-0.1c0.9,0,1.6,1.1,1.6,2c0,0.4-0.2,0.6-0.5,0.9c-2.4,1.9-1.9,3.1-3.6,5.1
		c-0.5,0.6-1.1,1.7-1.1,2.5c0,1.1,0.8,1.4,1.7,1.4c2,0,4.9-0.7,6.7-1.4c1.2-0.5,2.4-0.7,3.5-1.3c0.5-0.3,2.6-1.2,3.1-1.2
		c0.1,0,0.3,0.1,0.3,0.2C344.3,136.9,338.8,138.9,337.8,139.4z"/>
	<path class="st0" d="M377.4,137.2c-0.8,0.3-1.6,0.8-2.4,1c-1.3,0.4-2.3,1.1-3.6,1.6c-1.6,0.6-3.3,1.4-5,1.8
		c-2.1,0.5-4.1,1.6-6.2,1.6c-1.2,0-1.9-0.8-2.7-1.5c-0.3-0.3-0.8-0.6-0.8-1.1c0-0.2,0.1-0.4,0.1-0.6c0-0.2-0.2-0.5-0.4-0.5
		c-0.1,0-0.2,0.1-0.3,0.1c-1,0.5-2,0.3-3,0.9c-1.4,0.9-3,0.8-4.5,1.3c-1.2,0.4-3.1,0.9-4.4,0.9c-0.9,0-1.1-0.4-1.9-0.8
		c-0.9-0.5-1.6-0.4-2.2-1.5c-0.2-0.4-0.4-0.9-0.4-1.4c0-0.8,0.7-1.4,1.3-1.9c0.8-0.7,1.5-1.5,2.4-2.2c1.5-1,2.9-2.2,4.5-3
		c2.2-1.2,4.4-2.9,6.8-3.6c1.4-0.4,2.7-1.2,4.2-1.4c1.6-0.2,3.2-0.3,4.8-0.3c1.7,0,2.8,0.2,2.8,2.3c0,1.6-1.1,2.2-1.1,2.7
		c0.3,0.4,0.5,0.2,0.5,0.9c0,0.6-0.2,1-0.6,1.5c-1,0.9-1.8,2.1-3,2.8c-0.8,0.4-0.9,0.4-1.2,1.2c-0.2,0.4-0.5,0.8-0.5,1.2
		c0,0.9,0.9,1.6,1.7,1.6c2,0,2.9-0.5,4.7-0.9c1.5-0.3,2.7-1,4.1-1.6c1.6-0.6,3.1-1.2,4.7-1.9c0.8-0.4,2.7-1.4,3.6-1.4
		c0.2,0,0.5,0.1,0.5,0.3C379.8,136.2,377.9,137,377.4,137.2z M363.6,128.6c-0.8,0-1.5-0.2-2.2-0.2c-1.2,0-2.7,1.4-4,1.9
		c-1.6,0.6-2.7,2-4.3,2.6c-1.3,0.6-2.5,1.7-3.7,2.6c-0.8,0.6-0.9,1.5-1.6,2.2c-0.1,0.1-0.3,0.3-0.3,0.5c0,0.5,1,0.9,1.5,0.9
		c0.6,0,1.2-0.1,1.8-0.4c1.6-0.8,3.2-1.3,4.8-2c1.6-0.6,2.9-1.4,4.2-2.5c0.8-0.7,1.4-1.3,2.4-1.6c1-0.3,2.5-1.4,2.5-2.5
		C364.8,129.3,364.3,128.6,363.6,128.6z"/>
	<path class="st0" d="M424.3,136.7c-1.5,0.8-3,1.5-4.5,2.1c-1.2,0.5-2.3,1.2-3.6,1.5c-1,0.3-1.9,0.8-2.9,1c-0.7,0.2-1.3,0.6-2,0.9
		c-0.8,0.3-4.1,1-5,1c-0.2,0-0.3,0-0.4-0.1c-0.8-0.1-1.6,0-2.4-0.3c-0.8-0.3-1.3-1.7-1.3-2.5c0-1.5,1.2-2.3,2.2-3.4l0.3-0.4
		c0.4-0.8,2.7-2.6,2.7-3.1c0-0.1,0-0.2-0.2-0.2c-0.4,0-5.5,2.6-6.9,2.9c-1.5,0.4-2.9,1.3-4.4,1.7c-0.9,0.3-1.9,0.5-2.7,0.9
		c-1.2,0.6-2.4,1-3.6,1.6c-2.2,1-4.7,2.9-7.3,2.9c-1.3,0-1.9-0.9-1.9-2.2c0-1.6,1.9-2.5,2.7-3.8c0.3-0.6,0.6-1,1.1-1.5
		c0.5-0.5,3.3-3.2,3.3-3.8c-0.9,0-1.6,0.8-2.5,1c-0.7,0.2-1.2,0.6-1.8,1c-0.8,0.5-1.7,0.6-2.4,1.2c-0.8,0.5-4.4,2.5-5.1,2.5
		c-0.2,0-0.7-0.1-0.7-0.4c0-0.5,3.1-1.9,3.7-2.2c1.5-0.8,2.8-1.7,4.3-2.6c0.9-0.5,1.5-1.4,2.6-1.7c0.8-0.2,1.5-1.2,2.1-1.2
		c0.5,0,1.2-1,2-1c0.1,0,0.2,0,0.2,0.1c1.6,0.3,4.1-0.1,4.1,2.3c0,1.9-3.3,3.4-4.3,4.9c-0.6,0.9-0.9,1.7-1.8,2.3
		c-0.3,0.3-1.2,0.8-1.2,1.3c0,0.2,0.2,0.3,0.3,0.3c0.5,0,1.7-0.8,2.3-0.9c1-0.3,2-0.6,3-1.2c2.1-1.3,4.7-1.3,6.9-2.7
		c0.9-0.6,2.3-1.5,3.4-1.7c1.3-0.3,2.3-1.5,3.7-1.8c1.2-0.3,2.5-1.5,3.8-1.5c0.8,0,3.7,0.9,3.7,2c0,0.8-1.8,2.7-2.5,3.1
		c-1.3,0.8-1.3,1.5-2.3,2.4c-0.6,0.6-1.5,1.1-1.9,1.9c-0.2,0.4-0.6,0.9-0.6,1.3c0,0.6,0.8,0.6,1.3,0.6c1.5,0,2.8-0.6,4.3-0.9
		c1.2-0.2,2.2-0.9,3.4-1.2c1-0.2,1.9-0.9,2.9-1.2c1.2-0.5,5.6-2.6,6.4-2.6c0.1,0,0.3,0,0.3,0.2C425.4,136.1,424.7,136.5,424.3,136.7
		z"/>
	<path class="st0" d="M448.1,138.7c-0.5,0.1-1.1,0.2-1.6,0.2c-0.8,0-2.6-0.5-3.3-0.9c-0.8-0.5-1.2-1.3-2.2-1.3
		c-0.3,0-0.5,0.2-0.6,0.4c-0.6,0.6-1.5,1-2.1,1.7c-2,1.9-7,5.1-9.8,5.1h-1.2c-1.2,0-2.7-0.1-3.7-0.9c-0.5-0.5-2.2-1.7-2.3-2.2
		c-0.1-0.2-0.1-0.5-0.1-0.7c0-1.5,0.9-2,1.6-3.1c0.8-1.2,3.1-2.6,4.3-3.6c1.4-1.1,3.5-2,5.2-2.5c1-0.3,4.6-0.7,5.1-1
		c0.7-0.4,0.5-1.8,1.4-2.3c0.5-0.3,1.2-0.3,1.7-0.6c0.8-0.4,1.5-0.5,2.3-0.5c1.9,0,2.6,0.5,2.6,2.4c0,1.7-1.9,5.4-1.9,5.7
		c0,0.2,0.1,0.3,0.2,0.4c0.3,0.3,0.6,0.8,0.9,1.2c1,1.2,1.4,0.8,2.7,1.2c0.2,0.1,0.3,0.1,0.5,0.1c1.7,0,5.7-2.1,6.5-2.1
		c0.2,0,0.5,0.1,0.5,0.3C454.9,136.5,449.1,138.6,448.1,138.7z M438.1,132.2c-0.1-0.3-0.2-0.5-0.6-0.5c-1.1,0-5.6,2.9-6.7,3.6
		c-1,0.7-1.6,1.2-2.2,2.3c-0.5,0.9-0.6,0.9-1.3,1.6c-0.2,0.2-0.3,0.3-0.3,0.6c0,0.8,1.5,1.6,2.2,1.6c1.1,0,4.1-1,5-1.8
		c1-1,2-1.9,3.3-2.6c0.8-0.5,2-1.2,2-2.3C439.4,134.3,438.4,132.9,438.1,132.2z M442.3,130c-0.6,0-0.9,0.6-0.9,1c0,0.3,0.2,1,0.5,1
		c0.4,0,0.8-1.2,0.8-1.5C442.7,130.4,442.6,130,442.3,130z"/>
	<path class="st0" d="M482.2,137.2c-1.2,0.5-2.4,0.9-3.6,1.6c-1.3,0.8-2.9,1-4.1,1.8c-1,0.6-2,1.2-3.1,1.5c-2.5,0.8-4.6,2.5-7.2,2.8
		c-0.9,0.1-1.9,0.1-2.6,0.4c-0.4,0.2-0.8,0.2-1.2,0.2c-1.5,0-3.4-0.8-3.4-2.5c0-2,2.5-2.9,3.6-4.3c0.8-1,1.6-1.4,2.6-2.2
		c0.6-0.5,1-1.1,1.6-1.6c0.2-0.2,0.5-0.3,0.7-0.6c0.2-0.2,0.5-0.5,0.5-0.8c0-0.3,0.1-0.5,0.1-0.8c0-0.9-1.8-1.5-2.6-1.5
		c-0.6,0-1.2,0.3-1.7,0.7c-1.3,0.9-3.3,2.3-4.7,2.7c-0.6,0.2-1.3,0.6-1.9,1c-0.7,0.5-3.7,1.9-4.4,1.9c-0.2,0-0.5-0.1-0.5-0.4
		c0-0.5,2.7-1.6,3.2-1.9c0.9-0.6,1.9-1.2,2.8-1.7c0.8-0.5,1.3-1.4,2.2-1.9c0.8-0.6,1.8-2,1.8-3c0-0.6-0.2-1-0.2-1.6
		c0-1.2,0.6-1.9,1.7-2c1-0.2,2-0.7,3-0.7c0.9,0,1.4,0.9,1.4,1.6c0,1.6-1.8,1.6-1.8,2.7c0,0.2,0.1,0.5,0.2,0.6
		c0.2,0.2,1.8,0.8,2.2,0.8c1.3,0.3,2.4,1.3,2.4,2.7c0,2.4-2.3,4.2-3.9,5.7c-0.4,0.3-0.8,0.8-1.2,1.2c-0.5,0.8-1.2,1.3-1.8,1.9
		c-0.1,0.1-0.4,0.3-0.4,0.5c0,0.5,1,0.5,1.3,0.5c1.9,0,5.7-0.9,7.5-1.7l1.1-0.5l1-0.3c1.7-0.8,3.4-1.8,5.2-2.4
		c0.8-0.2,1.6-0.6,2.4-0.9c0.6-0.3,2.8-1.4,3.3-1.4c0.2,0,0.5,0.1,0.5,0.3C484.3,136.3,482.6,137.1,482.2,137.2z"/>
	<path class="st0" d="M526.2,137.6c-1.5,0.6-2.9,1.6-4.5,2c-2.7,0.8-5.3,2.7-8.2,3c-1.2,0.1-1.7,0.9-3.1,0.9h-0.8
		c-0.5,0-1.1,0.1-1.7,0.1c-1.3,0-2.6-0.8-2.6-2.2c0-1,0.8-2,0.8-3c0-0.5-0.5-0.6-0.9-0.6c-1.2,0-2.3,0.9-3.4,1.3
		c-1.3,0.5-2.7,1-4.1,1.5c-1.2,0.3-2.7,0.5-3.8,1.2c-1.7,1.2-4.4,0.6-6,1.3c-0.1,0.1-0.2,0.1-0.4,0.1c-2,0-2.8-1.7-2.8-3.5
		c0-2.5,2.5-3,2.5-4.7c0-0.2-0.1-0.3-0.2-0.5c-0.6,0-5.4,3.1-6.5,3.1c-0.2,0-0.5-0.2-0.5-0.6c0.1-0.5,2.3-1.2,2.8-1.5
		c0.9-0.5,1.6-1,2.5-1.4c0.7-0.3,1.2-0.8,1.8-1.2c1.8-1.3,3.8-2.8,6.2-2.8c0.9,0,2.3,0,2.3,1.2c0,1-0.4,2.2-1.1,3
		c-0.8,0.8-1.2,1.8-2.1,2.6c-0.6,0.6-1.2,1.6-1.2,2.4c0,0.9,0.6,1.1,1.3,1.1c1.4,0,2.8-0.8,4.1-1.2c1.4-0.3,2.9-0.6,4.1-1.3
		c2-1.1,4.3-1.6,6.1-3.1c1.3-1,2.6-2.2,3.9-3.1c0.7-0.5,2.2-0.8,3-0.8c0.9,0,2.4,0.9,2.4,1.9c0,0.8-2,1.7-2.6,2
		c-1,0.4-1.5,1.9-2.2,2.6s-1.5,1.9-1.5,2.9c0,0.7,0.7,1.1,1.3,1.1c0.5,0,0.9-0.1,1.3-0.2c4.3-0.7,8.6-2.2,12.4-4.2
		c0.5-0.3,1.7-1,2.3-1c0.2,0,0.5,0.1,0.5,0.3C527.7,136.9,526.6,137.4,526.2,137.6z"/>
	<path class="st0" d="M593.2,136.3c-0.6,0.7-12.9,6-15.3,6.5c-1.4,0.3-2.7,1-4.2,1c-0.9,0-1.9-0.1-2.8-0.3c-0.5-0.2-0.9-0.7-1.4-1
		c-0.4-0.2-0.5-0.4-0.5-0.9c0-3.9,4.7-5.7,4.7-7.9c0-0.1-0.1-0.1-0.2-0.1c-0.5,0-1.7,0.7-2.2,1c-0.8,0.4-1.3,0.3-2,0.9
		c-1,0.9-2.1,0.6-3.2,1.3c-1.9,1.2-4.7,1.5-6.8,2.9c-1.5,1-5.2,3-7,3.5c-0.8,0.2-1.6,0.5-2.4,0.5c-1,0-1.5-0.6-1.5-1.7
		c0-1.6,1.3-2.7,2.3-3.8c1-1.1,1.6-2.4,2.8-3.4c0.4-0.3,0.8-0.9,0.8-1.5c0-0.4-0.3-0.4-0.7-0.4c-1,0-2,0.7-3,0.9
		c-1,0.2-1.7,1-2.7,1.2c-0.6,0.2-1.2,0.6-1.8,0.8c-0.6,0.3-1.1,0.6-1.7,0.8c-1.2,0.4-2.2,1.3-3.3,2c-1.3,0.8-2.9,1.2-4.2,2.2
		c-1,0.8-3.3,2.4-4.5,2.4c-0.2,0-0.3-0.1-0.5-0.1c-0.6,0-1.1,0.2-1.6,0.2c-0.9,0-1.6-0.7-1.6-1.6c0-1.3,1.9-2.9,2.8-3.7
		c1.5-1.3,3-2.3,4.3-3.7c0.3-0.3,1.2-1,1.6-1.5c0.2-0.2,0.3-0.4,0.3-0.8l-0.2-0.1c-1.2,0.6-2.5,1.3-3.7,1.7
		c-0.9,0.3-1.7,0.8-2.4,1.3c-1.2,0.8-2.4,1.5-3.7,2c-0.8,0.2-1.3,0.8-2.2,0.8c-0.2,0-0.5-0.1-0.5-0.4c0-0.5,2.3-1.5,2.9-1.7
		c0.7-0.3,1.3-0.9,2-1.2c0.6-0.3,1.2-0.8,1.8-1.2c0.8-0.6,1.7-1,2.6-1.5c0.9-0.5,1.6-1.5,2.5-1.9c0.8-0.3,2.3-1.3,3-1.3
		c0.2,0,0.5,0.1,0.7,0.1c0.4,0,0.8-0.1,1.2-0.1c0.5,0,1.2,0,1.6,0.3c0.4,0.3,0.9,1,0.9,1.6c0,1-2.3,3.7-3.1,4.4
		c-0.8,0.5-1.2,1.4-2.1,1.7c-1,0.3-1.5,1-2.2,1.7c-0.3,0.2-1.1,0.6-1.1,0.9c0,0.1,0.1,0.2,0.2,0.2c0.5,0,1-0.3,1.5-0.5
		c1-0.3,1.7-1.1,2.7-1.4c0.8-0.2,1.4-0.9,2.2-1.2c0.9-0.3,1.7-1.3,2.7-1.5c0.6-0.1,1.2-0.3,1.6-0.7c0.6-0.5,1.2-0.8,1.9-1
		c0.6-0.2,1.2-0.7,1.9-1c1.2-0.6,3.9-1.8,5.2-2c0.7-0.1,1.3-0.6,2.1-0.6c0.8,0,3.4,1,3.4,1.8c0,0.6-1,1.5-1.3,2
		c-0.5,0.8-0.9,1.6-1.8,2.1c-0.9,0.5-1.8,2.6-3.1,3.6c-0.2,0.2-0.7,0.4-0.7,0.9c0,0.1,0.1,0.1,0.1,0.1c0.6,0,1.4-0.5,1.9-0.7
		c1.2-0.5,2.3-0.8,3.4-1.6c0.8-0.5,1.8-0.7,2.7-1.2c0.7-0.4,1.6-0.5,2.2-0.9c1.2-0.8,2.6-1,3.7-1.8c1-0.6,2.2-0.7,3-1.5
		c1.2-1,4.5-2.7,6.1-2.7c0.9,0,3.3,1.3,3.3,2.3c0,0.5-2.1,2.9-2.6,3.3c-0.8,0.6-1,1.6-1.8,2.3c-0.6,0.5-0.8,0.9-1.2,1.6
		c-0.3,0.5-0.9,1-0.9,1.6s0.8,0.7,1.2,0.7c1.1,0,2.2-0.5,3.2-0.5c1,0,1.7-0.5,2.6-0.8c0.9-0.3,1.8-0.5,2.7-0.9
		c0.9-0.4,9.4-4.1,9.6-4.1c0.2,0,0.3,0.2,0.3,0.4C593.4,136,593.3,136.1,593.2,136.3z"/>
</g>
</svg>
