<svg xmlns="http://www.w3.org/2000/svg" viewBox="0 0 772.5 497.09"><defs><style>.cls-1{font-size:78.55px;font-family:LamarPen, Lamar Pen;}.cls-1,.cls-2{fill:#412020;}.cls-2{fill-rule:evenodd;}</style></defs><title>Asset 3</title><g id="Layer_2" data-name="Layer 2"><g id="Juegos_y_juguetes" data-name="Juegos y juguetes"><text class="cls-1" transform="translate(31.02 427.89)">Juegos y Juguetes</text><path class="cls-2" d="M434.6,11.24c-1-1.69-5.44-.27-6.2-1.6-1.36.73-3.08-.61-4.4.2.14,1.78,3,.18,4.4,1.6C430.46,11.16,433.25,11.78,434.6,11.24Zm-11.6-.8h.6v-.8C423.07,9.58,422.94,9.92,423,10.44Zm13,.4c-.57,0-1.09,0-1,.6C435.71,11.17,436,11.77,436,10.84Zm-5.4,2.6c.29,1.36,2.66.63,3.4.6A3.64,3.64,0,0,0,430.6,13.44ZM483,31.65c.56-.12.65-.69,1.2-.8C483.79,30.3,482.9,31,483,31.65Zm-10.6,5c.8.06,1-.46,1.8-.4v-.8C473.63,35.87,472.53,35.77,472.42,36.66Zm.6,1.4c.29.34,1.42-.17,1.4-.8C473.53,37.09,473.53,37.83,473,38.06Zm-1.6,1.2a3.63,3.63,0,0,0-2.8.4C469.1,40.59,470.76,39.46,471.42,39.26Zm-7.21,2a12,12,0,0,0,2.4-.6C466.33,39.21,464.1,40,464.21,41.26Zm-68.64,1c-.42-.86-2.6-.69-3.4-.2a45.83,45.83,0,0,0-10-2c.54.77,0,1.39.4,2.2.43-.17.32-.88.6-1.2,1.41-.51,2.49.57,4,1v-.6C389.83,42.27,393,43.33,395.58,42.26Zm46-.8c-.06-1.12-2.19-1.58-2.6-.6C439.3,42,440.85,41.57,441.6,41.46Zm-13.41-.8c-.46-.48-.71-.24-1.4-.2-.24.6-.05.68.2,1.2C427.78,41.71,427.36,40.56,428.19,40.66Zm24-.2c-.78-.15-1.12.67-.8,1A1,1,0,0,0,452.21,40.46ZM443,41.66c0-.6-.52-.68-.6-1.2-.32-.05-.35.19-.6.2C441.74,41.45,442.18,41.74,443,41.66Zm-5.8-.2a1.32,1.32,0,0,0-.2-1c-1.55,1.06-2.69,0-4.41,1,.12.23,3.19,1,3.4-.2C436.49,41.68,436.43,41.55,437.2,41.46Zm-5.21-.6c-1.57-.48-3.2-.37-3.8,1,.69-.62,2.15-1,2.8,0C431.71,41.9,432,41.57,432,40.86Zm15.41.4c-.56-.48-3-1.07-3,.2C446,41.54,445.92,41,447.41,41.26Zm6.8.8c-1.13-.28-3.35.23-5.6,0-.54-.14-.39.41-.6.6-1.39-.47-2.56-.12-4.4-.2.06.53-.08.86-.6.8,3.43-.1,8,.27,11.6-.4C454.49,42.69,453.49,42.42,454.21,42.06Zm-36.42.8c.21.45,1.26.08,1.8.2C419.25,42,418.61,42.86,417.79,42.86Zm17.21.2c.21.45,1.26.08,1.8.2C436.53,42.52,435.5,42.6,435,43.06Zm-8.61,0c-.2-.87-2.08-.3-2.4,0A3,3,0,0,0,426.39,43.06Zm5.2-.2c-.12.79,1.1.24,1.6.4C433.15,42.64,432.2,42.92,431.6,42.86Zm-48.83,0c-.71.66,1,.6,1.4.8C383.95,42.86,383.19,43,382.77,42.86Zm6.4,1.6a11.81,11.81,0,0,0-4.4-1C385.49,44.8,387.32,44.44,389.17,44.46Zm8.81.2c-1.59.36-3.83-1.12-4.8.4C394.34,45.55,397.32,45.85,398,44.66Zm-108.66,4.4c4.8,0,11.39.89,15.81,1.2a21.17,21.17,0,0,0-7-1.6C295.24,48.4,291.63,48,289.31,49.06Zm30.22,7c-4.06-1.49-9.31-1.43-14.61-1.8-5.46-.38-11.48-.57-16.41-.8-4.28-.2-10.43-.85-12.6,1.6C290.47,54.11,305.94,56.23,319.53,56.07Zm1,.2c2.08.42,4.32.21,6.2.4C325.87,55.86,321.68,55.16,320.53,56.27Zm-46.43,1.4c25.28,1.49,54.66.67,77.64,3.2-16.25-3.18-39-3.38-57.63-4.2-6.11-.27-12.23.3-17.81-.2C275.18,56.37,274.67,56.24,274.11,57.67Zm-.4,2c1.18,1.84,3.91,1.19,5.6,1.2,16,.09,32.27.35,47.63.8,3.79.11,6.73-.27,10.2,0-2.67-1.76-6.6.2-9-1-16.35-1.31-34.14-.42-50.83-1.2C276.45,59.43,274.52,58.76,273.71,59.67Zm65,1.8c-.18-.35-.62-.44-1.2-.4a1.16,1.16,0,0,1,.2.8C338.38,62,338.5,61.7,338.74,61.47Zm-7.4,2c-18-.91-35-.53-54.23-1,1.24,1.83,3.77,1.12,5.8,1.21,14.69.61,29.9,1.17,45.63.6C329.32,64.24,331,64.79,331.34,63.47Zm.8.4c1.44-.24,2.93.86,4.8,0C336.12,63.34,332.39,63,332.14,63.87Zm-47.43,1.8c.91.93,2.56.82,3.8,1,9.17,1.29,21.27.48,31.82,0,1,0,2.48.13,3.2-.8-9.05-.14-19.25.19-28.62,0-3.05-.06-6-.76-8.6-.8C285.71,65.06,284.76,64.74,284.71,65.67Zm18.21,2.6a5.94,5.94,0,0,0,3.6,0A6.72,6.72,0,0,0,302.92,68.27Zm-2,0c-.2.81,1.19.81,1,0C301.42,68.25,301.3,67.9,300.92,68.27Zm-1.8.4c.8-.14,1.14.19,1.8.2A1,1,0,0,0,299.12,68.68Zm31.82,11.41c1.42.63,2.69,0,4.2.4.17-.64-.32-.62-.4-1C333.94,80.59,331.63,79.07,330.94,80.08Zm-8.81.6a.94.94,0,0,0-.6-.2c0,.85,1.72,0,2,.6.34-.25.79-.41.8-1-.94.18-.53.41-1.4,0-.07.26-.35.31-.4.6-.2,0-.15-.25-.2-.4C322.14,80.29,322.18,80.53,322.13,80.68Zm-19.81,3.2c.56-.37,1.34-.53,1.4-1.4A1.24,1.24,0,0,0,302.32,83.88Zm-7.8,8.41c-1.11-.69-1.35,1-1.6,1.8.38.38.36-.12,1,0C293.76,93.13,294.63,93.2,294.52,92.29Zm1.2,2.2c-.07-1,.76-1.1.6-2.2-1.08.12-1.19,1.2-1.8,1.8C294.73,94.76,295.12,94.1,295.72,94.49Zm-.8.2h-.6c0,.65.35.85.2,1.6C294.92,96.26,295.31,95.35,294.92,94.69Zm-4.8,29c1.21-.72,1.48-6.6-.2-7C289.36,118.18,289,122.55,290.12,123.71Zm213.32-.6a1.32,1.32,0,0,0-1-.2c.56.47.72.76.2,1.4C503.53,124.54,503.16,123.5,503.44,123.11Zm-213.12,1.4h-1.2c.09,3.44.48,8.29.8,12.81.23,3.24-.06,6.61,1,9.2,1.2-.25.72-2.74.6-4.4-.37-5.15-.87-11.51-1.2-17Zm195.31,1.4c.68.86,2.29-.4,3-.8C487.52,125.07,486.43,124.83,485.63,125.91Zm-191.91-.4c-.7.47-.27,2.05-.2,2.8C294.47,127.82,293.45,126.57,293.72,125.51Zm187.9.2c-.42.44-.57-.1-1.2,0,.3.24.24.83.8.8C481,125.86,481.87,126.35,481.62,125.71Zm-1,2.6c1.11,1.06,2.34-.91,3.8-.8-.4-.37-.12-1,.6-.8C483.72,125.88,482.25,128.15,480.63,128.31ZM291.32,152.92c.34,3.07-.13,7.21,1.8,8.2-.47-4.2-.94-8.39-1.4-12.61C290,148.87,291.13,151.2,291.32,152.92Zm167.5,2.8c-.47.06-.45.62-.8.8.07.26.36.31.4.6C459.37,157.09,459.25,156.23,458.81,155.73Zm-2,10.81c-.34,2.84-1.63,3.66-2.2,6.4,2.33-2.75,3.22-6.92,4.8-10.41,0-.79-.3.06-.6-.4,1.51-.72,2.15-1.56,2-3.6-1.54.26-1.2,2.4-2.2,3.2.52,2.09-1.69,2.87-1.2,4.6C457.38,166.56,457,166.5,456.81,166.53Zm0-5.8c.5-.38,1.44-1.12,1-1.8C457.33,159.33,456.2,159.87,456.81,160.73Zm-.6.6c-.6,3.15-3.23,5.8-2.6,7.8-.05.42-.88.06-1,.4.44.81-.89,1.4,0,1.4-2,2.81-2.74,6.38-4.2,9,2.08.76,2.11-2.52,2.8-4.2a17.47,17.47,0,0,1,2.8-4.8c.5-3.6,2.44-6.5,3-9.4C456.95,161.25,456.51,161.36,456.21,161.33Zm-162.89.4a1.71,1.71,0,0,0-1.2-.2c.13,2.08.7,4.3.6,6a1.11,1.11,0,0,0,.8.2c-.67.77.42,1.22-.6,1.2.36.78-.09,2.36.6,2.8,1.54,0,.47-1.7.4-2.4C293.7,167.1,293.52,164,293.32,161.73ZM453,175.94c1.34-.06,1.17-1.64,1.4-2.8C453.8,173.93,453.54,175.07,453,175.94Zm59,.6c-1.18-.94-2.81-.28-4.41-.2-2.21.11-4.86-.74-6.4.4.53,2,4-.08,5,1a14.14,14.14,0,0,0,2.2-1A2.18,2.18,0,0,0,512,176.54Zm-59.23,0c-.38,1.69-1.81,2.32-1.8,4.4a11,11,0,0,0,2.4-4.4Zm48.43,1.6c-.24.3-.25.82-.6,1,.41,1,2,.83,3.4.8,0-.32-.1-.76.2-.8,1.53.52,5.78,1.86,7.4-.2C508,177.87,504.2,179,501.24,178.14Zm-78.85,42.42c2.13-.24,3.27-3.11,5.61-3.8,1-3.29,4.59-3.94,5.4-7.4,2.42-2,3.45-5.35,5.8-7.41a1.13,1.13,0,0,1-.2-.8c1.93-1.74,2.72-4.62,4.2-6.8.12-.65-.14-.93-.2-1.4,1.34-1.19,2.63-2.44,2.6-5,1.19-.88,1.66-2.48,2-4.2.09-.3.26.08.6,0,.05-1.29.68-2,1-3-1.22-.65-1.57,1.35-2.2,2.6-.53,1.06-2.4,3.72-1.6,4.61-.06.27-.5.16-.8.2.14.79.23.89-.6,1-2.55,7.88-6.74,13-10.81,19.41-1.21,1.65-3,2.7-3.8,4.8-.06.27-.5.17-.8.2C427.78,217.15,423.55,217.32,422.39,220.56Zm26.42-34.62c.91-.83,1.21-2.26,1.6-3.6-.29.1-.5.29-.8.4C449.9,184.28,448.24,184.78,448.81,185.94Zm59.84-1c.11-.42.5-.57.4-1.2a1.28,1.28,0,0,0-1-.2c-1,1.37.94,1.94.2,3.6.42.44.59-.26,1.2-.2C508.37,186.65,510,184.91,508.64,184.94Zm-1,3.4c-.7-1.27.35-3.22-1.6-2.8-.17,1,.47,1.14,1,1.4C506.71,187.53,506.34,188.49,507.64,188.34Zm-58.83-2.2c-.36,0-.42.25-.8.2v1A1,1,0,0,0,448.81,186.14ZM510,199.95a44,44,0,0,0-2.6-10.81c-.23,0-.35,0-.4.2.16,2.87,1.77,4.43,1.4,8C509.46,198,509,199.64,510,199.95Zm-4.8-8.6c.24.42.77.56,1.2.8a1.3,1.3,0,0,1-.2-1A1.31,1.31,0,0,0,505.24,191.34Zm-167.7,1c3.69.34,9,1.5,13,1.6-2-.88-5.31-2.49-7.6-1.8C341.85,191.05,338.52,191.12,337.54,192.35Zm-6.2.4c1.51-.08,2.25-.62,3.4-.6-.37-1.18-2.66-.78-3.8-.4C331.14,192,331.13,192.48,331.34,192.75Zm175.3.6c0-.36-.24-.42-.2-.8-.57-.16-.52.29-1,.2C505.55,193.23,506.19,193.19,506.64,193.35Zm-.4,2h.6c.38-.38-.12-.36,0-1A.72.72,0,0,0,506.24,195.35Zm1.4,5.4c1.46-1.38-.54-3.57-.6-5.2-.33-.06-.35.19-.6.2C506.54,197.64,507.17,198.87,507.64,200.75Zm-196.91,1.4a4.7,4.7,0,0,0,2.4.2,1.14,1.14,0,0,0,.2-.8c4.14-.57,7.68-1.13,10.6-3.21,2.07,1.37,5.39-.45,7.6-.4.08-.38.43-.5.4-1,2.78,1.73,7-.92,8.8,1.2.65-.17.8-.69,1.2-.6-2.14-2.27-6.92-.52-9.61-1.2-6.18,1.76-12.54,1.46-17.61,4.6A4.62,4.62,0,0,0,310.73,202.15Zm-.4-4.4a12.35,12.35,0,0,0,.2-1.4,1.52,1.52,0,0,0-1.4.4C309.52,197.09,309.44,197.91,310.33,197.75ZM506,202.15c-.18.8-.15,1.82.8,2-.63,2.23,1.1,5.22,2.2,7a10.37,10.37,0,0,0-1.6-5.6c0-.36.25-.42.2-.8-1.64-1.93-.77-5.1-2.2-7.6C503.44,198,505.33,201,506,202.15Zm-161.89-3.8c-.12-.52.08-.72.6-.6-.12-.68-1.49-.11-1.8-.6C342.14,197.65,343.06,198.57,344.15,198.35Zm19.21.8c.53.06.66-.28.6-.8-.42-.09-.53.14-.8.2A.93.93,0,0,1,363.36,199.15Zm-47.43,7.21c.87,0,1.12-.56,1.8-.2.65-1.28,2.25-1.25,3.4-1.6,2.93-.9,7.28-2.64,11.81-2.8,11.87-.44,20.22,3.19,27.81,7.2,4.81,2.54,7.63,4.11,10.81,7.8,1.86,2.15,3,4.56,6.6,2.6-1.25-3.09-4.73-5.68-7-8.41-1.29-.68-1.92-.8-2.6-2-5.24-2.73-11.57-6.57-19-8.61-4.37-1.2-11.6-2.2-15.81-1.8-5.82.55-12.15,2.31-17.61,3.8a2.92,2.92,0,0,0-2,1.2c-1.36-.48-1.56.48-2.6.8C311.6,207.06,314.84,209,315.93,206.35Zm192.31-5.2c-.61,0-.42,1.08.2,1A1.3,1.3,0,0,0,508.24,201.15Zm2.8,3.6c.89-.64-.29-1.56-.4-2.4-1,.47.4,1-.2,2C510.6,204.52,511,204.47,511,204.75Zm-218.12-.2c0-.84.33-.94,0-1.6a61.12,61.12,0,0,0-11.6,14.81c2.2.42,1.89-3.28,4-3.6C287,210.06,289.84,207.21,292.92,204.55Zm52.23-1.4c-.26.28-.94.12-1.2.4-1.15,6.91-1.26,12.66-2.4,18.61.63,0,1.59.8,2.2.2.94-1.94.91-5.37,1.2-8.81C345.27,209.77,346.32,205.32,345.15,203.15Zm163.29.2c.35.3-.38,1,.6,1C509.29,203.77,509.14,203.44,508.44,203.35Zm-180.1.2c-.53,0-1.14-.08-1.4.2,0,2.77-1.1,7.6.6,9C329.94,211.6,328.79,206.33,328.34,203.55Zm180.7,1a8.68,8.68,0,0,0,1.8,5.6A12.51,12.51,0,0,0,509,204.55Zm2.6.6H511c1,3.26,1.31,7.22,3.8,9C514,210.89,512.48,208.38,511.64,205.15ZM283.31,220.76c.62-2,2.41-2.79,2.6-5.21.68.08.78-.72,1.8-.8.35-1.59,1-2.89,2.4-3.4a5.27,5.27,0,0,1,3.4-3.8,1.36,1.36,0,0,1,.6-1.4c.15-.54-.39-.4-.4-.8a32.76,32.76,0,0,1-4.8,4.6v1.2c-1.33.85-2.82,3.15-4.2,4.6-.11.45.38.28.4.6-1.83.87-2.75,3.61-3.6,4.8C282.29,221.66,282.48,220.5,283.31,220.76Zm20.81-13.61c-.7.1-1.24,0-1-.8-1.32.2.17,1.31.2,2A1.84,1.84,0,0,0,304.13,207.15Zm266.35,3.6a5.27,5.27,0,0,0-4-1C565.29,212.29,569.74,212.07,570.48,210.76Zm-10.21.6v-1.2a5,5,0,0,0-2,.2C558.06,211.84,559.26,211.53,560.27,211.36Zm-46.62,5.81c.27.45-.52.75,0,.8,1.19,1.13.88,3.78,2.4,4.6.57-1.86-1-3.28-1.8-4.4a40.09,40.09,0,0,0-2.8-7.61c-.36,0-.42.25-.8.2C511.56,213.3,511.74,215.48,513.64,217.16ZM509,211.36c.56.51.17,2,1.2,2C510.12,212.41,510,211.45,509,211.36Zm-151.68,4c-2,2.55-4.47,4.79-6,7.61.25.68,1.56.31,2.4.4,2.52-4,6.17-6.77,8.2-11.21C360.52,209.68,358.58,213.82,357.36,215.36Zm-43.83,9.81c-.76-1.16-2-1.07-3-1.8-2-1.5-2.63-4.28-4.2-6.2-.48-.09-.44.36-1,.2-.09-.43.29-.39.6-.41-1-1.77-1.56-3.9-2.6-5.6-.55-.14-.4.4-.8.4,2.33,6.61,5.62,12.26,12.21,14.61C314.67,225.62,314.44,225,313.53,225.17Zm202.32-11.61c.34.73,1,1.12,1.2,2,.57-.78-.55-1.58-.4-2.6C516.14,212.92,516,213.26,515.85,213.56Zm49.43-.2c1.11,1.72,4.39.76,6,.8C569.75,213.09,567.46,213.38,565.27,213.35Zm-26.22,0c-.53-.19-2.77.25-2.2,1.2a1.78,1.78,0,0,1,1.6-.4C538.66,213.89,538.65,213.41,539.06,213.35Zm-28.62.2c-.52.41-.08,1.54.6,1.4C511.25,214.09,510.63,214,510.44,213.56Zm69.84,2.6c.17-.56-.28-.51-.2-1a33.93,33.93,0,0,0-7.21-1c.68.89,1.41.68,2.6.4.42.06-.29.53.2.8C577.37,215.7,577.88,216.32,580.28,216.16Zm-47.42,23c-.27-.88-.68-2.17-1.61-1.8.1-1.63-.4-2.67-1.6-3-.35-2.71-2.42-3.72-3-6.2-.64.17-.62-.32-1-.4-.82-2.93-1.91-5.56-3.81-7.4a16.23,16.23,0,0,0-1.8-5.2h-.8V217a29.74,29.74,0,0,1,3.6,7c1.52.21.63,2.84,2.2,3,.08,2,2.42,3.26,2.6,5.8C530.05,234.23,530.27,237.88,532.86,239.17Zm30.21-23.61c.4.38.55.89-.4.8a66.79,66.79,0,0,0,8.21,1c.21-.75-.42-.65-.6-1C568.07,216.81,565.68,215.8,563.07,215.56Zm-25,4.61c.88-.66,2.59-.48,3.2-1.4,1.36.82,2.72.2,3.81-.6,3,0,6.27.34,8.6-1.4,1,1.07,3.31.65,4.2-.2,1.57,1.11,2.68.14,4.6.2-.26-2.07-3-.57-3.6-.6a45.87,45.87,0,0,0-7,0,32.78,32.78,0,0,0-5.4.8c-.2.06-.76.77-1,.8s-1-.39-1.2-.4C542,217.28,538.75,219,538.06,220.16ZM516.24,219c.84-1-.12-3.06-1.4-3.2A12.11,12.11,0,0,0,516.24,219Zm55-1.4a7.4,7.4,0,0,0,4.2.41c.07-1.15-.76-1-1.4-.6C573.2,217.15,571.26,215.78,571.28,217.56Zm-53.83-1c-.12,1,1.25,1.54.6,2.4,3.11,5.1,5.54,10.86,9,15.61.72-1.78-.78-2.05-1.6-3.4s-.5-2.81-2-3.2c-1.09-4.46-3.84-7.24-5.2-11.41Zm-207.12,4.2a7,7,0,0,0-.6-2.2c-.55-.15-.41.4-.8.4.33-1.15,0-1.4-.4-2.2-.39.14-.53.53-.6,1C308.64,218.85,309.07,220.22,310.33,220.76Zm-23.81-3c-.39.43-1.66.74-1,1.6C286.27,219.25,286.4,218.51,286.51,217.76ZM589.88,219c-.07-.93-1.54-1.31-2.4-.8A2.12,2.12,0,0,0,589.88,219Zm-308.17,0c.14-.67-.34-.73-.8-.8C280.77,218.83,281.25,218.89,281.71,219Zm-2.2,13.21c5.89-4.52,13.38-7.93,20.41-11.61a3.36,3.36,0,0,0-.4-1.4c-.24,0-.36,0-.4.2a138.53,138.53,0,0,0-18,9.6c-1.7,1.05-4,2.25-4.6,4.4C277.72,234,278.71,232.78,279.51,232.17Zm1.2-13a5.92,5.92,0,0,0-2.8,4.2C280.14,223.1,280.19,220.61,280.71,219.16Zm238.14,6c1.34-.27.56,1.57,1.6,1.6,0-2.52-2.1-4.85-3.2-7.4C516.21,221.28,519.23,222.57,518.85,225.17Zm13.41-3.8c1.16.56,2.36-.57,3.4-.8C534.62,220.14,533.18,221,532.26,221.36ZM311.93,223c.36,0,.42-.25.8-.2-.07-1.06-1.49-.78-1.6-1.8-.61,0-.5.7-.6,1.2C311.47,222,311.54,222.62,311.93,223Zm59.43.6c.68.47.88-1.24,2-1V222a1.72,1.72,0,0,0-1.2-.2c0,.58-.25.95-1,.8C370.78,223.24,372.06,223.22,371.36,223.56Zm-47,3.6c-2.53-2-7.35-2.33-10.21-4.8-.3.23-.89.17-.8.8.29,1.51,2.95.66,3.4,2C319.53,225.31,322,227.86,324.34,227.17Zm-42,4.8c-1.7,1.11-4.23,2-4.2,4.2.94.48,1.93-.48,2.6-1a96.34,96.34,0,0,1,19-11.81,1.1,1.1,0,0,1-.2-.8c-.16,0-.2-.2-.4-.19-3.62,2-7.75,3.76-11.61,5.8C285.71,229.12,284,230.85,282.31,232Zm233.93-9.2c-.09.89.11,1.49,1,1.4,0,.47-.35.59-.2,1.2.36,0,.42.24.8.2A3.28,3.28,0,0,0,516.24,222.76Zm38.62,26c.53-7.57-.75-16.7-1-24.81-.63-.33-1.11-1.11-2-.6.65,7-.64,16.36.6,22.21C552.73,246.84,553.35,248.58,554.87,248.78Zm13.4,11.81c.09.56-1.09-.16-1,.4,0,2.64,2.39,1.58,4.2,1.8,8.48-6.18,17.44-12.52,26.21-18.81,1-.73,3.2-1.67,2.41-3.6-2.53-.31-4.73,1.73-6.61,3-1,.67-1.79,1.52-2.8,2.2-7,4.72-14,9.79-21.21,14.61,1.7-7,3.54-16.46,5.2-25.21.66-3.44,2-7.34.6-9.6h-.6c-1.47,2.37-1.82,5.33-2.4,8.2-1.68,8.31-3.52,17.44-5.2,26C567.12,260.27,567.67,260.46,568.27,260.58Zm-49.83-35h-.6c-.37.36.09.59.2,1C518.49,226.53,518.47,226.06,518.44,225.56Zm-190.51,1.2c.7-.65-.84-.75-1.2-1C326,226.42,327.74,226.36,327.94,226.76Zm88.85.2a10.64,10.64,0,0,0-3.8,1.81C413.91,229.33,416.31,228.15,416.79,227Zm-30.41,1.2c.51,0,.4-.67.4-1.2-.54-.14-.4.4-.8.4C386.08,227.66,386.27,227.87,386.37,228.17Zm135.28.2a1.08,1.08,0,0,0-1-1.2C521,227.54,520.71,228.57,521.65,228.36ZM188.06,240c6.07,9.07,14.4,15.88,20.41,25,1.58.16,1.65,1.82,3,2.2,1.57-1.07,2.83-1.25,4.6-2,.05-6.63.09-15.29.2-22,.06-3.84.24-10.17-.2-15,0-.16-.44-.35-.4-.6h-1.6c-.54,2.58.25,9-.4,11.81.38,7.14.88,19.24.2,26.21-3.36-.74-4.86-4-6.8-6.2a89,89,0,0,0-6-6.8,7,7,0,0,0-2.8-3.2,5.23,5.23,0,0,1-.6-1.6c-3.55-2.19-5-6.51-8.81-8.4C188.8,239.78,188.32,239.77,188.06,240Zm198.51-11.41c-4.59,1-1.53,9.47-2.6,13,.72,5.38.71,14.56,1,21.21.09,2.07-.73,5.22,1.6,5.8.89-12.51-1.52-28.72.4-39.42C387,228.76,386.93,228.54,386.57,228.57Zm135.48.2c-.75,1.18,1.22,3,2,4C524.14,231.47,522.77,229.91,522,228.77ZM409.78,230c1.42-.58,2.42.58,3-1C411.58,229.1,410.21,229.05,409.78,230Zm-76.64,1.4c-2.26-1.28-6.63-1.51-9-2,2.35,1.94,5.83,1.73,9,2.6C333,231.81,332.83,231.42,333.14,231.37Zm-103.86,6c-1.47,8.21-3.47,18.05-4.2,25.61,2.12.27,2.39-3,2.8-4.61.89-3.53.5-8,2-11.21.24-.57,0-.85-.2-1.4.5-.43.42-1.45,1-1.8.25-5.53,1.48-9,1.6-14.21.05-.32-.19-.34-.2-.6C229.84,228.68,229.69,235.09,229.28,237.37Zm23.82-6.81c0-1-1.16-.84-1.8-1.2A1.49,1.49,0,0,0,253.1,230.57Zm351,.6a2,2,0,0,0-1.8-1.6C602.48,230.53,603,231.67,604.09,231.17Zm-196.91-.6c.41.33,1.43-.42,2.2-.4.06-.46-.58-.22-.6-.6C407.81,229.46,407.85,230.36,407.18,230.57Zm113.06-.8c-.49.54.34,2.91,1.6,3C522,231.88,520.95,230.5,520.25,229.77Zm-140.68,1c.35,0,.46-.35.4-.8h-.8C379,230.51,379.57,230.37,379.57,230.77Zm-16,.6c-1.65-1-4.44-.56-6-.6C359.36,231.88,361.53,231.29,363.56,231.37Zm-57.63,5.2c1.71,1.32,3.36,3.23,5.4,3.2.49-2.55-2.49-3.39-4-4.6a38.45,38.45,0,0,1-4.6-4.21c-1.13,0-2-.73-3-.2C300.72,233.35,303.6,234.77,305.92,236.57Zm95.25-5.41c.14.87,2.52.79,2.6,0A15.71,15.71,0,0,0,401.18,231.17Zm-.6,1c0-.36.24-.42.2-.8-.65-.6-1.13-.13-1.81.2C399.19,232.09,399.79,232.22,400.58,232.17Zm-3-.8a26.45,26.45,0,0,0-4.2.4,1.09,1.09,0,0,0,1,1C394.63,231.2,397.17,232.94,397.57,231.37Zm-30.82,1.8c-2.55.45-6.24-1-10.2,0-2.9-1.14-7.18-.17-10-1-.8-.2-.6.6-1.4.4.14-.86-1-.65-1.2-.2.77,2.07,2.65.53,4.2.6.47,0,1,.53,1.4.6,3.61.63,7-.13,10,.2.88.1,1.67.55,2.4-.2,1.4.88,2.44-.25,3.4.6C366,233.78,366.05,233.06,366.76,233.17Zm11.61-.6c.38,1.8,2.7.55,3.8.2C381.46,232.19,379.12,231.85,378.37,232.57Zm-125.07.6c0,.71-.66-.43-.6.2-.12.79,1.1.24,1.6.4-.6-.53-1.07-1.2-2.2-1.2C252.21,233.05,252.85,233,253.29,233.17ZM312.93,240c-.89,2.07-2.13,4-2.2,5.8,2.52.82,5.75,1.21,8,.2,0-.87-.35-.36-1-.4,1.13-3.54,2.5-6.84,3.6-10.4-2.46-.59-4.39-2.42-6-.8C314.35,235.35,313.75,238.06,312.93,240ZM525,234c-.18.09-.36.18-.4.4,1.65,2.15,2.24,5.36,4.8,6.6A48.28,48.28,0,0,0,525,234Zm-2.2.6c.79,1,.35,2.58,2,3C523.94,236.81,524.49,234.59,522.85,234.57Zm14.21,13c-1.65-3.62-5-5.57-6.61-9.21a15,15,0,0,1-2.2-3.4c-.54-.14-.4.4-.8.4.62,1.78,2,2.8,2.6,4.6C532.9,242,534.16,245.6,537.06,247.58ZM378,235.37c.52,1,1.87.86,3.2.6C380.81,235.15,378.9,235,378,235.37Zm.8,2.4c-.42-.08-.53.14-.8.2.07.26.35.31.4.6C378.72,238.52,378.82,238.23,378.77,237.77Zm-52.43.4a2.57,2.57,0,0,0-.6,1.8c1.15-.32,1.52-1.41,2.2-2.2C327.33,237.83,327.22,238.39,326.34,238.17Zm198.51,0c.12.68.14,1.46,1,1.4C526,238.61,525.6,238.22,524.85,238.17Zm-196.31,1c.81.66-.07,1.88-.4,2.6.19,0,.15.24.2.4.9.17,1-.47,1.6-.6C329.93,240.4,329.66,238.59,328.54,239.17Zm205.32,1.4c.17-.78-.49-.71-.6-1.2C532.41,239.63,533.24,240.57,533.86,240.57Zm-250.15-.2a1.4,1.4,0,0,1,0,1.2c.88.07,1-.64,1.2-1.2C284,240.86,284.73,239.76,283.71,240.37Zm57.23,1.4c.42-.12.65-.42,1-.6,0,.62-1,.34-.8,1.2.32,0,.76-.1.8.2.61-.12.39-1.07,1-1.2C342.83,240.49,340.77,240.64,340.94,241.77Zm-68.84,4.4c.34-2.14-2-3.31-2.8-5-.27,0-.37.83-.4,0-.69.75,1.14,2.12,1.8,2.81A2.08,2.08,0,0,0,272.1,246.18Zm255.15-4.4a61.5,61.5,0,0,0,9.21,11.4v-1.8a6.78,6.78,0,0,1-1.2-.4c-2.51-2.55-4-6.1-7-8.2Q528.46,241.56,527.25,241.77Zm-243.34.8c-.59-1.11-1.55.72-1.4,1s.6.07.6.4C283.77,243.49,282.92,242.73,283.91,242.57Zm252.14.8c0-.49-.31-.62-.4-1C535,242.46,535.19,243.68,536.05,243.37ZM383,243.18c-1.65,1.43-4-1.41-5,1,.37,1,2,0,2.8.8a1.67,1.67,0,0,1,2.2-.6C382.87,243.74,383.4,243.59,383,243.18Zm-126.27.8c-7.3,5.58-14.29,12.52-20.81,18.21.08.92,1.13.87,1.6,1.4,4.73-3.67,9.9-8.35,15-12.81,1.85-1.61,5.64-3.49,4.6-6.8Zm280.56,1c.2.26.2.74.4,1C538.33,245.9,537.88,244.91,537.26,245ZM265.9,245c1.45,2.24,2.17,4,4,5.81,0,.19-.25.15-.4.2,3.1,4.37,4.37,10.21,6.6,15-1,1.81.13,2.92,0,4.6.6.06.72.62,1.6.4,0-1.07-.77-2.8-.4-4.2-.36,0-.42-.24-.8-.2,1.22-1.57-1.17-3.44-.6-5-1.38-2.78-2.94-6-3.4-8.6a85.62,85.62,0,0,1-5.2-7.81C267,244.9,266.43,245,265.9,245Zm117.47,2.4c-.05-1.23-1.69-1.77-2.2-1a2.94,2.94,0,0,0-3,.2C379.29,248.22,381.74,247,383.37,247.38Zm-.2,1.4c-.17,0-.19.08-.2.2-1.52-.35-3.6.35-4.8,0,.88,2.09,3.72,1.19,5.6.8C383.86,249.15,383.23,249.25,383.17,248.78Zm159.69,2.6c-.13-.2-.46-.2-.4-.6h-.6C541.84,251.38,542.45,251.8,542.86,251.38Zm-5.4,0c1.24,1.49,2.23,3.24,3.8,4.4a14.19,14.19,0,0,0-3.6-4.8C537.46,251,537.5,251.22,537.46,251.38ZM382.37,253c.11-.42.5-.57.4-1.2-1.21-.45-3.16.25-4.4,0C378.29,253.1,381,252.79,382.37,253Zm-62.44-1.2c-.4-.08-1.48-.49-1.8,0,0,.8,1.15-.24,1,1C319.51,252.55,320.1,252.55,319.93,251.78Zm-56.23.6a.93.93,0,0,0,.2-.6c-.39,0-1.18-.48-1.2.4C263.26,252,263.22,252.46,263.7,252.38Zm-42.83,1.2c0,.16.2.2.2.4.17,0,.19.08.2.2.7-.1.29-1.31.4-2h-.6C220.27,252.66,221.7,253.75,220.88,253.58Zm55.83.6c0-.88-.5-1.24-.8-1.8a1,1,0,0,1-.6.2C275.36,253.53,276,253.84,276.71,254.18Zm-14-1.8c-.29.24-.45.76-.2,1h.6C263.27,252.74,262.93,252.62,262.7,252.38Zm31,1.4c.37.8,1.78.57,2.6.4A1.41,1.41,0,0,0,293.72,253.78Zm-29.22-.6c-6.5,5.51-13.67,10.35-20.61,15.41.06,1.21.83,1.71,1.2,2.6a6.48,6.48,0,0,0,4.2-3.4c2.64-1.23,4.63-3.1,7.21-5.2s4.12-3,6.8-5c1.68-1.22,3.47-2.82,1.8-4.4Zm23.61,1c.06.65,1.51.5,1.4-.2C289,253.43,288.68,254.16,288.12,254.18Zm94.85,1c-.33-1.56-4.11-1-5-.2C378.79,256.54,381.26,255.38,383,255.18Zm-92.45.6c.29.59.78-.27,1.4,0,0-.24,0-.36.2-.4C291.62,254.32,291.06,255.68,290.51,255.78Zm8.61,4.2c.05-2.39-3-5.5-5.8-4.4,0,.83,1.39.21,2,.4A45.82,45.82,0,0,1,299.12,260Zm247.34-1.4c-.8-1-1.27-2.34-2.6-2.8C543.82,256.86,545.56,257.79,546.46,258.58Zm41.82,10c7-4.06,15.73-6.42,22.62-10.6-.08-1.06-.91-1.37-1.6-1.8-12.08,5-23.6,10.55-35.82,15.41.25.92,0,1.59.2,2.2C579,273.28,583.11,269.88,588.28,268.59Zm-309.57-9.2a14,14,0,0,0-1-2.8A1.85,1.85,0,0,0,278.71,259.38Zm99.66-2.4c-.12.65.14.93.2,1.4,1.37-.88,1.74.65,3-.2C381.21,256.79,379.27,257.31,378.37,257Zm164.89,1c.08-.48-.37-.44-.2-1h-.8C542.51,257.39,542.58,258,543.26,258Zm.8.2c-1.06.73.79,1.47,1.2,2C545.69,259.47,544.48,258.7,544.06,258.18ZM195.06,274c-2.84-2.11-5.93-4.14-8.8-6.4-4.08-3.21-7.87-6.67-12.21-9.41h-1c0,.5-.31.63-.6.8,2.91,3.4,7,5.91,11,9,1.68,1.28,3.77,2.62,5.81,4.2,2.59,2,4.33,5,8.2,4.6C197.48,275.4,195.93,274.64,195.06,274Zm346-15.61c1,1.27,1.82,2.72,3.4,3.4A10.06,10.06,0,0,0,541.06,258.38Zm5.6.4a1.51,1.51,0,0,0,1.2,1.2C547.71,259.34,547.53,258.71,546.66,258.78Zm-293.56.4c0,.88-.56,1.18-.6,2C253.68,261.22,254.38,259.47,253.1,259.18ZM378.77,261c1.19,0,2.26.54,2.8-.4-.47-1.23-1.93-1.06-3-.6C378.4,260.55,378.85,260.5,378.77,261Zm-17.21-.6c-1,1.75-2.86,1.37-4.2,2.6,2.74,2.4,4.42-1.92,6.6-2.6C363.43,259.44,362.74,260.52,361.56,260.38Zm-58.43-.4c-.3.1-.51.29-.8.4.24.47,0,2.17,1.2,2.2.51-.54-.12-1.05,0-1.8C302.36,261.11,303.64,260.67,303.13,260Zm-23.82,1c.05-.65-.24-1-.8-1C278.88,260.22,278.4,261.29,279.31,261Zm274,4.8c-.51-1.36-1.76-2-2-3.6-2.11.37-1.62-1.85-3.2-2C549.74,262.11,550.75,264.7,553.26,265.79Zm-252.94-4.4c.26-.24.32-.08.6,0,0,.53.11,1.18-.4,1.2a8.63,8.63,0,0,0,.8,1c-.2.21-.4.4-.6.6.38.28.36,1,.6,1.4.88-1.31-.05-2.72.4-4.4-.86.19-.55-.78-1-1C300,260,300.44,261,300.32,261.39Zm15-.4c.23.81,1.1-.08,2,.2C317,260.3,316.15,261.19,315.33,261Zm80.45,5.6c1.1-1.48,0-3.37-.2-5.6h-1c.71,2.57.59,4.74,1.4,7.2C396.61,267.88,396.37,266.76,395.78,266.59Zm150.48-5.4a3.21,3.21,0,0,0,1.8,1.8C547.54,262.31,547.2,261.45,546.26,261.18Zm-266.75,2c.36-.37.47-2.19-.6-1.8C278.89,262.2,279.71,262.19,279.51,263.18Zm273.75,0c.4-.42-.17-1-.8-1C552.42,262.84,552.7,263.15,553.26,263.18Zm-174.3-.8c-.33.2-.22.85-.4,1.2,1.21.48,4.05.6,5-.4-1.09.23-1.11-.62-1.8-.8A3.61,3.61,0,0,1,379,262.38Zm164.69,13.81c-11.22-5-23.26-9.16-35-13.61-.95-.14-.61,1-1,1.4,11.3,5,24.57,9.19,35.82,13.61C543.3,276.9,543.76,276.83,543.66,276.19Zm-241.34-6a14,14,0,0,0,1.4-7.4c-.36,0-.42.24-.8.2.41,2.41-.45,4.28-1.2,6.6C301.74,270,302.39,269.73,302.32,270.19ZM546.26,264c1.58,2,2.84,4.24,5,5.6a22.78,22.78,0,0,0-5.8-6.6C544.56,263.07,545.92,263.87,546.26,264Zm6.6,4.4a14,14,0,0,0-3.8-4.4A14.39,14.39,0,0,0,552.87,268.39Zm-248.54-1.6c.9,2.23-1,2.26-.8,4.6,2.23-1.79,1.74-4.71,1.6-7C304,264.72,305.74,266.88,304.32,266.79Zm-23.41,1.8c.07-1.61-.54-2.53-.8-3.8C280.14,266.32,279.81,267.73,280.91,268.59Zm103.26-3c-1.45-.43-3.91-.85-5.4-.2a4.62,4.62,0,0,0,.4,1.2C380.89,266.77,383.36,266.88,384.17,265.59Zm-44.62,3.6c.09-1.19.75-2.83.6-4.2a13.61,13.61,0,0,1-3,2c-.13,2.74,1,7.29,1.2,11,.28.45,1.07.39,1.2,1C341.16,277.35,339.27,273,339.54,269.19Zm-78.84-3c-.25,1-.8,1.74-1,2.8,1.41,0,.68-2.13,1.6-2.6C261.27,266.15,260.94,266.22,260.7,266.19Zm60.83,9.6c2.13-1.82,4.06-4.28,6.4-5.61.15,2.4-3,6.46-1,8.81,2.25-2.74,2.87-8,3.6-11.61-2.84-1.49-6.55,3.41-8.6,5.21-2.48,2.16-5.21,3.79-6,6.2C317.8,279.46,320.07,277,321.53,275.79Zm172.9-6.2c.16-.69-.22-.84-.4-1.2-.79-.05-.06,1.41-.6,1.6C493.92,270.78,493.61,269.13,494.43,269.59Zm-97.86-.8c-.52-.05-.86.08-.8.6C396.3,269.45,396.78,269.46,396.58,268.79Zm-115.87,2c.36,0,.42.24.8.2.14-1-.36-1.38-.6-2C280.19,269.12,281,269.95,280.71,270.79Zm212.92,0a77.53,77.53,0,0,0-.4,12,1,1,0,0,1,.6-.2c.85-3,.11-8.73.4-11.81Zm-212.32.6c-.32-.5-.14,1.18-.4,1.4C281.93,272.77,281.18,272.13,281.31,271.39Zm-4.8.4c.16.5.26,1.07,1,1,0-.53.07-1.14-.2-1.4C276.91,271.39,277.05,271.94,276.51,271.79Zm-37.82,1.4c.11.56.41,2.66,1.4,3C239.64,275.17,239.58,273.77,238.68,273.19ZM373,274.79a1,1,0,0,0-1.8-1A1.85,1.85,0,0,0,373,274.79Zm-160.69-.6c-.6.13-.78.69-.8,1.4C212,275.45,212.75,274.77,212.27,274.19Zm25.82,1.8c-.18-.44-.37-1.41-1-.8C237.41,275.47,237.34,276.15,238.09,276Zm-82.85,3.8c.92-1,.5-2.73.8-4.8h-.6C154.73,276.36,155,278.1,155.24,279.8Zm396.23-4.61v1.6c.53.06.16-.77.8-.6C552,275.89,552.2,275.05,551.46,275.19Zm-320,.6c0,.62,1,.34,1.6.4,0-.24,0-.36.2-.4C232.9,274.83,232.17,275.86,231.48,275.79Zm-19.81.6c0-.36.25-.42.2-.8-.4.34-.25,0-.8,0C211,276.12,211.14,276.45,211.67,276.39Zm83.65-.2c-.35.18-1,.07-1.2.4C294,277.36,295.62,276.91,295.32,276.19Zm203.32,4c.93-.89.29-2.36,0-3.6C498.7,277.68,498,279.34,498.64,280.19Zm-288-2.4c.37-.42.69-.58.4-1.2-.63,0-.69.51-.8,1C210.5,277.56,210.63,277.64,210.67,277.79Zm-9.8-.4c.82.78,1.47,1.73,3,1.8,0-.66.34-1,.2-1.8A13.72,13.72,0,0,1,200.87,277.39Zm244.14.8c.34.36.78-.06.8-.6C445.28,277.53,444.94,277.67,445,278.19Zm-268,.2c-2.48,1.81-10.51-.93-9.61,3.6a240.94,240.94,0,0,0,29-1.6,2.65,2.65,0,0,0-1.4-2.4c-6.16.21-12,.64-16.81.8C177.91,279.14,177.35,278.68,177,278.39Zm33.62-.2c-.42-.09-.53.14-.8.2a1,1,0,0,1,.2.6c.42.08.53-.14.8-.2A1,1,0,0,1,210.67,278.19Zm7,1.2c.39.59,1.49-.46,1-.8C218,278.54,218.25,279.37,217.67,279.4Zm299.57,22c8.83-6.87,18.51-13.53,27.61-20.41a7,7,0,0,0-.2-2c-.17,0-.19.08-.2.2-9.72,6.28-19.65,13.7-29.21,20.62-1.08.78-3.8,1.78-2.4,3.8C514.65,304.15,516.07,302.32,517.25,301.41ZM155.44,280c-.51,0-.4.67-.4,1.2C155.55,281.18,155.43,280.53,155.44,280Zm417.44,3.4c9.47,4.23,20,8.7,30.22,13.21,1.53.67,3.32,1.76,4.2,1.8.5,0,2.91-.58,3-1.4.2-1.69-7.08-4-8.41-4.6-6.09-2.58-12.47-5.12-18.41-7.6-3.24-1.35-6.58-3.3-9.61-3.8C572.94,281.19,572.9,282.29,572.88,283.4ZM238.68,283h-.6c-.08.42.14.53.2.8C238.64,283.75,238.74,283.45,238.68,283Zm72.64,2.4c-.26-.74-1.94-.91-2.6-.6C309.09,285.85,310.18,285.82,311.33,285.4Zm65.44,0c-.52-1.31-2,.35-2.8.6C374.76,286,376.27,286,376.76,285.4Zm-27.42.4c-.27-.67-1.91-.79-2.6-.4.08.59.69.65,1,1C348.5,286.41,348.35,285.54,349.35,285.8Zm37.62,0c-.24-1-1.46.08-.8.6C386.58,286.34,386.7,286,387,285.8Zm-110.86,5.4c.16.17.55.12.6.4.34-.13.13-.46-.2-.4,1.35-1.49.9-3.26,1.2-5.4h-.8C276.93,288.32,276.14,289,276.11,291.2Zm-44.43-4.8c0,.56.5.57,1,.6C232.76,286.39,232,286.58,231.68,286.4Zm-26.81,2.8a1.34,1.34,0,0,0-.8-1.6c-8.87,4.13-16.5,9.52-25.82,13.21a21.44,21.44,0,0,1-5.6,3.6c-.09.89.54,1.06.8,1.6C184.45,300.93,194.37,294.78,204.87,289.2ZM593.29,315c-7.47-6.79-15.31-14.56-23.21-21a2.69,2.69,0,0,0-2,.6c.39-2.86-.9-5.86-2.8-3.6,0,10.07-.2,18.38-.2,29.82,0,3.51-.83,7.42,1,9.8,2.55-1.26,1.2-5.21,1.4-8,.63-8.66.2-18.75.6-27.82,3.89,4.57,8.72,8.45,13,12.81,3.11,3.16,6.55,6.19,10,9.2,1,.91,2.22,2.62,4,2C596.24,316.9,594.38,316,593.29,315ZM371.16,294.6c-5.54,3.77-10.72,7.34-17.61,10.41a40.18,40.18,0,0,1-16.41,3.2c-14.17,0-25.4-5.93-33.62-12a26.18,26.18,0,0,1-3-3c-.89-.91-2.61-3.15-3.8-3h-.4c-.65,1.5,1,2.47,1.8,3.4,2.51,2.9,4.6,4.36,8.4,6.8,5.44,3.48,13,7.17,20.21,8.6,9.37,1.87,18.7,1.64,26.62-1.6,4.06-1.67,8-4.3,11.61-6.4a46,46,0,0,0,5.4-3.6c1.6-1.25,3.62-2.19,4.61-4C373.54,292.68,372.18,293.91,371.16,294.6Zm-64.44-3.8c-2.29-.34-3.28,2.13-5.6,2.4C302.55,295.49,307.29,293.4,306.72,290.8Zm15.61,13a3.18,3.18,0,0,0,1.8.4,86.57,86.57,0,0,0,2.8-12.41c-.94-.42-1.41-.88-2.8-.4C323.28,295.16,322.06,299.58,322.33,303.81Zm20.41-12.41c-1.26.37-1.79-.51-2.6.6.46,5.38-.22,9.5,1.6,14,.47,0,.59-.35,1.2-.2C344.15,302.09,342.14,295.82,342.75,291.4ZM274.91,298c1.79-1.76,1.49-4.89,1.8-6.4h-.8a48.51,48.51,0,0,1-2,7.8,3.84,3.84,0,0,1-1.4,4.2c.09,2.1-2.06,5.08-1.6,7.61.65.25.15-.65.8-.4-.18-.73.36-1.07,0-1.4,1.91-1.76,1.69-6,3.21-7.6,0-2,.43-2.18.8-3.6C275.39,298.19,274.94,298.3,274.91,298Zm281.56-5.4c-2.47-.85-3.73,1.19-5.6,3-6.18,6-11.81,11.48-17.81,17.41-2.16,2.13-6.44,4.14-5.41,7.8,3.29-1.17,5.44-4.26,7.8-6.61,4.83-4.76,9.74-9.34,14.81-14C552.64,298,555.85,296,556.47,292.6Zm-316,5.4c7.21,4,14.19,8.46,21.41,12.2a3.49,3.49,0,0,1,.8-.6c0-2.42-2.52-2.28-3.81-3.4-2.42-2.13-6.1-3.69-9.6-5.61s-6.34-4.41-9-6c-1.33-.8-4.7-2.78-5.8-1C233.82,294.69,238.94,297.14,240.49,298Zm-49.63,16.21c6.25-6.25,13.51-13.79,19-19-.58-4.32-6.32,2.84-8,4.4-1.49,1.39-3,2.09-3.8,3.8a151.92,151.92,0,0,0-15.41,15.21C184.35,322.37,189.42,315.65,190.86,314.21Zm16.61,15.61c-.14,1.49-.61,3.69,1.4,3.8,1.33-.78.68-1.87.8-3.4.55-6.94,2.41-16.94,3.6-25.41.39-2.8,1.39-7.06.8-8-2.5-4-3.1,6.29-3.4,8.61C209.51,314.43,208.29,321.19,207.47,329.83Zm84.85-33.22c.37.38,0,.5,0,1a.72.72,0,0,0,.6-1Zm1.6,2a.92.92,0,0,1-.6.2,1.37,1.37,0,0,0,1.4,1.4v-1C294.34,299.12,293.86,299.13,293.92,298.61Zm121.67.6c.49,1.11.08,3.12,1.8,3a5.49,5.49,0,0,1-1-3.2c-.17,0-.19.08-.2.2C416.1,299.5,415.93,299.13,415.59,299.21Zm-4.2.2c.5,1.28.12,2.81,1.4,3.6.47-1.19-.82-2.22-.2-3.4C412.32,299.32,411.7,299.08,411.39,299.41Zm10.6,0c.19,1.14.48,2.18,1.6,2.4C423.33,300.73,423.51,299.21,422,299.41Zm-2.2.2c-.32,1.72,1,1.85,1,3.2H422C421.49,301.5,421.8,299.4,419.79,299.61Zm126.47,27c-.16,1.39-.35,2.92,1,3,1.95.12,1.87-4.81,2.2-6.8.39-2.31,1-5.4,1.4-7.61,1-5.29,2.45-10.27,2-15-.7.17-.77-.29-1.4-.2-1.63,4.16-2.26,9.65-3.2,15C547.62,318.7,546.72,322.61,546.26,326.62ZM410.38,303.21c1.11-.53.35-2.21,0-3C408.56,300.45,409.93,302.4,410.38,303.21Zm-131.08-2.8c-2.23,1.89-2.39,6.28-3.6,8.6C277.73,307,278.08,303.25,279.31,300.41ZM397.78,303a2.71,2.71,0,0,0-.2-2.2H397A1.65,1.65,0,0,0,397.78,303Zm9.21-1.8a2.78,2.78,0,0,0,2,1.8A1.41,1.41,0,0,0,407,301.21ZM299.72,301c-.22.05-.14.4-.4.4.63.37.89,1.11,1.6,1.4C301.32,302.2,300.18,301.42,299.72,301Zm-72.84.8c.05,2.69,2,3.92,3.4,5.6.63.76,1,1.83,1.6,2.6,1,1.28,2.56,1.86,3,3.8,2.31,1.82,3.81,4.46,6,6.4.58,1.38,1.84,2.34,2.8,3.4s1.66,2.71,3.4,2.8c.66-2.83-2.26-4.72-3.8-6.6s-3.36-4.05-5-6c-3.59-4.26-7.13-8.61-10.61-12.6C227.41,301.41,227.29,301.75,226.88,301.81ZM396,303c.36-.42-.27-1.06-1-1C395.18,302.47,395.38,302.94,396,303Zm217.32,3.6a5.72,5.72,0,0,0,1.4-2.2C614,304.88,613.11,305.22,613.3,306.61Zm-308-1.2a14,14,0,0,0,5.41,3c-.3-.83-1.64-.63-1.6-1.8C306.95,307.31,306.65,304.26,305.32,305.41ZM507,308c.17-.64-.32-.62-.4-1-.29.55-.66.39-.8-.2C505,307.23,506.18,308.76,507,308Zm-147.88-1.2c-.6,0-1.22,0-1.2.6C358.26,307.69,359.34,307.62,359.16,306.81Zm-58,1.6c.13.68.68.92,1.4,1a1.7,1.7,0,0,0-.2-1.2C301.72,308.51,301.54,308.15,301.12,308.41Zm-30.21,3.2c-2.93.56-3.88,5.63-5.61,7.4.09.17.18.36.4.4C268.46,317.84,269.41,314.46,270.91,311.61Zm31.82,1c.76,1.64,3.72,1.08,4.2,3,3.05.23,4.12,2,6.8,2.2-.54-.91-.82-.85-1.2-1.8-3.26.25-4.55-2.52-7-2.4C304.95,312.65,304.2,312.25,302.72,312.61Zm-30,3c.82.09.72-.74,1-1.2A1.49,1.49,0,0,0,272.71,315.61Zm-1.4,1.6c.06.61-.64.78-.2,1.2,1.28-.05,1.25-1.42,1.8-2.2-.91-.25-.63.7-1.2.8,0,.2.25.16.4.2C272,317.82,271.68,317,271.31,317.22Zm49.83,2.6c5.19,1.73,11.84,2.07,17.81,2-.62-.79-2.38-.31-2.4-1.2-2.3.64-4.09-.58-6.21.2-.73-.41-2.09-1.12-2.8-.4-.92-.95-2.14-.79-3.4-.4-.74,0-.72-.75-1.2-1-.42.11-.57.49-1.2.4-.66-.91-1.38-.18-3-.6-2.27-.59-3-3-4.8-1.4a2.39,2.39,0,0,0,3,1.2A4.56,4.56,0,0,0,321.13,319.82Zm34.22-1.8c-1.66.27-3.16.71-4,1.8-1-.64-2.62-.13-3.6.4a19.65,19.65,0,0,0-8,1C344.27,321.64,351.95,320.65,355.35,318ZM508,319.62c1.09,1.31,1.85,3,3.4,3.8a3.58,3.58,0,0,0-2.2-2.6c.12-.65-.14-.93-.2-1.4C508.47,319.25,508.52,319.7,508,319.62ZM265.5,326.22a5.76,5.76,0,0,0,2.4-2.6C266.77,324.16,265.73,324.78,265.5,326.22Zm333.39,6c.72,0,.91-1,.6-1.4C599,331,598.37,331.64,598.89,332.23Zm-73.44,1.4c-1.72,0-2.9-1.63-4.2-1.4,2.42,2.49,5.26,2.84,7.8,4.6C529.35,335.06,525.81,335.4,525.45,333.63Zm65.44.6c-.69-.16-.85.22-1.21.4C589.87,335.05,591.14,334.9,590.89,334.23Zm-61,2.6c.51,1.49,2.79,1.21,4.2,1.8C533.26,337.09,531.07,337.18,529.85,336.83Zm58.84,1.2c.78.37,2.44-.09,2.6-1a1.3,1.3,0,0,0-1-.2C590.62,337.26,588.88,336.74,588.69,338Zm-12.41-1.2c-1.05.58-2.39-.37-2.6,1C574.44,337.52,575.91,338,576.28,336.83Zm-6,1.4c1-.1,2.25.12,2.6-.6C572.11,337.36,570.28,337.14,570.27,338.23Zm-12.21,0c-.86-.76-3.24-.71-4.4-.4C554.87,338.53,556.84,338.94,558.07,338.23Zm12-.2c-1.47-.53-3.82,0-5.41.2C566.15,338.35,569.46,339.54,570.08,338Zm-24.82,1.2c-.68-1-2.87-1.49-4-1.4,1.72,2.09,5.06,1.33,7.21,3,2.33-.61,3.45.94,6,.2C551.25,339.68,548.44,339.91,545.26,339.23Zm19-.8c-.93-.8-3.55-.21-5.8-.6C559.11,339.34,562.55,338.77,564.27,338.43Zm13.81,1c.5-.17,1.39,0,1.4-.6C579.24,338.65,578,338.66,578.08,339.43Zm-.6-.2c-.63-.09-.79.29-1.2.4C576.39,340,577.89,340.06,577.48,339.23Zm-7.6,1.4c1.12,1.52,2.66-.31,4-.6,1-.22,1.95.77,2.2-.4A9.91,9.91,0,0,0,569.88,340.63Zm9.6,1c1.29.48,3.93-.28,3.6-1.4-.17,0-.19.08-.2.2C582.44,340.24,579.88,340.54,579.48,341.63Zm-23.81-.8c1.77,1.46,4.13.62,6.2.6,2.45,0,5.16.64,7.41-.4C564.17,339.9,560.83,341.27,555.67,340.83Zm16.61,1.8c-2.26,1.25-5.25.4-8.21,1.6,2.62.68,7.72-1.11,10.81-.8,1-1,3.52-.47,4.4-1.6C577.09,341.05,574.7,343.14,572.28,342.63Zm4.6,2.2c.54,0,1.15.07,1.4-.2C578.21,344,576.86,344.22,576.88,344.83Zm-.2-.2-3,.6C573.91,346.66,576.52,345.7,576.68,344.63Zm-347,4c.29.47.42.37.2,1,1.64-.42,3.61-.52,4.2-2h-.8c0,.19.24.15.4.2C232.66,347.86,230.68,348.65,229.68,348.63Zm-20.41,1c1.12,1,3.52.62,5.41.8C213.79,348.67,210.84,349.49,209.27,349.63Zm8,.4c0,1.08,2.07.92,2.8.6A2.5,2.5,0,0,0,217.27,350ZM493.43,248.78H493A.2.2,0,0,0,493.43,248.78Zm-103.86,50c0,1.48-1.93,2.51-1.6,4.21.22,1.1,3.4,4.76,5,5.2,2.34.64,8.52,0,13.81-.2,6.13-.27,12.9-.29,18.61-.4,2.62-.05,6.71,0,8.21-1,.86-.56,1-1.75,1.8-2.6,1.18-1.26,3.13-2.26,4.2-3.81s1.17-3.4,1.4-5.2c1.39-1.24,2.79-.83,4-2a12.78,12.78,0,0,0,1.2-2c.2-.8-.42-1.68,0-2.6.59-1.27,2.24-1.19,3.2-2a37.67,37.67,0,0,0,1.6-18.61c-2.23-.52-3.45,1.9-5.2,2.4a5.74,5.74,0,0,1-5.8-1.6c-.67-1.54-1.29-4.22-.2-5.8-1.83-1.06-3.34-2.82-5.4-3.4-3-.86-5.49,1.37-8.6,2-1.45,2.55-3.68,4.33-5.6,6.4-2.26-.5-5.88-1.34-7.4,1-3.44-.89-8.18,1.18-12.81,1.8-2.54.34-4.67.18-6.6,1-2.91-.78-6.5-2.25-10.61-2.8-1.06-.14-2.54.32-3.2-.8-.47.53-1.69.31-2.4.6.43-10.67-1.48-27.13-.2-37.22-.14-.81.84-.49.8-1.2-.44-2.44,1.51-4.23,1.8-6.61,1.66-.72,3.79-.41,5.4-.4,1.89,0,3.89-.69,5,.6-1,.11-3.48,1-2.81,2,.3-1.17.45.31.21.2,1.09.49,1.1-1.61,3-1.4.25-1.93,2.92-2.21,4-.8-1.48,1.29-4.12,2.43-5,4.6-1.59,3.91-.79,10.92-.8,16.21a147.18,147.18,0,0,0,.6,16.21c0,.61-.72.48-.6,1.2,1.06,3.29-.89,8.55,3.8,8.41,1.1-.52-.18-3.32,1-2.8.05-.72-.79-.54-.8-1.2s1.32.25,1.6-.6c0-1.43.36-3.55-1-4.2.09-.48,1.3-1.63.2-2-.46.5.59.63-.2,1-1-.18.54-.95.2-1.8,1.44.06,1.21,1.31,2.6,1,.24,1.83,2.57,1.57,2.4,3.8,1.11-.08.63.91,1.4.4-.27,1.19-.72,3.75.4,2.4-.11,1.7-2.59,1.86-2.2,3.4a59.66,59.66,0,0,1,8-1.6c.76-.5-.25-2.43,1-2.8,1.66,0,.25,1.78,1.2,2.4.62-.31,1.84,0,2.2-.6a2.12,2.12,0,0,0-1.2-2.6c.27-2.53-1.09-4.87-1.6-7.2-4.2-3.94-6.8-7.81-12.41-9.2,1.46-2.89-.46-7,.2-9.81,1.51.07-.4,9.31,2,9.21,1.6-.07,1.07-3.62,1-4.6-.15-2.12-.64-3.4-.4-5.41,10-.94,17.4-3,24.41-7.2,5.29-3.17,9.47-6.2,13.41-11,12.25-15,19.17-36.79,27-56a96.2,96.2,0,0,1,5.6-11c5-8.77,12.3-14.8,22-18.81,2.24,2.23,2.15,6,2.8,9.2,1.9,9.44,3.72,20.12,5.8,29.62,0,.75-1.41,0-1.4.8-1.66,3.87-3.46,7.61-4.8,11.8,4.37,12.31,8.92,23.53,13.81,35-13.45,13.63-23.88,29.15-25,54-1.19,26.15,9.2,44.11,22.41,58.43,11,11.93,29.91,22.12,51.23,23.21,2.1.11,5,.11,7.4,0,22.27-1,39.78-10,52.83-23s21.58-30.42,22.61-53.23c.06-1.26.06-2.58,0-3.6-1.3-23-9.5-40.32-22.61-53.43-12.8-12.8-30-22.2-53-23.22-12.49-.55-21.78,2.1-31.22,5.4-.79-8.69-3-17.68-3.6-26.62-.25-4,0-8-1.4-11.61-3.37-1-6.39-2.41-9.8-3.4-3.26-18.25-6.92-39.77-10.41-59.23-.48-2.72-1.59-6.32-1.4-8.41s2.1-2.74,2.61-4.6c-.57-.5-.71-1.43-1.8-1.4.74-1.48,2.56-2.44,1.8-4.8a3.11,3.11,0,0,0-2.4-.6c1.31-3.05-1-7.75-4.6-5.4-1.28-1.39-1.15-3.64-1.4-5.4-1.64-11.57-3.41-23.82-5-35.82-.26-1.93-1-5-.6-6.21.28-.89,2-1.56,2.61-2.4,1.74-2.48,2.48-5.47,3.2-8.41-1.5-8.63-6.91-12-15.81-14.21a111,111,0,0,0-35.62-2.6C443.88-.64,434.78.52,426.39,0a18.74,18.74,0,0,0-6,.6c-3.66.9-6.3.44-7.2,4-.29,1.16-.17,2.3-.4,3.8-.43,2.79-.76,4.27,1.4,6,3.57,2.87,12.53,3.61,18.81,4.6,5.33.84,9.68,1.64,12.61-2,6.47,0,21.32-1,28.62.8,2,.47,6.4,2.32,6.6,4.2.32,3.06-5.83,5.62-8,6.8a52,52,0,0,1-20.61,5.8c-14,1.08-27.45.13-41,.4-1.44-1.71-2.23-4.73-5.6-5.2-2-.28-5.53.2-9,.2-3,0-6.31-.16-9,0-2.49.15-6.31.42-7.8,1.2s-1.91,2.55-3.2,2.6c-1,2.32-.92,5.62-1.2,8.6.54,1.13,1.69,1.65,2.6,2.4-.46,7.79,6.81,6.59,14.81,7,4.32.22,8.67.66,11.41.4a40,40,0,0,0,5-5c11,.85,23.88,1,36.42,1,4.68,0,9.4.34,13.61,0,7.9-.64,14.45-4,19.81-6.8,2.69,10,3.49,21.69,5.2,31.42.46,2.64,1.41,5.27,1,7.8-.29,1.75-1.48,2.75-1,5.4.12.7.64,1.25.8,2,.69,3.41.48,7.26,1,11,.77,5.53,2.15,11.15,2.81,16.61-8.86,3.53-16.8,7.37-22.41,14.41-7.65,9.59-13.11,22.45-18.81,35.22s-11.53,25.49-17.81,36.22c-2.6,4.44-6.53,9.91-10.21,13.2-2.91,2.61-9.77,6-14.21,7a23.1,23.1,0,0,1-6,.2c-5.14-7.73-9.74-17.06-17.21-23.61a63.07,63.07,0,0,0-15.81-9.6c-7.38-3.31-13.61-6-23.41-6.4a100.91,100.91,0,0,0-24.81,2c-4.25.85-11.92,1.43-10.41,6.6,11.1-5.23,30.24-7.24,45-4,5.47,1.2,10.58,3.77,15.41,6.61,11.33,6.66,20.14,14.89,26.21,26.81-3.5-.64-12.22-1.15-16.21,0-2.75.79-3.91,3.34-5.6,4.6-1.47-.07-3.32.25-4.2-.4-8.71.9-17.52.08-25.82-1-9.3-1.21-15.79-2.32-22.61-6.2-4.47-2.54-7.07-5.58-9.21-10.61-2.51-5.9-3.7-14.22-4.8-21.41-2.22-14.55-4.75-30.19-6-46.23-.31-3.92-.73-8-1-12s-1-8.38-.8-11.81c.05-.79.44-1.33.39-2-.09-1.5-1.24-4.08-1-6.4,1.61-.69,2.1-3.49,1-5.2.08-13,11.24-17.71,24.62-16.81,2.2.15,4.48.52,6.8.8,3.19.39,9,2.49,10.8-.6s-.05-7.75,1-11.81c2.77-.53,5.45-.1,8.21.2,5.93.65,11.75,2.87,16.21-1.4,2-3,1.88-7.61.2-10.81-3.83-3.67-13-4.44-19.81-5.8-10.55-2.12-21-4.89-31.62-7.21-8-1.75-12.22-5.72-21.61-5.2-7.54.42-15.84,3.77-19.61,7.2a28.62,28.62,0,0,0-3.4,4.4c-1,1.45-2.61,3.48-3,4.8-1.48,5.08,1.09,11.76,3.2,14.21,3.79,4.38,11.12,4.74,18,6-.12,2.15-2.49,2.83-3,5.21-.88,4.11-.21,8.93,0,13.41-2.79,3.66.11,7.83-1.6,12.61-9-1.07-14.77,3.53-11.21,12.41,3.38,2.56,8.64,3.23,12.61,5.21,1.89,23.32,2.68,47.75,7,68.64-9.4,7.08-16.13,16.83-20,29.42,2.41-.88,2.75-3.69,3.8-5.61,4.37-8,9.62-16,16.81-21.41,1.67,4.34,3.1,8.9,4.6,13.41-5.87,4-12.18,7.4-18.81,11.41-1,.6-5.63,3-5.8,4.2-.15,1,1.26,2.32,2,2.4,1.66.17,5.32-2.63,6.6-3.4,6.16-3.68,12.81-8,19.41-10.4,1.43,1.84,2.25,4.29,3.2,6.6-4.71,2.34-9.3,5.56-14,8.4-1.79,1.08-3.91,2.13-5.6,3.4s-4.07,2.54-3.81,4.8c2.31.58,4.29-1.89,6.21-3.2a104.38,104.38,0,0,1,18.21-9.61c.41-.18,1.85-.79,1.6-.8.61,0,3.87,2.23,5.2,3a65.4,65.4,0,0,0,27.42,8.6,244.05,244.05,0,0,0,32.22,1.4c.9,6.28,1,14.26,1.4,21.41.19,3.61-.14,7.35,1.8,8.81-1.19,3.51-.49,5.65-.4,10.41-1.17-.19-.9-2.11-2.6-1.2.3.57-.39,1.15.8,1-18,.37-37.69.2-56.43.2-6,0-12.8.3-17.61-.4-.23-.9,1.12-.21.8-1.2-1-.07-.83,1.05-1.6.2-.75.55.79,1.16.2,1.6-.5-1.16-3-.9-2-2.2-.77.72-1.25-.22-2-1,.37.89-.25,2.73,0,3.4-.16,1,1-.45.8.6s-.38,1.38-.8,3a2.5,2.5,0,0,0,2-1.4c1,.93,2.85-.39,4.2-.2-1.31,1.07,1.34,1.68,1.2,2.6-1.67.48-5.15.67-6-.8-.19,1.61-2.15,1.46-1.8,3.6,19.49.73,43.25.07,64.44,1,2,.09,5.21.2,8.2.2,2.37,0,5.35-.24,6.6.2.9.31,1,1.6,2,2.4,1.28,1,2.57,1.29,4,0,.7,3.62,8.44.05,9.21,3.4,1-.66,1.08-2.26,2.2-2.8,1.07,1.37-.94,2.86-1.4,4C388.75,297.75,389.6,297.95,389.57,298.8ZM295.52,280.4c2.07.12.56,2.16,0,0Zm-3-173.3h2.2a11.44,11.44,0,0,1,.4,3.6c.35,1,1.94,1.08,1.2,2.6-3.31-.38-6-.17-9.21-.6a21.51,21.51,0,0,1,.21-4.6c1.36.44.72,2.88,1.8,3.6C292.79,113.68,292.95,109.58,292.52,107.1Zm-5.8-3.6a97.72,97.72,0,0,0,1-11.2c1.07,3.33-1.57,11.14,4.41,10.44-.11,0-.19.06-.21.17,1.39-.6,2.36.06,4.2,0-.68,4.1-6.59.6-8.6,1.4A1.79,1.79,0,0,0,286.71,103.5Zm3-18.61c-1,2-1,4.24-2,5.4-.11-1.06.92-1.89.2-3C289,86.93,288.38,85,289.71,84.89ZM365,66.07c-4.79,1.25-9.88.18-15,0-10.43-.36-21,1.58-30.22,3-4.91.75-9.73,1.93-14.21,2.4-5.42.56-11.89.81-16.81-.4a36.26,36.26,0,0,1-4.61-2,34.31,34.31,0,0,1-4.4-2.2c-2.29-1.38-6.58-3.36-7.6-5.81-1.33-3.19,2-7.63,4.4-9.6,4.27-3.55,13.77-5.46,19.81-5,11.74.89,24.24,5.69,36.62,8.2,7.54,1.53,17.86,3.73,26.81,5.61C363,60.94,365.77,61.91,365,66.07Zm-38.22,6.81C315,75,303,77.6,291.71,77.48c-3.78,0-8.35-.38-11.8-1.6a26.8,26.8,0,0,1-4.4-2.6c-1.38-.85-3.91-1.54-2.6-3.8a9.35,9.35,0,0,1,2.8,1.8,14.91,14.91,0,0,0,2.8,1.8c10.34,4.46,25.09,1.47,34.82-1,4-1,8.36-1.52,12.61-2.2,8.83-1.41,18.2-3,27.41-2.2,2.74.22,6.75.59,8.6,2.2-2.11,2.46-5.68,1.19-8.2,1-3-.22-6.21-.44-9.21-.4C338.66,70.55,332.75,71.78,326.73,72.88Zm-29.41,19c.18,2.19-2.42,3.26-1,5.41a10.69,10.69,0,0,0-1,1.6c.44.33.91,1.35.6,1.8-1.32.44-1.31-1.24-2.2-.6,0,.26.35.18.4.4-.64,0-.84-.35-1.6-.2-.94-2.19,1.57-3.89-.4-6a14.63,14.63,0,0,1,3.4-7.41c0-.5-.37-.62,0-1a4.51,4.51,0,0,0,1.8-.4,3.53,3.53,0,0,1,1-2.4c2.05.2,3.51-2.14,6-1.6.21.75-.86.91,0,1.2,8.14-4.1,20.28-3.8,33.42-4,.27,1.73-.65,2.29-1,3.4-10,.32-21.43-.76-30,2.4,0-.6,1.07-1.18.6-1.6-4.38,1.17-9.48,3.47-9.81,7.4,2.36-2.32,4.41-4.93,8-6-.31,1.23-1.69,1.37-2.8,1.8A41,41,0,0,1,297.32,91.89ZM367,235.57c-19.87-.45-39.55-1.1-52.83-7.6a23.59,23.59,0,0,1-9.81-8.81c-2.21-3.63-3.84-8.54-5.6-13.21a84.74,84.74,0,0,1-4-14.81c-3.31-18.52-4.78-37.46-6.21-57.43-.26-3.7-.94-7.69,0-9.61-.89-2.4.92-6.27-1-7.6-1.25,1.35-.31,4.9-.6,7.21-1.91-.44-3,1-4.4.4a31.76,31.76,0,0,0,3.4-2.2c-.28-1.71.48-3.41.4-5.2-2.43-.38-8.21-2-9.41.4-.74,1.5.76,4.4-1.2,5.2-2.25-2.09-.57-7,1.6-7.81,6.44.16,13.23,0,18.61,1.2,1.67,16.65,2.15,33.8,4.6,49.83s3.85,31.87,9.21,45.23c1,0-.05,1,1,.8-.45,1.73,1.47,5,3.6,4.8-1.44,1.17,2.91,3.1,2.2,2.2.67-.2.65.28.6.8,12.79,5.56,28.31,7.3,45,8,1.63.06,3.29-.31,4.4.6a4.53,4.53,0,0,1,.4,2.4c-.23.76-1.83.17-2,1,.75.83,1.67,0,2,.6A8.85,8.85,0,0,1,367,235.57ZM406.58,35.46c-.16.87.58,1,.8.4.62,1.84-2.36,1.58-1.8,4-.94,1.39-.94,4.12-.8,6-.64.17-.62-.32-1-.4C404.26,42,402,36.94,406.58,35.46Zm-26.41-.4c-.63,2.34-.3,4-1,5.6C377.91,39.33,377.75,35.18,380.17,35.06Zm24.41-1c-.24.67-1.11,1.2-1.4,2.2-1,3.4.37,7.13.2,10.41-7.43-.18-17.46,1.59-22-2-.21-4.34.12-8.15,2.8-9.6C390.11,35,399.45,33.25,404.58,34.05Zm3.81,1c-.52.08-.56.64-1.4.4a12.34,12.34,0,0,0-.6-1.4c-1,.12-1.14.23-1.4-.6a3.21,3.21,0,0,0,2.4-.6C408,33.69,408.44,34,408.38,35.06Zm7-28.62c.08,1.28-.58,1.82-.4,3.2h-1.2a22.05,22.05,0,0,0,.4-2.6c.17.63.26-.35.2-.6ZM441,6.24c-.35,1.54-1.2,3.1-1,5.4.14,1.67.91,2.88-.2,4-7.75-.46-15.14-1.27-22.21-2.4-1.22-2.33-.77-7.18,1.4-8C426.52,5.38,434.09,5.48,441,6.24Zm2.8,1.2c-.45,1.55-.87,3.14-1.2,4.81C441.7,11,442,7.72,443.8,7.44ZM402.18,257.38c2.1-.93,3,1,3.8,2-.12.28-.77,0-.8.4.71,1.3-.84,2.93-2,3.6-.39-.54.21-2.07-1-1.8Zm-5-1.2c.63-1,.49-2.85,1.6-3.4.24.83,1.13,1,1.6,1.6-.43,1.23,0,3.29-.4,4.6C398.31,258.79,397.92,257.31,397.18,256.18ZM489.23,29.65a38.85,38.85,0,0,1-4.2,3c-1.4,1.06-2.79,2.14-4.2,3.2-5.43,4.07-10.33,6.2-18,7.81a77,77,0,0,1-9.61,1.4c-13.55,1-29.26.14-43-1-.61-3.09.54-6.37,2.6-7,1.69-.52,4.85.07,7.6.2,5.66.27,9.55.2,14.41,0,8-.34,17.35.34,24-.6a40.54,40.54,0,0,0,13.81-4.8c5.11-2.72,11.41-5.71,10-13.61-1.29-.74-.94-.44-2.2-.4a17.3,17.3,0,0,0-4-2.2c-2-.73-4.7-.65-5.8-2.4.72-.1,2.57,1.17,4,.4.73,1.15,2.39,1.17,3.6,1.8.82.43,1.55,1.91,2.6,1.2-.72-1.45-1.74-1.15-2-2.4-1.24.31-1.13-.73-2-.8-1.57-.18-2.85-1-4.6-1.6-6.5-2.11-16.16.1-23.61-1-.77-1-.42-3.57,0-4.6,4.52-.7,9.67-.5,14.81-.2,15,.87,30.18,2.13,30.82,15.61C492.25,24.15,491.39,27.4,489.23,29.65Zm9,50.43c-1.2,2.64-6.8,2.42-9.6,2.2-1.88-10.62-3.48-21.44-5.41-31.82-.63-3.38-1.93-6.93-1.2-10.4,2,.15,1.77,2.84,2,4.2.27,1.65.71,3.56,1,5.2,1.9,10.56,3.25,22,5.8,31.62,4.69.79,3.46-3.43,2.8-7.2-1-5.76-2.15-11.6-3-16.81-1.36-8.3-2.4-15.85-4.2-22.21,1.3-1,2.91-3.53,4.8-2.6C494,47.73,496,64,498.23,80.08Zm-9.6,7.21c-.16-.67-.6-1.8-.2-2.4,4.32,1.36,8.3-.27,11.2-2C501.49,88.12,492.46,87.74,488.63,87.29ZM503,88.69c-2,3.22-7.27,3.27-12.21,3.6a3.45,3.45,0,0,1-1.8-2.61c3.07-.52,6.39,0,9.2-1C500,88.08,501.93,86.23,503,88.69ZM627.71,288.8c.44-.76.14-2.27.8-2.8A5.07,5.07,0,0,1,627.71,288.8ZM513,333.22a.92.92,0,0,1,.2-.6c1.34.36,2,2.36,3.6,1.8.94,1.71,2.56,2.26,4.4,3.4.45,0,.88-1,1.2-.4-1.53.7,1.13,2,2,1,.64.5.23,1.13.8,1.4,3.92.84,6.78,4.09,10.61,3.8.26.81,1.27.86,2.2,1,.06-.52-.77-.16-.6-.8.58-.3.62,0,1.4-.2,0,.63-.53.67-.4,1.4,3.91.76,7.4,2.08,12,2.8.42-.12.65-.42,1-.6,0,.5,0,1,.4,1,3.37-.49,6.52,1,9.2-.2.32,0,.16.51.6.39.36-.5-.38-1.13.4-1.4.58.24.22,1.27.4,1.4,1.17-.29,1.66-.46,2.6.2-2.87.34-5.82.59-8.81.8,0-.24,0-.57-.2-.6-3.08.88-6.48-.69-9-.8-3.14-.14-6.35-1.5-9.41-2.41-1.15-.34-2.42-.28-3.4-.6-2.23-.74-4.31-2.25-6.4-3.2-.57-.26-1.22-.1-1.8-.4s-.83-.89-1.4-1.2c-.9-.49-2.39-.74-3.4-1.4-.73-.47-1-1.21-1.6-1.4C516.89,336.62,515.29,334.52,513,333.22Zm14,6a.93.93,0,0,0,.6-.2c.07.27.29.38.2.8C527.33,339.89,527,339.76,527.05,339.23Zm-19.21-11.41c1.42.38,1.86,1.74,2.8,2.6.9.45,3.15,1.4,2.2,2.4C511.33,331,508.73,330.26,507.84,327.82Zm3.6,2c0-.85,1-.54,1.2,0C512,329.6,512.19,329.8,511.44,329.83Zm-18.22-25.62c1.92,2.1,2,5.52,4,7.2,0,.65.35.85.2,1.6.5,0,1,0,1,.4-.44,0-.08.85-.2,1.2,2.46,1.55,2.93,5.08,5,7,.27,0,.18-.35.4-.4.57.83.16,2,1,2.8.48.08.44-.36,1-.2-.28,1,.47.57.6.8-.61.89.61,1.66.8,2.4-1.35-.32-1.85-1.48-2.4-2.6A58.68,58.68,0,0,1,493.23,304.21Zm3.4,3.4c-.38-.64-.72-.21-1,.2-.51-.5.09-.93.4-1.2C496,307.1,497.28,307.2,496.63,307.61ZM488.83,277c-.15-1.12-1.32-3.36,0-4.8.64,1.2-.63,3.07.8,3.4-1,2.63-.12,6.1-.2,9-.06,2.19,1,3.78,1.2,5.6s-.22,2.66.2,4c.39.27.61.72,1.2.8-.53,3.32,1.09,5.53,1.2,8.8-1.3-2.6-3.08-6.73-2.6-9.8-.81-.6-.5-1.1-1.2-1.8,0-1.57-.05-2.94,0-4.4.09-2.52-1-4.94-1-7.21C488.44,279.32,489,278.11,488.83,277Zm1.4,5.2c0-.51.37-.7.6-1,.06.47.31.75.2,1.4C490.48,282.74,490.63,282.2,490.23,282.2ZM505,254.38a56.1,56.1,0,0,0-2.4,8.4,73,73,0,0,0-.6,18.41c.57,6.94,2.58,12.27,4.6,19.21,1.75,3.58,3,7.71,6.21,9.8,1.56,4.11,5.07,6.27,7.2,9.81.63-.61.83.34,1.6.2,1.21,2.39,4.17,3,5.61,5.2.71.08,1.07.53,2,.4.38.75,1.36.9,1.6,1.8,1.78-.1,3.44,2.47,5.2,2.4.36.27,2.2,1.55,3.21,1.2,4.49,3.78,12.42,3.27,17.81,3.6,6.1.37,14.45.31,21-1.2,0-1,.69-1.31,1-2,4.76-.52,8.66-1.51,12-4.2.47.29-.39.63.41.6.41-.06.4-.53.6-.8,3.37-1.58,7.71-3.9,10-6.4,1.54-1.68,2.78-4,4.4-5.61.37-.37.89-.42,1.2-.8a22.72,22.72,0,0,0,2.6-4.2c2.35-5.85,6-12.09,7.4-18.81a14.77,14.77,0,0,1,.2-2c2.11-5.76,1.91-13,1.8-19.81a32.59,32.59,0,0,1-2-9.21c-.27-.06-.38-.29-.8-.2a6.9,6.9,0,0,0-1-2.6c.23-4.73-3.1-7.56-4.61-11.21-.26-.21-.74-.19-1-.4-.35-.79-.32-2-1.4-2,.51-3-4-3.4-3.4-6.41.74.47,1.76.64,1.6,2,4.39,3.15,6.44,8.64,9.41,13.21-.42.76.86,1.54.6,2.8a5.87,5.87,0,0,0,1.2,1.2c.36,4.76,2.63,10.7,3,16.41-.7,1.15,0,3.44,0,5.4-.05,2.63-.64,4.51-.2,5.8-1.34.82-.3,3.76-1.6,5-.32,3-1.47,5.07-1.8,8-.72.67-1.49,2.55-.8,3.4,1.37-2.43,1.92-5.69,3-8.41.06-.46-.58-.22-.6-.6a13.92,13.92,0,0,0,2.2-10c.52.06.86-.07.8-.6-.37-3.26.78-7.48-.4-11-.09-.63.62-.45.4-1.2-.44-.5-.34-1.53-1-1.8.34-.93.23-2.63-.6-3-.06-1.92-.58-5-2-6.2.3-3.84-2.05-6.76-3.4-9.61a1.12,1.12,0,0,1-.8-.2c0-.81-.65-.95-.4-2-2.36-2.67-3.73-5.26-5.8-8h-.8c.34-2.3-3-2.42-3.4-4.6a.93.93,0,0,0-.6.2,1.3,1.3,0,0,0-.2-1c-2.17-.83-3-3-5.6-3.4a.87.87,0,0,0-.39-.8c-.47-.53-.54.53-1,0-.28-.25-.08-1-.6-1-.27-.06-.38-.28-.8-.2-2.18-3.17-6.87-4-10.8-5.21-9.86-3-21.93-5-33.22-3.6-7.53.92-14.32,3.7-20.61,5.4-1.43-3.31-2.84-6.63-4.2-10,6.57-2.8,13.26-6,21.21-7s15.89-.21,23,.4c17,1.46,26,9.86,36,18.41-.1.63.29.78.4,1.2.71.09.93.68,1.6.8,0,1.09.85,1.42,1.6,1.8.56,3.1,4,4.17,4,7.21,3,1.91,3.07,6.67,6.21,8.4.14.61-.35.59-.2,1.2,1.76,1.84,1.61,5.6,3.2,7.61-.5,1.65.82,2.33,1,2.8,0,0-.45,0-.4.2.18.57.8,1.67,1.2,2.8-.3,1.32.72,2.46.6,4.2,1,2,1.85,5.4.8,7.81.09.45.43.64.6,1-.51,2.8,0,5,.41,7.4a23.59,23.59,0,0,0-1.4,8.41,9,9,0,0,0-1.21,6.2c-.25.28-1,.09-1,.6-.11,2.77-1.47,5.23-1.8,7.4.75.21.57-.49,1.2-.4-.11,2.47-3,4.18-2.2,6.21a1.32,1.32,0,0,1-1,.2c-.88,1.68-2.42,3-2,5.4-3.89,5.46-7.54,11.14-12.61,15.41a7.13,7.13,0,0,0-.8,2c-2.29,1.58-4.16,3.57-7.2,4.4-.86,1.2-2.37,2.63-4,2.4-.55,1.94-3.58.67-4.2,2.81-7.69,2.18-13.81,7-23,7,2.54-.73,5.59-1,7.41-2.4-.44-.89-2.64,0-2.2.6a1.5,1.5,0,0,0-.4-.6c-.81-.14-.49.84-1.21.8-.77-1.3-2.83-.64-3.2.6-.24-.43-.25-1.09-.8-1.2-3.23,1.15-8.14-.54-12,1-.37-.76-1.26-1-2-1.4-.32,0-.16.51-.6.4-2.73-1.36-6.74-1.39-10.2-2.8.06.12.5.77,0,.8,0-.5-.68-.06-.8,0-.28-.26-.12-.94-.4-1.2-3-2-6.31-1.45-9.21-3-.83-1.17-2.36-1.64-4.2-1.8-.27.32-.17,1-.6,1.2-.32-.93.17-.66.2-1.6-2.14-1-3.39-2.88-6.21-3.2a13.3,13.3,0,0,0-3.6-3.6c-.32,0-.16.51-.6.4-.17-.64.32-.62.41-1-.93,0-.88-1-1.6-1.2-.22.39-.38.82-1.2.6-.44-1,1.33-.27.6-1-.42-.66-.58.6-1.2.4-.26-.62.59-1.11,0-1.4s-.77.3-1.4.2c-.18-.64.66-.27.6-.8-.47-.06-.37-.69-1-.6.49.6-.78.83-.6,1.2-.7-.84.53-1.09.8-1.6-.7-.45-.84-2-2-1.4a5,5,0,0,0-2.6-3.2c.22-2.38-2.53-2.54-2.4-4.2a1.3,1.3,0,0,0-1-.2c-.45-3.31-3.44-5.39-4.2-9-.63-.1-.82.47-1-.2.42-1-.49-2.44-1.2-3-1-2.56-1-6.12-2.6-8-.21-2.3-.3-3.8-1.4-5.4.18-.42.61-.59.6-1.2a45.18,45.18,0,0,1-1.2-15c-.06-.47-.69-.37-.6-1,1.67-2.87-.13-6.24,1.4-8.8-.15-.32-.63-.3-.6-.8,1.43-1.7,2-5.31,2.2-7.6-.31,1-2.24,1-2.6,0-.41.72,0,1,.2,1.6-.93.12-.84,1-.6,1.8-1.75,1.54-.6,5-2,6.6a.87.87,0,0,0,.8.4c-.59.85-.21,1.06.4,1.6-.36.62-.78-.07-1.2.4-.25.82.1,2.23-.8,2.4.59-3.39-.06-6.8,1.4-9.21-.5-2.84,1.57-7.45,2-10,.4-.2.86-.35,1-.8a19.61,19.61,0,0,1,.2-3c1.8-1.81,1.74-4.56,3.6-6,0-.5-.31-.62-.4-1,1.85-.22,1.27-3.93,3.61-3-2.87,4.32-6,8.92-6.4,14.6.15-.14,1-.5.8.2-1.06-.1-1.76,2.12-2.4,1.8,0,1,1,1,1.2,1.8.69-.48,1.21-.37,1.6-.8,0-.91-.28-1.05-.2-1.8.47.06.83.39,1.2,0,.1-1.31.52-1.07.4-2.6,1.12.12,1-1,1-2,1-1.35,2.32-3.36,2-5.4,2.26.47,2-3.21,3.81-3.8,1.82,2.64-2.92,4.33-1.81,6.8-1.32.48-1.92,1.68-2,3.4-.85,1.81-2.67,3.32-2.4,6a5.1,5.1,0,0,0-1.2,5c-.54,1.49-2.16,4.21-.8,5.2.39-1.65.67-2.71,1-4.2.2-.89,0-2,.2-2.6.42-1.34,1.79-2.07,1-3.6,2.33-4,3.91-10.15,7.41-13.61.31.49,1.08.52,1.2,1.2-1.45,1.15-1.66,3.54-3,4.8-2.32,5.48-5.51,11.34-5.2,18.41.62-2,1.29-3.47,1.2-5.8a9.16,9.16,0,0,0,1.4-5.8c2.61-2.39,2.8-7.2,5.6-9.4,0-.5,0-1,.4-1C509,248,506.14,251.14,505,254.38Zm-12.41,4.4c.12.55.5.84.6,1.4-.78,0-.79-.81-1.2-1.2A.93.93,0,0,0,492.63,258.78Zm70.84,0c-3.3-3.3-7.1-6.37-9.8-9.6-1.4-1.68-2.56-3.69-3.8-5.4a110.22,110.22,0,0,1-10.21-17.41c7.14-2.41,15.47-4.83,25-4a74.85,74.85,0,0,1,23.81,6.6c4,2.82,7.8,5.8,11.61,8.8.81.43.14,1.24.8,1.6,3.33,1.92,5.57,5.18,7.6,8.8a32.6,32.6,0,0,1,3.6,8.41c.5,1.86,1.53,3.46,2,5.2a78.47,78.47,0,0,1,1.4,9.21c1.37,9.88-2.33,23.1-6,30.42-1.5,3-2.65,6.1-4.2,8.2-2.6,3.53-6.17,5.54-8,9.2-3.82,3.47-7.54,5.4-12.41,7.81a57.2,57.2,0,0,1-29.82,5.6c-3.81-.27-8.2-.58-10.8-1.6-.9-.35-2-.53-3-1-.66-.31-2.57-.56-4-1.2a60.51,60.51,0,0,1-8.41-5c-7.62-5.24-15-13.12-18.81-21.41a71,71,0,0,1-3-9.61,57.46,57.46,0,0,1-1.8-10.8,63.27,63.27,0,0,1,5.2-29.82c.74-1.6,1.45-3.36,2.2-4.6.94-1.56,3.26-3,4-5,.4-1-.37-.9.2-2a72.06,72.06,0,0,1,6.81,8.6c-2.9-1-3-4.91-7-4.8a23,23,0,0,1-1.6,2.8c9.92,8.83,20.84,18.38,31.42,27.22-.87,6,1.07,12.38,4,15,4.55,4.09,13.41,1.63,17.21-1.4a14.6,14.6,0,0,0,5.4-9.81C573.85,268.63,568.31,263.63,563.47,258.78ZM572.88,333a1,1,0,0,1-.4,1c0-.4-.55-.25-.4-.8C572.45,333.27,572.52,333,572.88,333Zm36.82-23a1.68,1.68,0,0,1-.8,1.6C608.91,310.83,609.4,310.51,609.7,310ZM501.24,174.34c3.78,1.17,10.82,1.94,13.4-.8.23-1.13,1.41-2.22,2.2-3.2s1.53-2.64,2.6-2c-.72,1.36-3.33,3.59-3.6,5.41,1.66-2.1,4.3-3.37,5-6.21.25,0,.27-.25.6-.2.59,1,2,1.8,2.2,3.2.09.66-.36,1.35-.4,2a55.54,55.54,0,0,0,1,11.61c.62,3.71,1.25,7.37,2,10.81.19.87,1.21,2.5,0,3.2-1.13-.74-1.42-2.66-1.8-4.2a108.25,108.25,0,0,1-2.4-17c-.1-1.37.27-3.05-1-3.8-1.51.78-2.39,2.57-3.4,4.2-.84,1.34-2.61,3.36-2.8,4.8s.86,3.81,1.4,6c1.49,6,2.83,12.79,4.61,18.21,1,3,3.06,6.07,3,8.6,1.12,1.22,1.25,2.7,1.8,4.2,2.33,6.36,6.35,11.9,9.2,17.81,4.67,5.34,8.14,11.87,13.61,16.41.21.46.69.65.6,1.4.63-.1.78.28,1.2.4,4.29,5.12,9.47,9.34,14.21,14a4.47,4.47,0,0,1,1.2.4c2.8,2.6,4.88,10.09,2.4,13.81a21.8,21.8,0,0,1-4,3.21c-4.28,2.26-9.49.51-12.4-2-1.36-2.9-1.92-7.43-1.2-9.8a50.56,50.56,0,0,0-4.6-6.61c-2.73-3.41-5.75-6.68-8.6-10s-5.87-6.67-8.81-10c-5.88-6.67-10.3-14.35-15.41-22-.3-2.5-1.82-3.78-2.8-5.6V219c-1.13-1.14-1.53-3-2-4.8a69,69,0,0,1-6-17c-1.3-3.26-2.65-7.38-2-11.41a4.34,4.34,0,0,1-.8-3.21c-.71-.18-1,.51-1.2-.2C498.49,179.64,501.1,177.8,501.24,174.34ZM489.43,96.89a26.1,26.1,0,0,0,12-1.4c4.37,23.52,8.57,48.88,12.21,71.85-1.83,2.89-7.79,3.75-12,2.4C497.45,145.56,492.45,122.22,489.43,96.89Zm-10.8,40.62c1.07-1.53,3.46-1.74,4-3.8a4.52,4.52,0,0,0,2.6-1.21c-.15-.38-.6-.14-.2-.6.65-.25.15.65.8.4,0-.51.37-.7.6-1,1.15.24,2-.34,3.4-.4C486.26,133.15,481.75,135.5,478.62,137.51Zm-3.4,2.8a8.49,8.49,0,0,1,3-2.4C477.52,139,476.23,139.53,475.22,140.32ZM392.57,263.38h.6c-.2.41.27,1.73-.4,2.2C392.92,264.64,392.55,264.21,392.57,263.38Zm0-10.61c.63-.71,1.47-2.4.8-3.2.75-.21.64.42,1,.6.14-.22.67-1,.8-.6.37,1.12,1.51,3.23.2,4.8A17.14,17.14,0,0,0,392.57,252.78Zm8.6-26.61c6.81-1.15,14.25-1.94,18.41-4.8,1-1.62,2.55-2.27,3.8-3.6s2-2.88,3.4-3.4c2.38-3,5.25-5.42,6.81-9.2a40.71,40.71,0,0,0,7.8-13.61c1.74-1.73,2.55-4.38,3.2-7.21.34-.08.51.3.6,0-.5-.82.36-.8.2-1.8,2.15-3.3,4.11-8.26,5.8-11.6a17.57,17.57,0,0,0,2.2-7.61c.42-.23,1.48-1.44.2-1.6-.4.64-.67.8-.2,1.4a.89.89,0,0,0-.8.4c-4.12,9.43-8.9,19.33-13.41,29a84.36,84.36,0,0,1-12.61,19.21,66.15,66.15,0,0,1-5,5.8c-5,4.43-13.31,7-22,7.41-.67,0-2.21.91-2.6-.6,1-1.13,2.37-.7,3.6-.8,7.64-.64,15.46-2.82,20.21-7.2a63.65,63.65,0,0,0,7-8.4,80.51,80.51,0,0,0,6.2-9.41c9.05-16.84,16.36-35.63,24.82-52.83a52.43,52.43,0,0,1,16.41-19.61c1.4-1,2.57-2.49,3.8-3.2,2.49-1.43,5.5-1.89,8.2-3.2a1.77,1.77,0,0,1,1,1.8,61.47,61.47,0,0,1-6.6,3.6c1.2,1,3.09-.44,4-1-.47-.11-.47-.6,0-.2.3.83,2.7-.44,3-1.2,0,1.71.48,2.49.6,4.4-1.45-.55-2.14,1-3.2.6.42-.06,0-.95-.4-.8-.83.28.13,1.1-.4,1.6-1.35,1-3.55,1.12-4,3-.48.08-.44-.37-1-.2-.11.69-1.11.49-1,1.4-3.5,1.43-6.24,4.64-9,7.41-.24,1.25-1.81,1.92-1.4,3.2-1.26.35-1.35,1.85-2.4,2.4-.59,3.12-3.29,5.21-4.41,7.8a12,12,0,0,0-1,4.6,3,3,0,0,0,.8-2.4c2.8-3.27,4.88-7.27,7.21-11,.15-.61-.35-.59-.2-1.2.7-.37,1.07-1.06,1.8-1.4.36-1.49,1.14-2.07,1.4-3.2,2.51-.49,2.79-3.22,5.4-3.6,1.46-1.68,3.64-2.63,4.8-4.6.58-.05.61.45,1.2.4,1.33-1.93,4.19-1.74,5.4-3.4a1.87,1.87,0,0,1,.8,1.2c-.86.54-2.11.69-2.2,2-1.5-1-2.58.9-4,1.2-.17.57.28.52.2,1-.63.09-.78-.28-1.2-.4-.12.42-.57.65-.2,1-.87-.49-1.12.53-2.2.4-1.27,3-6.24,3.2-6.21,6.8-.61.15-.24-.69-1-.4-.77,3-3.74,3.87-4.2,7.21-2,1.26-2.32,3.87-3.81,6-.1,1.76-.93,2.15-1.4,3.2-.9,2-1.7,4.36-2.6,6.6-1.17,2.89-2.29,5.6-3.6,8.6-3.84,8.8-8,18.76-12.21,28.22-2,4.53-5.17,8.29-8,12.21-1.38,1.92-2.85,4-4.41,5.8-1.69,2-3.29,4.3-4.8,5.41s-4.24,2.11-6.6,3.4c-2.14,1.16-4.24,2.94-6.4,3.8-3.44,1.36-8.57,2.12-12.21,2.81-.31.22-.42.65-1,.6-3.29-.25-8,1.1-10.2-.6.81-.39,1.75-.66,2.2-1.4-.24-.57-1.5-.11-1.4-1,.39-1.21,2-1.22,2.8-2-.78-.28-2.27.33-3.2-.2C392.91,226.67,397.2,226.84,401.18,226.16ZM380,289.8a.87.87,0,0,1,.8.4c-.15,0-.23.17-.2.4C380,290.66,380.05,290.18,380,289.8Zm23.81-16.21c-2.25,2.63-3.25,5.8-5.4,7.61-1.07.9-3.77-.07-5.8,0-1.63.06-3.62.75-5.8.6,2-.87,2.39-4.71.2-5.6-.72.68-.46,1.13-.8,2.2a2.39,2.39,0,0,1-3.8-2c.85-.87,2.31-.59,3.2-1,0,.56.35.85,1,.8,0-.2.16-.24.2-.4a6.53,6.53,0,0,0-4.2-2.2c0,.64.2,1.53-.6,1.4,0-.6-.21-1-1-1.2-2.29.65-1.67,2.16-2,3.2,0-.08-.25-.33-.4-.2s.2.64.2.6-.46,2.3,1,1.4c.21.75-.5.57-.4,1.2,1.1.25,1.37,2.27,0,2.4-.73-.87-.92-2.28-2.4-2.4-.16-2.39,1.37-4.34,1.8-6,.18.54.56-.35.4-.8,4.52-2.81,10.19.89,14.61,1.2A66.35,66.35,0,0,1,403.78,273.59Zm-21.21,6c.06.47.7.37.6,1-.62-.26-.78.16-1.2-.4C382.35,280.17,382.11,279.53,382.57,279.6ZM411,281c.2.81-1.19.81-1,0Zm8.21-2.2c-2.74,4-5.82,11.39-8.81,15.81A7.77,7.77,0,0,1,406,297c-3.56.57-6.61-1.78-10.6-1.2-.79.11-1.13.63-2,.4,4.61-7.6,9.78-14.63,14.21-22.41.63,0,.67-.53,1.4-.4.54.46-.53.54,0,1-2,1.17-5.08,5.26-3,7.4,1.75-1.39,2.06-4.22,4-5.4-.29.37-.26,2-.6,2.6a5.79,5.79,0,0,0-1.8,1.6c0,1.74-1.71,3-2.2,4.8-.06.52.78.16.6.8a5,5,0,0,1-2.6,2.8c-1,1.81-1,4.66-2.8,4.6-.1.3-.3.5-.4.8.51,1.14,1.25.86,2.4,1.2.06-.41.54-.39.6-.8,0-.66-.33-1-.2-1.8,2.66-.38,5.75-2.13,4.21-5.4,1.55-1.05,3.5-1.7,4.2-3.6-.8-.91.22-1.15,0-2.4A21.3,21.3,0,0,1,419.19,278.79Zm-.6-4c-.95-.44-2,.36-2.4-.4,1.23,0,1.58-.45,2.8-.2C418.71,274.24,418.76,274.63,418.59,274.79Zm-4.81,1.2c-.41-.25-1-.32-1-1,.75-.51,1.93-.6,2.4-1.4.18.42.61.59.6,1.2C415.06,275.13,414.66,275.8,413.78,276Zm7.2-5.2c-.22,3.16-4,.71-5.6,2.2-1-.31-2.68-.48-3-2.4a16.28,16.28,0,0,1,6-.4C419.42,270.33,420.34,271.59,421,270.79Zm7.2,6.2c0,.26.26.28.2.6-2.7,6-6.39,11.09-9.6,16.61-4.33-2.69,3-6.78,3-10.21C424.61,282.24,424.78,277.56,428.19,277Zm-.2-1a.75.75,0,0,1,.8.8C428.33,276.73,427.86,276.66,428,276Zm-2.8-2.2c-1.1-.66-1.19,1-1.6.6.47-.1-.85-1.12-.2-1.4a.55.55,0,0,0,.6.4c-.06-.12-.5-.77,0-.8C424.21,273.18,425.19,273,425.19,273.79Zm.4-3.6a7.3,7.3,0,0,1,6.61-.2c2,1.89,1.43,5.15,2.8,7.61.68-.12.32-1.28,1.19-1.2-.11,2.08-1.39,4-2.4,5.8s-2.34,3.68-3.2,5.6a19.68,19.68,0,0,0-2,.8c.15.38.6.14.2.6.64.12.27-.72.8-.2.13,1.3-1.39,2.59-1.8,4-1.56.16-4,.67-6,1,2.26-4.54,5.06-8.55,7.41-13,2.34,0,3.41-1.26,4.8-2.2.81-1.86-1.52-1.38-2.6-1-.95-1.71.32-3.26-.6-4.8-1-.69-2.95-1.91-3.6-.2-1-.37-1,.06-2.2.2C424.65,271.49,426.28,271.43,425.59,270.19Zm10.4-4.4c1.18,1.55,1.39,4.08,3,5.2-.51.34.43,1.34-.4,1.6-.18-.35-.38-.7-1-.6a2.2,2.2,0,0,1-1,1.4c-.2-1,.62-1,.6-1.8a.76.76,0,0,1-1,0c-.94-4.77-6.44-5.51-10.6-3.6a.72.72,0,0,1-.6,1c.27-1.33,1.55-1.79,1.2-3.2h.8c-.76-1.3,1.67-1,1.4-2.4,1.58.79,3.12.1,5.21.4a2.6,2.6,0,0,0,2.4,1.8c0-.61.81-.25.2,0C436.07,265.6,436,265.62,436,265.79Zm1.6,8.6c-.46-.16-.19-1.24.4-1C437.91,273.77,438.27,274.6,437.6,274.39Zm0,.8c-.12.12-.95.47-1,0,.23,0,.22-.32.2-.6C437.3,274.56,437.43,274.9,437.6,275.19ZM443,273c-.09.92-.95.44-1.2.4C442.22,273.28,442.37,272.9,443,273ZM433.4,293.6a7.77,7.77,0,0,1-2-2.6c.75-.33,2.29.19,2.8-.8a2.7,2.7,0,0,1-1.8-1.4c.41-.32.5-1,.8-1.4,2.52.17,5.19-.3,4.61-2.6-.7-.31-1.77-.23-1.6-1.4.82-1.1,2.73.08,3.81-.2.18-1.16,1.34-1.33,1.2-2.8a5.7,5.7,0,0,0-1.8-1.2v-1.4c1.25.15,2,.1,3.6.2,1-.57,1-2.92-.6-2.2.38-1.48-.73-.42-.8-1.2V274c2.3.15,4.75,0,5.8-1.6.55,3.69-.14,6.45.8,9.41-.29.44-.39,1.08-.8,1.4-.4-1,.1-2.91-1.4-2.8-1.93.77-.39,3.78-.8,6-1,1.1-2.36,1.79-4,.8.24.62-.21.72-.6.8-.2,1.18.41.31.6,1-.64-.18-.62.31-.8.6.54,1.39-.83,2.47-.8,4-.66.4-1.56,1.43-2.4,1-.58,1.69-2.3,2.24-3.21,3.6C432.84,297.06,433.35,295.31,433.4,293.6ZM391.77,300c3.16-1.33,5.44-2,9.2-1.2,1.86.39,3,1.32,4.4,1.4a9.31,9.31,0,0,0,4-1.4c.62-.4.81-1.33,1.4-1.8,1.05-.84,2.44-1,3.4-2,1.56,1.4,3.55.25,4.8,1.6,1.65-.6,4.75-.14,7-1.2,1.72.42,2.58,1.69,4.4,2,.13.73-.43.77-.39,1.4.77.43,1,1.4,1.8,1.8-.53,1.33-1.8,1.94-2.6,3-2.11-.44-3.66.9-4.8.2-.42.18-.35.85-1,.8-2.26-1-4.32-.59-5.8-1.4-.74,0-.49,1-1.2,1-.7-.37-.35-1.78-1.2-2-.08.34-.26,0-.6,0-.3.61.07.78-.2,1.2-1.71-.11-2.14,2.62-5.2,1.8-.44-1.57-1.94-2.07-3.4-2.6-2.22.47-6,.47-8.61,2-.5,0-.62-.31-1-.4a.75.75,0,0,1-.8.8C394.15,303.36,392.94,301.71,391.77,300Zm-3-12c.77.21,1.62.69,2-.2a2.06,2.06,0,0,1-1.4-1.2c-.25.55-1.12.48-1.4,1s.32.48.4.8c-1.89,1.13-3.83,2-5.41,2.8-.5-.32-.08-1.4,0-1.8.3,0,.74.07.8-.2-.17-2.82-3.82-1-4,.4a4.11,4.11,0,0,1-2.4-1.6c-.29-.76.89,0,.6-.8-1.64-.46-4.06.72-5.6-.2-.08-1,.6-.11.8-.6-.4-.27.06-1.4-.6-1.4-1.52,1-3.29-.69-4.61.4a3.46,3.46,0,0,0,2.6.8c.53,1.45-3.4,2.67-4.2,1,.69-.38.75-1.39,1.2-2-2,0-5.59-.27-7.4.4a7.47,7.47,0,0,0,2.2,1.2c-.41,1.15-3.22,1.38-4,.4.4-.73,1.45-.82,1.6-1.8-1.82-.2-5.39-.56-5.8,1.8-3.6.35-6.38-1.13-8.81.2-1.81-.8-4.35-1.16-6.4-2.2-.64.56-1.53.88-2,1.6-2.27-.67-4.84.71-6.41-1.2h-1.6c.08.48-.36.44-.2,1-2.44.31-4.88-.37-7-.6-.11-.29.23-1-.2-1-1-.42-1.75.08-2.8-.2.17.9-.47,1-.6,1.6-2.46.24-3.85-1-5.81-.2,0-.5,0-1-.4-1,0,.61-1,.91-1.8,1-1.57.19-6.84.06-6.6-1.4,1.34.21,2.7-.77,3.8-1.4,2.35.32,5.07.27,7.4.6,1.67-1.4,3.1,0,4.6.2,2.76.44,5.45-.61,8-.8.19.41.24,1,.8,1,2.75-.4,4.83.35,7-.2a263.36,263.36,0,0,0,35.42-.2c1,.92,2.48.35,3.4-.4.18.35.62.44,1.2.4.39-.27.13-1.21.8-1.2,1,.76,1.51,2.3,3.4,1.6,1.07,1.85,3.52.47,4.8,1,.17-.63.82-.78,1.4-1,2.56.95,5.61-.65,8.21-.4a2,2,0,0,0,2,1.2c-.12,2.62-2.38,3.09-4,4.21C391.73,287.75,389,289.64,388.77,288ZM488.83,23.85c-.53.39-.8,1.25-1.6.8-2.19,3.21-5.68,5.13-8.2,8a1.62,1.62,0,0,0-2,1.4,1.69,1.69,0,0,0-1.2-.2c.32,1-.83,1-1.41,1.6,1.44.34,1.36-1.34,2.6-.6-.15-.94,1.56-.88,1.6-2.2,1.48,1,2.58-1.43,4.2-1.6C484.14,28.09,488,26.62,488.83,23.85Zm1,1.4c-1.27,1.21-3.9,3.08-5.4,5.2A12.66,12.66,0,0,0,489.83,25.25ZM421.39,40.66c1.73.75,2.51.69,4.8,1,0-1.37-1.71,0-1.8-1.4-.65.79-.67-.06-1.4-.2.23.62-.32.48-.4.8-.59-.17.46-.3.2-.8-4,0-4.81-.74-8.6-.4-.07.47-.21.87-.6,1-.37,0-.12-.68-.4-.8-.64.16-1.41.19-1.4,1,.44,0,.64-.16.6-.6.59.17-.12.64,0,1,1,0,1.51.35,2.6.2a.56.56,0,0,0,0-.8c.74-.21.39.67.8.8.8.2.08-1.12.8-1,.79-.12.89.45,1,1,1,0,.79-1.21,1.8-1.2.67.66,1.31.47,1.6,1.2C421.36,41.43,421.11,40.78,421.39,40.66Zm42.42,0c-.83-.58-2.75.18-3.8.6-.39-.7-1.44-.55-1.2-1.4-.79.14-1.86,0-2,.8.52-.15,1.2-.74,1.8-.2-.73,1.34-1.75.74-3,1-.17.56.28.52.2,1-.4.18-.4.67,0,.2C458.58,42.1,462.48,42.67,463.82,40.66Zm-50.63,1.8a.13.13,0,0,1,.14,0C413,41.9,410.27,42.62,413.18,42.46Zm-23.41,1.8c0,.36-.24.42-.2.8.91-1,1.77.8,2.6-.2C391.2,43.95,390.75,44.86,389.77,44.26Zm-73.84,9.41c-1.35-1.46-4-1.15-6.2-1.4-6.19-.71-14.48-1.73-20.41-2a19.9,19.9,0,0,0-4.8,0c-.7.16-1.11,1-1.8,1.2s-1.26-.36-1.8-.2c-.7.19-1.31.93-1.8,1.2.23,0,.36,0,.4-.2C290.66,51.13,304.2,52.91,315.93,53.67Zm30,8.2c1.5.93,4.92.25,6.4.8-.79-1.55-3.12-.6-4.8-.8a61.08,61.08,0,0,0-8.4-.6,3.27,3.27,0,0,0,2.6,1c.47,0,.48-.51,1-.6C343.53,61.53,344.87,62.91,345.95,61.87ZM326.73,80.68a7.41,7.41,0,0,0,2,0C328.25,79.53,327.71,80.49,326.73,80.68Zm-2.2-.2c.06.41.4.53.6.8.39-.09,1-1,1.2-.6C326.1,79.76,325.5,81,324.54,80.48Zm-26.62,6.2a6,6,0,0,0-3.6,5.2c.82,0,.44-1.3,1.4-1.2a1.32,1.32,0,0,0-.2-1A6.53,6.53,0,0,0,297.92,86.69Zm1-2a3.23,3.23,0,0,0-1,2c.61.15.59-.35,1.2-.2v-.8c1.34-.19,1.41-1.66,2.8-1.8C301.18,82.31,299.88,85.27,298.92,84.68ZM493,103.09c3.62,21.44,7.54,44.12,11.21,65.84.6.53,2,.3,2.6.8.08-.94.12-.66.2-1.6.82.16-.1.83.4,1.2a11.73,11.73,0,0,0,1.6-1.2c-.3-6.55-3.13-13.22-3.4-19.41,0-.26.24-.72.2-1-.33-2-1.22-4.56-1.6-6.61-.14-.75.4-1.66-.4-2.2,0-4.75-1.32-8.59-2.4-13.41.61-2.18-.86-4.3-1.2-6.6-.45-3,.12-6.22-1.6-8.61.83-1.91-.79-3.36,0-5-1.66-1.18-.55-2.55-1.4-3.6.08-.67.77.53.6-.4-1,.28-.32-2.18-2.2-2,.21-.76.52-1,0-1.6a4.82,4.82,0,0,0-3,0A14.93,14.93,0,0,0,493,103.09Zm-12.4,23.21c-.66,0-1,.34-1.8.2-3.81,3.29-7.87,5.08-10.61,9.4,2.64-.38,4-3.75,6.61-4.8-.15-.61.55-.38.4-1,.47,0,.59-.35,1.2-.2.29-.76-.55-.39-.4-1,.87.82,1.8.33,2.2-.8.63-.22.45,0,1.2,0C479.57,127.26,480.53,127.21,480.63,126.31Zm-16.81,19.21c-.25-2.16,1.63-3.8,2-6a9.9,9.9,0,0,0,2.6-2.4c-.18-.49-.18-1.15-.8-1.2-.78,2-3.07,3.6-3.2,5.6-3.63,4.24-8.16,12.94-10.8,19.61.29.26.44-.35,1.2,0,.28-1.25,1.41-1.65,1.2-3.4.91-.43.7-2,1.6-2.4-.8-1.58,1.11-2.13,2.2-4.21.46-.87.46-1.9.8-2.4C461.22,147.84,462.48,145.76,463.82,145.52Zm-2.4,7.41v-.8a22.31,22.31,0,0,0,3.6-6c1.87-.87,1.62-3.24,2.6-4.8.83-1.32,2.42-2.2,3.2-3.4v-.8c0-.38.74.31,1-.2,1-2.51,3.55-2.62,5-5.2,1.11.05,1.36-.45,2-.4.06-.32-.19-.35-.2-.6a2.2,2.2,0,0,0,2.2-1.8c-2.09.22-4.17,2.08-5.41,3.8-4.24,1.49-6.35,5.42-8.61,8.81-.89,1.34-2.2,2.57-3,4-.41.74-.42,1.68-.8,2.4-1.19,2.29-3.05,4.57-4.4,7C460.15,155.24,460,153.14,461.41,152.92Zm43.83,37.82c1.37-1.62-.33-4.84-.2-6.21.19.61,1.24.35,2,.4a1.68,1.68,0,0,1-.2-1.2c-.44.22-.66.67-1.2.8-.74-.07-.92-.68-1.2-1.2C503.19,185.49,504.87,188.28,505.24,190.75Zm14,20.61c0-1.44-.76-2.49-.8-4.4a5.36,5.36,0,0,0-1-.6c.35-.41,0-1.33-.4-1.6-.08.94.38,1.73.2,2.61-.71,0-.66-.68-1.2-.8.29-.65.36-1.86-.6-1.81.57-1.06-.16-1.95-.2-3,.26-.38.41.47,1,0-.18-.36-.56-.51-.4-1.2-.75-.21-.39.68-.8.8-.77-.11.15-.77-.4-1.2.05-.42.88-.06,1-.4-.47-.79.38-.61.4-1.4a5.8,5.8,0,0,0-1.2-1.2c-.35.17-.59.63-1,.2-.75-.92.19-3.53-1.4-3.6-.07-.68.35-.86.6-1.21.27.66,1,.85,1.4,1.4a3.07,3.07,0,0,0-.2,2h.8c-.66-1.64.66-3.53-1-4.6.74-.91-.27-1.31,0-2.8-.23,0-.35,0-.4-.2-1.44-.07-.12,1.85-1.2,1.81a3.08,3.08,0,0,1,.4,1.6c-.86-.44-1.41-2.72-.4-3-.3-.3-.89-.31-.8-1,.35-.59.41.77,1,.6,1.41-.77,1-2.68,1.2-4-1.25-.62-3-1.13-4.4-.2.94,1,.2,3.32,1.8,4,.18.65-.65.28-.8.6a5.72,5.72,0,0,1,.4,2.39c-1.68-.49-.67-2.5-2-3.4a15.07,15.07,0,0,0,.2,3.6c.15.94.9,1.68,1,2.4.08.55-.31,1.08-.2,1.6.47,2.39,2.12,4.86,2.2,7.4.05,1.58,1.19,2.8,1.4,4.61.23,2,1.85,3.72,2.2,5.8,1.31-2.62-1.9-5.27-1.8-8.6-1.21-.1-.72-2.25-.8-3.2-.3-.1-.51-.3-.8-.4,0-1.11-.05-2.08-.8-2.4,1.18-1-.28-1.85.2-3.2,1.77,1.42.7,4.39,2,7,.07.14.55.27.6.4.2.59.21,2.84.6,1.8.47,3.43,2.39,7.05,3.8,10.2,1.29-.25.07-2-.6-2.2,1.16-1.37-1-2.4,0-3.6C518.77,209.43,518.28,211.12,519.25,211.36Zm-7.6-25.61a6.49,6.49,0,0,0,.4,1.6C511.62,187.08,510.43,185.84,511.64,185.74Zm-.2,9c-.47-.68-1.33-3.06-.2-3C510.76,192.69,512.87,193.83,511.44,194.75Zm-10.81-11c.47,2.11,2.46,1.91,1.6,4.6,0,.23-.36.17-.6.2.11,1.17.21,2.13.4,3.6.69.15.84-.22,1.2-.4a10.37,10.37,0,0,0,1.4,5.4c.06-1.68.66-4.36-1-5.8.82-2.92-1.32-4.54-.6-8C502.12,183.36,501,183.18,500.64,183.74ZM309.93,199.95c.9-1,2.13-.19,3.6-.8.26-.11.5-.72.8-.8.54-.14,1.35.14,2,0,4.14-.89,8.38-2.58,13-2.8,2.6-.13,5.12-1.21,7.61-1,.58,0,1.16.5,1.8.6,1.7.27,3.74-.15,5.2.2a59.39,59.39,0,0,0,9,1.8c.9.7,2.22,1,2.8,2,2.86-.51,4.36,2,7.2,2.2a120.57,120.57,0,0,1,13.41,8.81c.33.81.92,1.94,1.8,1.6a7.06,7.06,0,0,0,3.6,4c-1.38-3.82-4.77-5.63-6.8-8.81-.48.08-.44-.36-1-.2a15.79,15.79,0,0,0-5.6-3.6c-1.75-1.78-5-2-6.8-3.8-2.2-.28-4.86-1.63-7.4-2.2-.23,0-.17-.36-.2-.6-7.07-1.67-14-3-21-2.8-3.9.12-7.17,1.6-11.61,2-.26.35-1,.25-1,.8-.2-.13-.2-.46-.6-.4C316.63,197.58,312.24,197.73,309.93,199.95Zm59.43,7.41a21.24,21.24,0,0,0-11.81-5.6c.13-.2.46-.2.4-.6-3.9-1.29-6.62-2.12-10.41-3.4-.93.61-2.3-.92-2.8.4.25.84.82,0,1.4,0-.45.71.14,0,.8.2s.22.3.2.8a25.29,25.29,0,0,1,10.41,3.4c.44,0,.64-.16.6-.6,1.1,1.56,4.45,1.9,5.8,3.8.48.08.44-.36,1-.2,3.57,1.9,6.28,4.66,9.81,6.6a2.45,2.45,0,0,0,2.2,2.2c-.19,1.54,1.84,2.37,3,3.2-.2-1.22-.83-1.44-1.8-2.2-1.93-3.54-5.27-5.68-8.2-8.2C369.68,207.14,369.4,207.12,369.36,207.36Zm203.32,3.4c-.53,0-1.14-.08-1.4.2.05.81,1.31.42,1.8.8C573.61,211.53,572.27,211.52,572.68,210.76Zm-285,4.2c.1,1.18-1.19,2-1,2.6a15.86,15.86,0,0,0,3.4-5C288.62,213.11,289.58,214.9,287.71,215Zm247.14,0a4.91,4.91,0,0,0-4.4,1.6c1.49.08,2.81,0,3-1.2C534.07,215.91,534.53,215.62,534.85,215Zm1.4-.2c-.3-1-1.63-.51-1.4.2C535.33,215.57,535.74,215.11,536.25,214.76Zm-346.39,3.6c5-.74,6.75-2.84,12.41-3v-1c-2.39.35-5.75,1.28-8.6,1.8-.54.14-.39-.41-.6-.6a3.7,3.7,0,0,1-3.2,1.81c0,.17.08.19.2.19-2,.3-3.45,1.6-6,2.4-1.33.42-1.23.7-2.2,1.4-1.8,1.29-4,1.62-5.6,3.4-.22.24-.16.57-.4.8-.77.75-1.87,1.25-2.61,2a49.14,49.14,0,0,0-3,4c-.43.54-1.21.71-1.8,1.6-.43.65-1.27,2.37-.8,2.2,1.48-.87,3.39-2.33,3.6-3.8a11.11,11.11,0,0,0,4-4c3.62-3.05,7.25-6.09,12.41-7.6.25-.68,1.19-.67,1.8-1C189.89,219.06,189.84,218.67,189.86,218.36ZM164.24,241c1.15-1.72,3.25-3.55,3.4-5.6-1.45.83-3.37,2.2-3.2,4-3.2,1.71-4,6.35-6.21,8.4-.44,2.82-3.41,6.31-4.2,9.81-.07.33-.34,1.48.2,1.6-.1.74-.93.75-.8,1.2.54.64,1.19,1,2,.4-.06-.61-.62-.72-.4-1.6,1.86-5.94,4.63-11,7.4-16a8.56,8.56,0,0,1,1-.8c0-.87.3-.92-.2-1.4C163.88,240.86,163.86,241.35,164.24,241Zm347.2-24c.31.42.36,1.11,1,1.2C511.89,218,512.39,216.74,511.44,217Zm-342,24.82c0-.36-.25-.42-.2-.8,1-.75,2.23-1.37,2.6-2.8,1.52-1.06,2.48-2.65,3.8-4,.43-.43.85-.39,1.4-.8,1.08-.81,1.84-2.21,2.81-3,.35-.29,1-.15,1.4-.4s.32-.79.6-1c1.19-.9,3.09-1.4,4.4-2.2.45-.28,1-.73,1.2-.8.8-.37,1.83-.69,2.4-1,.82-.44,1.21-1.39,2-1.4a4.25,4.25,0,0,0-4.2,1.8c-3.18.3-4.87,2.38-7.61,3.6-1.39,2.35-4.23,3.24-5.6,5.6-3.11,1.69-4.84,4.77-6.6,7.81a5.18,5.18,0,0,0-2.2,3.4c-.19,0-.15-.25-.2-.4-.59.17.26.51,0,1s-.54.26-1,.2c.37,1-1.7,2.2-.8,2.2a39.21,39.21,0,0,0-5.8,14.61c-1.25.65-1.21,3.26-.8,4-1.35,1.41-.89,3.48-1.8,5.4.17.3.64.29,1,.4C158.65,260.44,162.1,250.1,169.45,241.77Zm36,96.26c9.76,2.51,19.49,1,28.22-.8a47.82,47.82,0,0,0,16.41-6.6c5.08-3.11,9.4-6.06,12.81-10.6.23-.63-.31-.49-.4-.8.26-.84.66,0,1.2,0,3.69-3.85,5.66-9.41,8-14.61,0-.62.48-1.13,0-1.6a3.94,3.94,0,0,0,.8-1,1,1,0,0,0-.4-1c.55-.51.74-1.39,1.4-1.8-.39-2.62,1.67-5.51,1.2-8.2,0-.38.66-.14.6-.6a37.91,37.91,0,0,1,1.4-9.6c-.38-4.61-.84-7.6-1.2-11,0-.44-.51-.43-1-.4-.18-1,1-.76.8-1.8-.58-1.46-.84-1.08-2-1.8.09-.51.87-.34,1-.8a20.7,20.7,0,0,0-4-9.81c-.1-.63.36-.71.2-1.4-1.6-.47-.94-3.2-3-3.2-.06-.52.78-.15.6-.8a46.08,46.08,0,0,0-5-6c-.77-.17-.71.49-1.2.6,1-1.31-1-1.34-1.8-2.4.13-.6.42.19.8,0-1.09-1-2.4-2.53-3.8-2.6-.81-.33-.58-.78-.8-1.4-3.71-2-5.9-5.44-10.41-6.6-2.57-2.36-6.21-3.3-9.21-5.6-1.64,0-3-1.13-4.6-1.4-3.73-.65-7.93-.13-11.81,0-1.37,0-2.72-.48-4-.4a30.2,30.2,0,0,0-4.4.6c-11.2,2.42-21.58,8.25-29,14-8.18,8.61-17.23,18.46-19.21,33.62-2.13,16.3,3.9,30.81,9.21,42.22.5,0,.62-.32,1-.4.26.79-.55.52-.8.8,1.1,2.3,3.18,4.31,5.2,6.2a83.92,83.92,0,0,0,12.61,10.21A49.49,49.49,0,0,0,205.47,338Zm-8.61-7.2a111.29,111.29,0,0,1-16.61-11.21c-6.34-8.29-12.84-20.14-14.41-33.42-.2-1.7-.4-4.16.2-5.2a4.39,4.39,0,0,1-.4-2.6c.77-9.9,5.3-19.92,9.21-26.81,5.43-8.24,12.41-14.22,21.61-19.21,6-3.25,12.92-6,20.61-6,18,.06,30.63,6.78,40.42,16a11.51,11.51,0,0,0,.6,1.4c1,.17,1.3,1,2,1.4a7.35,7.35,0,0,0,.4,1.4,10.6,10.6,0,0,1,5.2,7.2c.44.36,1.06.54,1.4,1,2.42,8.26,5.64,16.77,5.4,27-7,0-13,.87-19.61.4,1.71-.84,4.28.19,6.4-.4-.73-1.05-2.84.08-3.4-.8,4.52-1.25,11,.3,16-.8-.58-2-2.84-.57-3.8-1.6-1.68-.25-2.58.59-3.4-.2.91-1.29,4.29-.12,5.21-1.4-1.12-.09-2.34.62-2.81-.4a18.6,18.6,0,0,1,4.4-1c-.38-.63-.14-1.86-.6-2.4-7.73,1.34-14.79,5.09-22.81,6.8a6.29,6.29,0,0,1-4,1.4c0-.65,1.35-1,.8-1.6-.35,0-1,.2-.8-.4.38,0,.44.23.8.2-.07-.93-.07-1.8.6-2-.24-.69-.93-.94-1.2-1.6.47-2-.4-5-1.8-7.21a71,71,0,0,1-7.2-5.6c-3.51.18-6.7-.23-10,1.8-.15.68.82.25.6,1a1.67,1.67,0,0,0-2.6,2c-4-1.06-6.79-1.5-10.2-.2-2.79,2-5.88,4.48-7.41,8-1,2.32-.21,4.84-.8,7.4.82.81,0,2.25,1.2,2.4-.93,3,1.73,5,2.4,6.41.48.08.44-.37,1-.2.62.53-.53.76,0,1.2a47.69,47.69,0,0,0,7.6,3.6c4.56.21,8.61-2.81,11.81-5.2a11.33,11.33,0,0,0,7.2.6c4.22-.81,5.61-4.64,8.81-6,2.08-.88,6.3-.52,9.2-.6,5.67-.16,11.71.1,18.21-.2a70.56,70.56,0,0,1-3.4,18.21,43.22,43.22,0,0,1-3.6,7.2c-1.34,2.5-2.32,5.16-3.8,7s-3.9,3.52-6.21,5.4a52.65,52.65,0,0,1-12.21,8,61.15,61.15,0,0,1-20.81,5.61C210.93,337.49,203.79,334.51,196.86,330.83Zm37-63.84c-.11,0-.22-.16,0-.2a15.8,15.8,0,0,0,4.2,2.4,24.67,24.67,0,0,1,4,12c-.48,1.4-1.52,2.33-1.6,3.6-1.57,1-3.51,1.7-4.6,3.2-2.88.39-5-.47-6.8.2,1.07-.4,0-.69.2-1.8.36-.11.83-.1,1-.4-.44-.29-.93-.53-.8-1.4.67,0,.85.36,1.2-.2,0-.86-.78-1.42,0-2-1.3-.18,0-1.46-.2-2.4-.15-.45-.6-.6-1-.8-.17-.79,1.23-.54.6-1.2-.31,0-.16.51-.6.4-.26-1.19.31-1.56.6-2.2-.55-.54-1-1-.6-2-1.82-1-1.07-3.42-3.6-3.8.14-.63,0-.82.2-1,0,.38.78-.12.8-.4a1.3,1.3,0,0,1-1-.2c.18-.76-.33-1.28,0-1.6.61-.15.38.55,1,.4A9,9,0,0,1,233.88,267Zm-25,9.61c2.13-1.87,3.62-4.38,5.2-6.8.65-.06.42.78,1,.8a9.72,9.72,0,0,1,11.41,5.21.55.55,0,0,1,.8,0,90.51,90.51,0,0,1,0,10.61c-.53.67-1.26,1.15-1,2.6-.57.17-.52-.28-1-.2-.34,2.05-2.17,1.53-3.8,2.2-1.22.5-1.89,1.46-2.6,1.6-4.35.84-7.24-2.18-9.2-4.6-.34,0-.79,1.13-.8.2.66-1.84-1.06-6.17.2-8.8C208.54,278.6,209.48,277.43,208.87,276.59Zm51.43-39.82c.61-.15.73.2,1.2.2-1.35-2.66-4.79-4.75-8.21-6.4a1.43,1.43,0,0,0,1.8,1.2C256.3,234,259,234.68,260.3,236.77Zm-1.2-1.6c-.06-.68-.89-.58-1-1.2C258.65,234,259.59,234.72,259.1,235.17Zm74.24-3.6a.75.75,0,0,0,.8.8c.33-.4,0-.26,0-.8.67-.14.73.33.8.8,3.46-.29,5.92.93,8.8.6-1.09-2.33-4.68-.1-6.4-1.4a3.66,3.66,0,0,1-3.2-.4C334.34,231.77,333.7,231.52,333.34,231.57Zm-67,13.2c-1.12-2.49-3.53-3.85-5.4-5.6s-3.84-3.75-6.4-4.8c3.36,2.84,6.49,5.92,10,8.61A1.63,1.63,0,0,0,266.3,244.77Zm57.83-3.4c1.08.82-.8,1.48-.2,2.4-.68.52-1.47.93-1.8,1.8.34.49.73.34,1.8.4-.06-.52.28-.65.8-.6-.46-1.82,2.83-2.9,1-5A2.34,2.34,0,0,1,324.14,241.37Zm205.51.2a52.34,52.34,0,0,0,7.2,8.8c-1.33-1.94-2.19-4.35-4.4-5.4,0-2-2.89-2.27-1.8-4.2C529.83,240.55,530.68,242,529.65,241.57Zm-242.33,11.6c.8-.13,1.44-.42,1.4-1.4a6.48,6.48,0,0,0,6.4-.8c.77.22,1,1,1.8,1.2,1.18-.43,2.5-.7,3.6-1.2.84.56,1.14,1.66,2.4,1.8a3.36,3.36,0,0,1,.4-1.4c1.88,1.93-.18,3,0,5.4a2.53,2.53,0,0,0,2.2.6c.58,2.07,3.68,2.56,3.8,4.4.09,1.39-1,.85-1.6,2-.72,1.38-.07,2.27.2,3.81.82.15.67-1.28,1.4-.6.2.6-.45.35-.8.4,1.26.74,2.44,1.57,3.6,2.41-1.12,1.35-3.45,1.48-4.8,2.6-1.34-1.4-2.52,2.86,0,3.8,1-.27,1.27-1.27,1.8-2,2.83-.17,3.63-2.37,6-3-.69-2.71-3.29-3.52-4-6.2,3.2,2,9.32.47,12.61-1,3.77.55,6.38,2.9,9.8,2.6,4.8-.42,7.47-4.86,11.21-6.8v-1c.94,1.42,2.11-.66,2.8-.8.53-.1,1.3.83,2,1a18.21,18.21,0,0,0,3.2.2c4.86,0,10.53-.67,14.2-1,.88.79,3.58-.24,3.4,1.6-.27.33-.89.31-1.2.6-.17.57.28.52.2,1-1.14-.21-1.71,1.18-2.2,2.2h.8c-.36.65-1,.29-1.2-.2-1.06.86-2.46,1.06-3.4,2.4-3.44-1.23-8.33-1-10.81-3.2-.35.05-.45.34-.4.8-2.41-.07-5.24-2-7.2-.6-.06-.9-1,.15-1.6.4v.8a4.42,4.42,0,0,0-1.6,5.2c-1,1.85-.19,4.44,1,6,2.06.09,3,1.36,5.8,1.4.44,0,.43.5.4,1a12.46,12.46,0,0,0,1.4.6c.17.57-.28.52-.2,1,.91.07,1.11.21,1.8-.2,0-1.19-.44-2-1.4-2.2.37-1.63,2.94-1.06,3.4-2.6a47.76,47.76,0,0,0,9.61.6c1,.91,1.57,2.16,2.8,2.8a2.58,2.58,0,0,0,.2,2.2,4.44,4.44,0,0,1,2.4.2c.85-1.53,2-1.55,3.2-2.6.16-.45-1-.71,0-.8a5.76,5.76,0,0,0-2.8-1.2c-.22-1.31-1.49-1.58-2.2-2.4,2.33,0,4.77-.74,5.8-2.6-1.56-1.38-3.69-2.19-4.6-4.2a8.28,8.28,0,0,0,3-.6c-.65-3.66.37-7.78-1.4-10.2-1.31,0-2-.55-3-.8-.23,0-.17.36-.2.6-.54-.12-.31-1-1-1,.19-.48.73-1.66,1.2-1.2-.44-.91-4.24-.9-5.8-1,.4,1.14,1.89,1.19,3.2,1.4.36.51-.22,1,.4,1.4-.77-.15-1.15-.32-1.2.6-.5,0-.63-.31-.8-.6-1.06.33.77.78,0,1.4-.62-.68-.33-.22-.6.2-1.18-.07.1-.6-.4-1-1.12.79-3.26.52-5.2.4.12-2,3.25-1,3.4-3.4-2.69.74-3.67-.41-5.4,0a1,1,0,0,0,1.4.2c-.89,1.64-2.63,2.44-4.2,3.4-.43.09-.38-.29-.4-.6-1,.77-2.36.4-3.6.6.24-1.16,2.49-2,2.8-3.8-.91-.17-1.25.22-1.4.8-.73-.8-1.82,0-2.4-.2-.28,2.52-3,3.2-5.4,3,.54-1.39,2.11-1.75,2.4-3.4.85.08.85,1,1.8,1,.33-.33.81-.52.8-1.2-2.8.26-7.78-.56-9.81-.2-.19.79,1.06.15,1.2.6a12.39,12.39,0,0,1-1.8,3.2,6.2,6.2,0,0,1-3.4-.6c.41-1.26,2.41-2,2.6-2.8-.9-1-2.84.18-4.4-.2-1.06,1.21-2.53,2-3.2,3.6-.72-.5-1.17-.39-1.2-.8-.34-.08-.38.16-.4.4-.24,0-.17-.36-.2-.6-.76.12.22.84-.8.8-.14-.88,1.3-1.9,1.6-3,0-.4-.55-.25-.4-.8-3.52-.22-6.22,1.1-6.4,3.6-.56.08-1.24-.53-.8.2-.18.54-.45-.46-.8-.4-.56,0-.57.64-1,.8-.84-1-2.66,0-3.4-1,.7-1.17,2.23-1.5,2.4-3.2a3.77,3.77,0,0,1-1.6-.2c4.08-.93,9.87-.14,14.61-.4.38,0-.31.75.2,1a1.64,1.64,0,0,1,1.4,0c0-.52-.78-.29-.8-.8,7.69-.39,16.6-.24,23.41,0,.15.82-1.3,0-1,1,.82.06,1.16.7,2,.2.44-.42-.26-.59-.2-1.2,5.18-.22,10-.3,14.61.6.85-2-.66-3.34-1.4-4.4-15.92.33-33.46-.38-49.83.4-5.57.26-11.78.67-17,0-1.39-.18-3.09-1.21-4.8-1.2-3.64,0-7,2-10.21,2C286,250.36,286.88,251.55,287.32,253.18Zm75.24,15.61a53.62,53.62,0,0,1-9.6-.2c-.69,0-1.93,1-2.2-.4a55.16,55.16,0,0,1,5.8-.2C358.65,268,361.31,267.79,362.56,268.79Zm-11,2.6c3.25,1,8.94.19,11.61.4-.5,1.39-2,.59-3,1.4-2.87-1.53-6.71.65-9.81-1-2.12,1-3.47.25-5.2-.6-.77-3.08,1-7.38,3.6-6.6a7.21,7.21,0,0,0-1.4,1.6c.41-.06.53-.4.8-.6-.16.57.28.52.2,1-.76.58-1.37-.32-1.8,0,.17.68,0,.93.2,1.8-1.47.19-.53,2.3.4,2.41,1-.35,2.31-.27,3.4-.6-.33-.4,0-.25,0-.8.24,0,.57,0,.6-.2,2.78.36,6.68-.07,8.6.6.74-.59,3.29-.85,3.4.2C359.75,272.09,355,269.76,351.55,271.39Zm-23.81-11.21c.62-.15.39.55,1,.4,0-.51.37-.7.6-1a2.34,2.34,0,0,0,2.8-.2c.79.06-.15.62.4.8a17.29,17.29,0,0,0,4.2-1.4c.06.61-.22,1.56.4,1.6,1.1-.23,1.26-1.41,2.4-1.6-.27,2.27-2.33,2.74-3.6,4-.78-.16-1.17-.34-1.4.4a1.41,1.41,0,0,0-.4-.6C332.23,263.24,328.81,262.23,327.74,260.18ZM311.93,252c.06-.46-.58-.22-.6-.6,1,.25,2.44-.47,2.6.2C313.24,252.51,312.47,251,311.93,252Zm-.8,8c-.11-1,.78-1,1.2-1.4,2,1.27,5.11,1,8,1-.23,1-2,.4-2,1.6,1.16.11,1.61-.33,2.2,0-.29,1.3-3.8,1-5.8,1.2-.43-.17.08-1.27-.4-1.4s-.73.2-1.2.2C313.59,259.66,311.69,260.48,311.13,260Zm-4.2-6.81c.92-.18,2.12-.58,1.4-1.8.78.22,2.46-.46,2.6.4-.06.34-.62-.18-.8.4.44.58.82.08,1.8.2C311.7,254.37,307.42,255.86,306.93,253.18Zm231.53-3c1.86,1.74,3.3,3.9,5.21,5.61-.38-1.49-1.78-2-2-3.6C540,252.19,540.3,249.37,538.46,250.18Zm-237.93,6c.63,0,.67-.53,1.4-.4,0-.76.36-.91.4-1.2-.22.31-1.84-1.16-.4-1.2.14-.54-.94.14-.8-.4-.33.93-1.77.76-2.8,1C299,254.76,300.22,255,300.52,256.18Zm.4,2.2c.09-1.06-.56-.63-.2-1.6-1.43-.7-2.1-2.17-3.8-2.6C298,255.79,299.08,257.5,300.92,258.38Zm247.74-.2a1.77,1.77,0,0,0-1.8-1.8C547.09,257.35,548.06,257.59,548.66,258.18ZM145.23,281.6c.62,19.48,7.08,36,16.61,47.62,8.17,10,19,18.91,32.42,23.82a65,65,0,0,0,19.81,4c15.91.85,27.19-2.41,37.82-8.2,20.14-11,32.92-28.9,38.82-53.43,1.41-5.85.85-15.49.8-22.21,1.9-.3,2.14,1.06,3,1.8a2.85,2.85,0,0,0-.6-1.4c2-.54,3.19-1.88,4.6-3,1.15-.41.72.75,1.6.6-.18-1.62,1.27-2.34,1.4-4.21-1.2.2-.85,2-1.8,2.4.3-1.94,1-3.75.6-5.8-1-5-6.7-9.24-12-5.2-5.56-18.09-15-30.08-28.42-40A71.23,71.23,0,0,0,206.07,206c-18.55,3.16-32.57,13.34-42.83,25.42A71.93,71.93,0,0,0,150.64,253C147.52,261.19,144.9,271.09,145.23,281.6Zm143.49-21.81c2.38-.72,4.65.23,6.2,1,0,1.77,1.09,2.18.8,4.6-.21.46-1.43-.09-1.6.4h1.2c-1,3.6-3.27,1.63-4.2,0,0,.3-.48.18-.8.2A33.78,33.78,0,0,1,288.72,259.79ZM241.09,349c.6-.14,2.31-1.06,2.2-.6C242.67,348.62,241.73,349.53,241.09,349Zm-89.65-70.64c.15-2.13-.13-4,.2-5.8.42-2.34,1.57-4.58,1.2-7.2a7.68,7.68,0,0,0,1.4-3.8c-.64.17-.76-.18-1-.4-.4,2.06-.88,4.06-2,5.4-.69-2,1.1-4.49.6-6.6a15.8,15.8,0,0,0,1.8-3c.09-.21-.28-.54-.2-.8.38-1.31,2.16-3,1.6-5a8,8,0,0,0,2.8-5.2,9.61,9.61,0,0,0,2.4-4c2-.73,1.93-3,3-4.4.4-.51,1.17-.66,1.6-1.2,1.48-1.84,2.49-4.18,4-5.8.3-.32.88-.5,1.2-.8,2.14-2,3.86-4.43,6-6.4,10.8-7.29,25.3-12.27,41.63-13,16.93-.77,30.54,6.79,41.42,13.41,1.43,1.37,2.36,3.24,4.6,3.8.07.94,1.09,1.07,1.6,1.6a52.16,52.16,0,0,1,3.6,4.61c1.17,1.52,2.71,2.87,3.81,4.4,2.52,3.54,4.92,8.64,6.8,12.4,1.31,2.63,2.09,6.24,3,9.61,1.62,6,3.12,11.3,3.4,17.61.73,16.58-3.07,28.87-10.21,41.63a51.25,51.25,0,0,1-4.2,7c-4.74,6-11.24,13.59-18.61,16.61-1.23.91-3.1,2.23-4.4,2.4,1-1.18,3.25-1.15,3.6-3-.58.05-.69,0-.4-.4-1.7.29-1.28,2.53-4.2,2-.66,1.85-3.57,2.89-5.6,3.8-.47.21-1.55.14-2.2.4a39.09,39.09,0,0,0-6,2.6c-1.56.18-5.24.27-7.4,1-.56-.11-1-.29-1.6-.4-3.54,1.71-6.8.22-10.41.2a21.26,21.26,0,0,1-2.2.2c-2.92-.37-6-1.85-9-1.2-.39-.08-.16-.77-.8-.6-.36.37-1.48,0-1.6.6a27.24,27.24,0,0,0-9.61-4.2c0-.3.07-.74-.2-.8-4.3-1.83-7.41-4.87-11.41-7-2.36-3.27-5.78-6.11-8.2-9.2-1.69-2.16-3.75-4.24-5.21-6.21-.45-.61-.79-2.43-2.2-2,.3-2.48-2-4-2.8-6-.63-.1-.78.44-1.2,0,.53-4.3-3.67-6.68-3.8-11.2-3-3.52-2.64-9.8-4.6-14C151.79,286.06,151.17,282.14,151.44,278.39Zm-1.6,10.21c1.25,1.89.56,4,1,6.4-2.12-3-.77-8.56-2.4-12.81.29-.17.64-.3.6-.8-.19-3.49,1.1-7.42.6-10.4.83-.48.32-1.11.4-2.2.78-.42,0-2.45,1.6-2a111.52,111.52,0,0,0-1.8,13.61c.13.53.57.76.8,1.2-.3,0-.74-.07-.8.2a1.09,1.09,0,0,1,.8.8C149.51,284,150.65,286.51,149.84,288.6ZM552.27,262c-.18-1-1.11-1.29-1.6-2A2.11,2.11,0,0,0,552.27,262Zm-294.17.2a3.3,3.3,0,0,1-.6,2.8c1-.11.38-.78,1.6-.4-1-1.31,1.51-1.52,1.2-3.4C259.39,261.35,259.07,262.09,258.1,262.19Zm46.62,0c0,.33,1,1.13,0,1.2.66.44.82-.4.6-1.2Zm-38.22,4v1.6c1.45-.28,2.13-1.34,3.4-1.8-.77-.8-.32-2.06-1-3.2-.52-.06-.15.77-.8.6C269.81,264.53,267.41,265.36,266.5,266.19ZM394,269.39c0-.5.45-.49.6-.8-.25-.41-.32-1-1-1,0,1,0,2,.8,2.2C394.45,269.45,394.22,269.41,394,269.39Zm-240.54,1.2c.2.41.83,1.18-.2,1.2,0,.17.08.19.2.2s.19.08.2.2c.43-.62,1.3-1.85.4-2.6C153.69,269.77,153.67,270.29,153.44,270.59Zm46.63,6.21c1.06.3,3.1-.3,4.4.2-.06-.61.64-.78.2-1.2C202.68,275.79,200.6,274.51,200.07,276.79Zm46.83,1a1.93,1.93,0,0,0-.6,1.8,3.48,3.48,0,0,0,3-1.6c.54-.14.39.41.6.6.59,0,.25-.94.6-1.2.51,0,1,0,1,.6,1.63-.5,3.42-.85,4.6-1.8.44-.24-1.83-.05-2,.4a8.4,8.4,0,0,1-1-.8,3.21,3.21,0,0,1-2.21.4c-.14,1.06-1.94.46-2,1.6-.72-.07-.73-.54-1.4-.2-.49.47.3.37.2,1C247.08,278.67,247.35,277.87,246.89,277.79Zm56.43,1c1.63,1.15,3.81.64,5.6.4.3-1.07-.68-1.68-.6-2.4-.23,0-.35,0-.4-.2a1.35,1.35,0,0,0-1.2,1.6,9.77,9.77,0,0,0-4-.6c-.08.67.87.33,1.2.6-.53.43-.91.27-1.6.2,0,.23,0,.36-.2.4.05.76,1.06.42,1.2.6C303.62,279.31,303.25,279.14,303.32,278.79ZM278.71,300.2c1.26.13,1-1.31,1-2.4,1.28-2,2.13-6.5,1.2-8.4.23-.53.17-.62.8-.4-.17-3,.17-3.88.2-6.4-1.1.48-.72,3-.4,3.8-1.25,1.24-.57,3.5-1,5.6C279.89,295,278.71,298.08,278.71,300.2Zm223.12-3.4c-.13-2.67-.73-4.87-2.2-6.2,1.43,5.53,2.18,9.92,5,14C503.78,301.5,503.37,298.78,501.83,296.8ZM261.1,327.22c-.59.17.47.3.2.8,3.13-1.41,3.78-5.3,6.8-6.8,1.66-3.41,4.5-5.64,5.2-10,1.56-1.31,1.43-4.3,2.6-6-.68-1.16,1.45-1.9.6-3.2a42.51,42.51,0,0,0,2.2-7c.2-.91.53-2.53-.4-3.2-1,.25-.22,1.48,0,2.2-1,.24-.53,1.87-1.4,2.2a1.13,1.13,0,0,0,.6,1.2,3.33,3.33,0,0,0-1,4c-.5.67-2.23,3-1,3.4,0,.37-.68.12-.8.4-1,2.23-1,4.85-2.2,7-1,1.83-2.78,3.36-4,5.2-.57.86-.85,2.11-1.4,3a15.79,15.79,0,0,0-1.4,2c-.18.35-.7.37-1,.6,0,.36-.24.42-.2.8a4.84,4.84,0,0,0-2,2.2c-.64.12-.62-.37-1,0C261.56,326.51,261.28,327.64,261.1,327.22ZM363,295.6a1.13,1.13,0,0,1-.8.2c.13-.21.46-.21.4-.6-.66.2-.65-.28-.6-.8-1.42-.24-1.45-1.89-2.2-2.8-.61.14-.73-.2-1.2-.2-.36,1-.61,1.81,1,2.4.91,1.76,1.54,3.8,3.4,4.6a1,1,0,0,1,.6-.2A3.66,3.66,0,0,0,363,295.6ZM223.68,327.82c.1,2.23-.73,5.86,1.8,6.21,1.19-1.43.48-3.46.4-5.21-.33-7.14-.48-18.75-.8-26-.07-1.45-.51-3.65-.2-4.8s1.11-1,1.2-1.8c.21-.67-1-1.6-.6-1.2-.79-.42-2.24.79-3,1.6C222.71,306.49,223.26,318.35,223.68,327.82Zm191.51-26.21a7.56,7.56,0,0,1-.4-3.8C412,296.37,412.39,302.6,415.19,301.61Zm9.61-2.2c-.06.3-.27.36-.6.8,0,.9.7,1.17,1,1.8C426.17,301.54,425.35,299.66,424.79,299.41Zm-7.2.4c.41,1.12.72,2.35,1.8,2.8-.08-1.26-.64-2-.8-3.2-.35,0-.52.34-.6,0C417.57,299.66,418.72,300.18,417.59,299.81Zm81.44,5.8a23.81,23.81,0,0,0,3.2,5.4v1c1.14,1.73,2.58,3.16,3.4,5.21,1.37.23,1,2.16,2.8,2-.3-.63-.49-1.38-1.6-1.2v-1.4C503.49,313.69,502.54,308.37,499,305.61ZM302.92,309c1,2.34,4,2.67,5.6,4.4a19,19,0,0,1,4,1.2,57,57,0,0,0,6,2.2c.62.2,1.19-.14,1.8,0,.32.07,1.61.54,2.6.8a18.88,18.88,0,0,0,6.8.8c-2.81-1.35-6.33-1.06-8.8-1.6-1-1-2.1-1-3.81-1.4s-3.45-2.3-5.8-1.6C308.61,312.13,305.68,310.66,302.92,309Zm67.24,2.8c-3.1.48-6,2.67-8.81,4-.23,0-.11.2,0,.2-.05.22-.4.14-.4.4-.6-.64-2.18.19-3.6.8-.62.27-1.87-.1-1.4,1,3.45-.23,6.77-2.3,10-3.4C366.71,313.17,369.79,313.84,370.16,311.81Zm163.29,20.81c2.45,1.61,6.46,2.63,8.61,3.2-.12-1.63-2.24-.54-2.8-2-3.38.05-5.92-2.66-8.61-3.2-.3-.09.08-.25,0-.6-2.7-.38-3.69-2.45-6.4-2.8a5.4,5.4,0,0,1-.8-1.6c-2.17-.46-3.69-3.37-4.8-3.6-.37-1.67-3.26-2.44-4-4.4h-.8c-1.72-1.81-2.34-4.74-5-5.61a26.59,26.59,0,0,0,6,7,6.25,6.25,0,0,0,3.6,4c3.67,4.33,9.08,6.93,14.21,9.8C533.07,332.91,533.18,332.69,533.45,332.63ZM341.95,319a14.71,14.71,0,0,1,2.4-.6,16,16,0,0,0,5.6-.8c-.65-1.2-2.75-.1-4.2,0-.6,0-1.27-.1-1.8,0s-1.11.71-1.6.8-1.76-.35-2.4-.2a2.53,2.53,0,0,0-1.2.6c-2.33-.42-4.41-.39-7.4-.8-.1.08-.3,1-.4.4-.3.09.08.26,0,.6a7.61,7.61,0,0,0,2.2-.2A29.72,29.72,0,0,0,341.95,319Zm169.7,4.8c1.34,2.07,3.37,3.44,5,5.2.64.18.27-.66.8-.6.42.39-.3.94,0,1.4,1.68.12,1.9,1.7,3.4,2-1.47-1.6-3-4.18-5-4.6-.26-.45-1-1.72-2.2-1.8C513,324.84,513.11,323.55,511.64,323.82Zm26.61,16c1.34,1.49,4.6,2,6.61,2.2.23,0,.17.37.2.6,1.82.79,4.08.42,6.2,1,2.7.74,9.79,2.09,12.21,0a5.74,5.74,0,0,1-2.2-.2c-.15.38-.59.14-.2.6a5.26,5.26,0,0,1-1.6-.6c-2.37,1.13-4,.12-6.2-.4-.67-.16-1.56,0-2.2-.2-.32-.1-.85-.59-1-.6-1.06-.09-2,.79-3.2.4-.89-.3-1.7-1.14-2.6-1.4-1.09-.32-2.14.16-3-.8a1.41,1.41,0,0,0-.4.6c-.45-.55-.77-.63-.8-1.2C539.07,339.85,539.08,339.63,538.25,339.83ZM418.79,9c.59-.41-.27-1-.4-1.4-.72.07-1.34,1.72-.6,2C418.32,9.76,418.39,8.4,418.79,9Zm-1.4,2.2a45.43,45.43,0,0,0,8,2c-1.88-2.16-5.68-1.62-7.8-3.2C417.73,10.66,417.24,10.63,417.39,11.24ZM307.73,82.48c.78,1.15,3.74-.27,4.8-.8,1.32.83,3,0,4-.4.57.25-.87.58-.2,1a14.3,14.3,0,0,1,4.8-1c.08-.48-.36-.44-.2-1a69.12,69.12,0,0,0-9.41.8v.6C309.69,81.38,309.17,82.39,307.73,82.48Zm-14.41,90.05c.7,6.61,1.82,14.9,3,21,.39.34,1,.47,1.2,1-.5-6-2-14-2.8-19.21,0-.94-.29.22-.8,0,.2-.86,1.15-.66.6-1.8-.32.08-.17.63-.8.4-.2-.94.8-.67.6-1.6C293.75,172.17,293.8,172.62,293.32,172.53Zm18.81,24.22c5.51-1.23,10.73-2.86,14.81-3.8-.76-1.82-2.83-.27-4,0a48,48,0,0,0-5.4,1c-.6.21-1,.77-1.6,1C314.54,195.48,312.48,195.33,312.13,196.75Zm42.23-1c3.2.53,5.77,2.56,8.4,3-.65-1.76-2.67-2.14-4.6-2.6C357.43,195.69,354.52,193.62,354.35,195.75Zm-56.83-1a1,1,0,0,1-.6.2c.88,6.25,3.08,11.19,5.2,16.21.5.27.63-.79.8-.2-.23-2.51-2.2-5-2.6-8-1.43-.07-.79-1.33-.6-2.2C298.54,199.19,298.76,196.24,297.52,194.75Zm5.21,11.41c.92-.46.18-2.06-.6-2.2.15-1.63-.43-5.31-1.8-6.21-.07-4.46-1.42-9.17-2-14-2.23-18.56-4.31-39.52-5.4-58.84.17-.37.74.64,1-.2-.05-1.24-.94,0-1.2-.4a12.9,12.9,0,0,1,.2-3.8c.82.51-.31,1.71.6,2.6.88-1.5.35-3.95.6-6.4-1-.12-1.21.52-2.2.4,0,2.46.53,4.29-.6,7,1,15.63,2.31,30.85,4,45.42.84,7.25,1.5,14.35,2.6,19.22,0,.05.17,1.08.8,1-.26.75-.7,2.78.4,3.21-.17.43-.52.68-.4,1.4,1.6,2.84,1.13,6.65,3.2,9.4C301.74,204.61,301.72,205.95,302.72,206.15Zm5,10.61c-.06-.32.19-.35.2-.6-1.39-2.08-2.05-5.31-3.4-7.6-.32.09-.17.63-.8.4a9.33,9.33,0,0,0,1,3.4h1c.29.76-.55.38-.4,1a1.12,1.12,0,0,0,.8.2C306.21,215.08,306.36,216.53,307.73,216.76Zm13.61-3.8a1,1,0,0,1-.2-.6h.6c.49,0,0,.66-.2.6,1.23.2,3.39,1.5,4,1,.26.67.83,1,1.2,1.6-.54.51.44,1.37-.4,1.4a2.82,2.82,0,0,1,.4,2,5.63,5.63,0,0,0,3,1.2,23.38,23.38,0,0,1,.6-3c-.59-.05-1.06-.77-1.2-2.2-.4-.33-.26,0-.8,0s.19-.43.2-.4c-.13-.34-3.34-2.72-5-2.6-2.1-2.36-5.3-.4-8.61-1.4-.18,1.92,3,3.54,3.4,1.4.47.07.94.13.8.8A2.71,2.71,0,0,1,321.33,213Zm228.13-1.8c-1.5.1-3.19,0-3.8,1C546.25,212.7,549.63,212.69,549.46,211.15Zm13.21,3.2a4.29,4.29,0,0,0,.4-1.2c-2.26,0-6.17-.69-7.4.6-8.53-.62-18.61,2.4-25.41,5.6.05,1,1-.24,1.2.6.34-.4.61-.85,1.19-1,.71-.35.5.13,1.21.2a27.16,27.16,0,0,1,10.2-3.2c.34-.19.44-.63.6-1,.58,0,.35.85,1,.8,3.26-1.37,7.25-.45,9.61-1.8C557.13,214.42,560.3,213.9,562.67,214.36Zm-408,52c-.66.92-1.51,2.63-.4,3.2,1.42-1.45.64-5.11,2.2-6.4-.75-.91.65-2.11-.2-2.6,1.9-3.41,2.72-6.73,4.4-10.2,0-.35.35-.46.8-.4,3.33-8.27,9.24-14,15-19.81.08-.34-.16-.38-.4-.4.35-.31,1.07-.27,1.6-.4,5.69-6.27,15.92-8.55,24.21-11.61v-.6c-5.73.34-11.46,3.56-17.81,5.4-2.52,2.62-6.42,3.86-8.41,7-.63-.09-.78.28-1.2.4-3.6,4.54-7.33,8.94-10.61,13.81a.87.87,0,0,1-.8.4c.16.82-.86,1.46-.6,2.2-2.2,1.81-2.91,6.46-5,9-.16,1.08-.81,2.58-1,4.2-.1.5-.49.71-.8,1C155.91,263,154.47,264.2,154.64,266.39Zm432-44.62c6.24.64,10.19,5.28,15.21,7.8-1.48-3-5.13-3.94-7.4-6.2-.29-.22-.49-.22-.6.2-3-2.43-7.07-3.42-11.41-4-1.39-1.22-5.19-3-6.41-1,3-.21,6,2.76,8.81,2C585.45,221,586.16,221.28,586.68,221.76ZM251.89,232.37c-4-3.52-9.36-5.72-14.2-8.41-.72-.31-.12.68-.6.6-.16,0-.2-.2-.4-.2.13-.2.47-.21.4-.6h-1c.32.76.32.23,0,1,.83.44,2.1.43,2.4,1.4,2.58-.42,3.88,2.75,6.6,2.2a.89.89,0,0,1,.4.8C247.41,229.09,248.82,231.95,251.89,232.37Zm64.24-6.61c-.42.25-.78.55-1.2.8a43.35,43.35,0,0,0,8.61,2.8c-.69-1.25-3.34-1.39-5.2-2.2-.68-.29-1-1-1.8-.8C316.46,226.1,316.18,226.05,316.13,225.76Zm41,5a200.23,200.23,0,0,1-31.42-3.2c-.75.21-.32-.75-1-.6-.08.48.36.44.2,1,9.26,2,15.28,3.25,23.81,2.8C351.48,231.15,355.49,232,357.15,230.77Zm-84,20.21c.27-1.15-1.25-2.21-1.41-3.6-1.2-.06-.94-1.59-1.4-2.4-2.5-1.19-3.06-4.58-6-5.8-.11-1.09-1.24-1.16-1.4-2.2-.83.06-.78-.26-1.4,0a8.86,8.86,0,0,0,4.6,4.4c.69,2,2.44,3,3.6,4.6.1,2.61,2.22,2.7,2.4,4.8C272.4,250.89,273.14,250.55,273.11,251Zm-50.83,0c.56-1.65-.27-5,0-6.8a13.26,13.26,0,0,0,1.4-6.4c-.41.19-1.33-.15-1.8.4.5,1-.82,1.89.2,2.6,0,.23-.36.17-.6.2-.17,2.82.09,5.53-.4,7.2,0,.23.36.17.6.2-.75.7-.07,2.59-.8,3.21C221.48,252.51,222.16,251.33,222.28,251Zm183.1.8c.7-3.88,1.51-7.8,0-11.81-.23,0-.36,0-.4.2-1.77,2.29,0,7.83-1.8,10.4C403.83,251.18,404.29,252.16,405.38,251.78ZM383,241c-1.63-.2-3.53-.79-5,0,.32,1.73,3.9-.59,4.4,1.2C382.62,241.83,383,241.65,383,241Zm-25.41,2.6c.24-.15.17-.6.4-.8.64-.57,1.72-.1,1.2-1-.66-.41-2-.11-3-.2-1.18,1.75-4.3,1.56-5.2,3.6-.45-.45-1,0-1.4.2a11,11,0,0,0,4.4.2c.58-.14,1.43-1.49,2.6-2C357,243.39,357.19,243.8,357.55,243.57Zm-17,.4c-.38-.31.29-.78-.2-1.2a2.69,2.69,0,0,0-2,.6c-.35,0-.46-.34-.4-.8a4.1,4.1,0,0,0-3,0c-3.93-1.51-6.59,1.29-9,3,1,.76,3.75.09,5.2,0,0-.19-.24-.15-.4-.2,0-.22.4-.14.4-.4.69.9.83.24,2.2,0,.17-.71-.58-1.2.2-1.4.47.3.3.49.2,1,3.17-.37,4.71,1.57,8.61,1.2-.06-.74-.88-.72-.6-1.8C341.12,244.08,341,243.54,340.55,244Zm-80.65,9.2c1.63-2.88,2.44-4.59,0-6.4-2.1,1.24-4.13,6.15-5.2,9-.39,1-1.53,1.76-.6,2.6-.21.57-.8.25-.4,1,.16,0,.2.2.4.2C257,258.9,258.37,255.9,259.9,253.18Zm-6,19.61a32.21,32.21,0,0,0,9.81-1.2c1.44-4,3.76-8.23,4-12.81a3.91,3.91,0,0,0-2.4,0c-1.43,3.84-2.92,7.62-4.4,11.41-2.29-.11-5.25.45-6-1.2,1-.29,3.55-.05,4.6-1.2-.83,0-.61-.66-1.4-.2-.54-1.14.87-1.48.2-2.4-1.86.2-1.57,2.56-3.2,3,.21-1.29,1.19-2.76,1-3.8-1.19.66-1.86,1.54-3,1.8.09.88.76,0,1.2.4,0,.54-.33.4,0,.8-1,.31-.75-.58-1.4-.6-.28.75-1.07.56-1.8,1.2.12.49.34,1.7-.6,2,.41.39.31,1.29.6,1.8C252.13,272,253.35,272.06,253.89,272.79Zm243.34-4c-2,2.89-1.26,8-.8,12-.23.3-.25.82-.6,1,0,3.06,1.11,5.75,1.6,8.4.32,1.73,0,3.37.4,4.8s1.24,2.42,1.6,3.8a28.73,28.73,0,0,0,1.6,4.4,17.62,17.62,0,0,1,1.81,4.4c1,.17,1.1,1.16,1.2,2.2.54.12.5.83,1.2.8a43.44,43.44,0,0,0,14.61,16.81c.18.42.61.59.6,1.2,4.09,2.52,7.89,5.32,13,6.8,1.31,1.29,3.46,1.39,5.21,1.8-.75-2.21-5.48-1.22-6.81-3.4-3.12-.15-3.53-3-6.8-3-.66-.29-1.13-1.57-2-1-.79-2.08-3.6-2.14-4.2-4.4-3.12-1.42-4.93-4.14-6.8-6.8-.74.07-.52-.81-1.4-.6,0-.59-.07-1.13-.8-1a10.1,10.1,0,0,0-3-4.4,14.48,14.48,0,0,0-3.4-5.8c.43-1.34-1.24-2.2-1.2-3.8-.53-.27-.67-.93-1.4-1,.08-.39.77-.16.6-.8C497.17,292.33,496.56,280.09,497.24,268.79ZM233.68,271c-2.41-.47-3.78-1.49-5.6-.4,2,1.13,2.09,5,5.2,3.8.5.63.56,1.71,1.4,2-.73,1.13-2.71.7-3,1.8h3.4v.6c-.65.35-1.74.26-1.6,1.4h2c-.21.75.5.57.4,1.2-.61.08-.34-.73-.8-.8-1.49.37-2.42,1.32-3.6,2-.21,1.69.48,2.39,1.8,2.4a9.85,9.85,0,0,0,2.2-.8c1.9-1.17,3.12-3.83,3.2-6.4-.58.05-.69-.38-1-.6-.11-.44.38-.29.4-.6,0-1-.59.54-1-.2s-.27-1.3-.2-2.2c-.84-.18-.59-1-1.6-.6,1.49-.53-.49-2.8-1.4-1.6C233.26,271.85,233.62,271.46,233.68,271Zm320.38,1.6c-1.71,4.36-1,12.14,6.2,11.81.06-.24,1.06-.51.4-.8,4.13-.26,5.85-5.35,4.41-8.8-.57-.17-.52.28-1,.2.86-.94-.43-1.61-.2-2.6-2-1.44-3.74-2.62-6-2.6C556.75,270.87,555.83,272.15,554.06,272.59Zm3,5.6c1.87.79,4.85.28,4.41-1.8-1.45-.42-.79-2.94-2.4-3.2-.41.52-1.53.33-2,.8-.47-4.33,7.33-2.19,6.81,1.2.39-.06.39.27.6.4a24.92,24.92,0,0,1-2.4,4.8c-1.33.22-3.58-.08-4.4.2-.29-.73-1-.59-1.2-1C556,279.28,556.84,278.51,557.07,278.19Zm1-3c0,.57,0,1.1-.6,1v-1Zm-2.4,1.2c.64-.08,1.14.85.4,1C556,277,555.5,277,555.67,276.39Zm-256.35,2.4a9.13,9.13,0,0,0,2.6.4c-.44-.59.23-1.39,0-2.4-1.63.74-2.91-.07-3.6,1.2C299,277.91,299.46,278.06,299.32,278.79ZM201.66,280a3.63,3.63,0,0,0-5-2c.17.56-.28.52-.2,1C198.29,279.75,199.53,281,201.66,280Zm11,6.8c1.76.37,2.71,1.56,3.8,2.6,4.24.29,5.35-2.32,7.4-4.6.22-3,1.25-9.4-2.8-9.81a.88.88,0,0,1-.4-.8c-2.08.2-2.42-.65-3.8-.4v1c-.65.32-.77,0-1.6,0-.09.38-.43.5-.4,1-.5.26-.63-.79-.8-.2C210.32,277.62,211.84,283.65,212.67,286.8Zm2-6.8c.59.38,1-.23,1.6-.2-.22-1.2,1.48-2.1,2-3.2,2.21-.23,2.58,1.4,2,2.6.26.41,1.06.28,1.2.8-.44.42-1,.78-1.4,1.2.16.51,1.22.11,1.2.8-.32.71-1.58-.12-2,.8.34.33.81.52.8,1.2-.61.53-1.6-.24-2,.2.08.92,1.35.65,1.8,1.2,0,1.26-1.95,1.46-2.81,1.2-.31-.71.68-.13.6-.6-1.18-1.4-2.52-2.6-2-4.8C215.16,281.1,214.38,280.23,214.67,280Zm-62.44,1.4c0,.84.56,1.55.6,2.4,0,.64-.66,4.31.6,5.61-.17.81-.44,4.19.6,5.4.21,2.79,1.84,6.55,3,9.21s1.77,6.27,4.2,8v1.2c.56.64,1.33,1.07,1.2,2.4,2.7,2.82,4,6.58,7,9.41,2,3.9,5.52,6.22,8,9.61,4.55,4.33,10.14,7.61,15.61,11,.74-.14.86.34,1.6.2,3.07,2.65,8.6,3.09,12.81,3.6.46-.59-1.09-1.29-1.4-.6a119.62,119.62,0,0,1-11.41-3.8c-3.19-2.48-7.13-4-10.41-6.61-1.46-1.15-2.57-2.61-4.6-3.4-3.6-3.4-6.62-7.39-10-11v-1c-4.72-4.28-7.85-10.16-10.2-16.81-1.2-1.13-2.4-2.28-2.4-4.6,0-.76-.63-1-.8-1.6-.43-5.24-3.12-10.34-2.4-16-.8-.2-.24-1.76-1-2a33.82,33.82,0,0,0,1-9.6c-.32-.06-.34.19-.6.2-1,1.05-.16,2.22-.2,3.4C153,277.89,152.26,279.6,152.24,281.39Zm51.83,4.6c-.64-1.88.15-6.32-3-5a1.82,1.82,0,0,0,1.4,2C202.88,284.52,202.64,285.49,204.07,286Zm292.57,11.81c.35-2-1-4.52-1.4-6.8-.46-2.75-.12-5.39-1-7.8h-.8c-.14,3.19.79,6,.8,9.2,2.06,4.25,2,9.4,4.8,12.81a1.77,1.77,0,0,0,1.2-1.4h-1c-.35-.78-.47-1.8-1.4-2C497.78,300.15,497.89,298.63,496.63,297.81ZM277.11,259.58c-.14-.61.21-.73.2-1.2-2.05-2.1-1.6-5.7-4.4-6.8a70.4,70.4,0,0,0,3,7c.23,0,.17-.37.2-.6.78.23.54.86,0,1.2,1.84,3.23,1,7.44,2.4,10.81.11.26.53.26.6.6.26,1.27-.13,2.88,0,4.21.25,2.48,1,5.2-.2,7.6a12.17,12.17,0,0,1,.4,1.4c-.57.6-.35-.5-1-.4a45.77,45.77,0,0,0-.4-10.6c-2.22,1.57.32,5.68-1,8,1.09,1.51-.26,3.09.4,4.6,1,0,.78-1.09,1.6-1.2.9,2.65-1.09,4.89,0,7.61,3.2-10,1.47-20.59-.8-30.82C277.64,260.65,277.54,260,277.11,259.58Zm94.26,41.63c.5.19-.28.77,0,1.4.45-.15.6-.6.8-1a12.93,12.93,0,0,0,8.6-6c-2.12-.29-3.55,2.6-5.6,3.6,0,.4.55.25.4.8-.64.31-.88.07-1.6,0-.16.84-.94,1.07-1.8,1.2.71-3,4.79-3.6,5.2-6.21-2.28,1.13-3.65,3.15-6,4.2-1.85,2.49-5.82,2.85-7.81,5.2-1.51.38-3.63,1.14-3.8,2.2,1.49-.21,4.12-2.5,5.8-1.8C366.71,302.82,369.33,302.32,371.36,301.21Zm54.83-1.4V301c.8.14,1.24.63,2,.8-.14-.87.34-1.13.2-2A2,2,0,0,0,426.19,299.81ZM401.38,302c-1.25,0-1.6-.8-2.8-.8-.11.91.4,1.2.6,1.8C399.48,302.24,401.36,303.06,401.38,302Zm-109.46-.4c-.52,2.95-3,5.11-2,8.2.42,1.3,2.88,3,4.8,4.4s3.47,3,5,4c5.48,3.47,15.61,7.22,23.41,9,4.39,1,11.77,1,17,.6,10.32-.74,19-4.05,27.22-7.8a65.62,65.62,0,0,0,15.81-10.61c2.18-1.95,6.3-3.9,3.2-6.6-4.37,2.36-8.29,6.75-13.41,9-.41.26-.48.86-.8,1.2-5.64,1.64-11.14,5.06-17,7.2-10.39,3.81-27.52,3-38.43-.2-6.74-2.26-13.05-5-18.21-8.81,1-.09,3.08,1.75,4.4.8-2.66-1.68-4.55-4.36-8.6-3.6.08-.76,1.32.25,1.6-.6.08-1.08-.62-1.76-1.6-1.2.48-1-1.33-.78-1-2.2-.44-.59-1.09-.51-1.6-.6.12-.62.73-.74,1.2-1,1.39,1,2.24,2.57,4.2,3,.49.74,2.63,2.84,3.81,2.2-.07-1-2.07-1.64-3-2.4-1.87-1.53-3.36-3.44-5.6-4.6.14-.85,1.1-.89.8-2.2-.32,0-.77.1-.8-.2-.48.17-.55,1.14-.6,1.8C291.69,300.7,292,301.31,291.92,301.61Zm4,8c0-.69,1.07-.4,1.2-1-.05.61.64.78.2,1.2C296.63,310,296.55,309.51,295.92,309.61Zm9.4-1.6c-2.49-3.25-7.27-4.2-9.6-7.6a1.12,1.12,0,0,1-.8.2C297.57,303.89,301.25,306.16,305.32,308ZM155.44,288.2c.08.4-.07.42-.4.4,1.39,5.19,1.57,8.29,3.4,13h.8c-.55,1.09.55,1.7.2,3.2,2.45,3.81,3.79,8.74,7.2,11.6-1.36-4.69-5.66-9.07-6.4-14.41-2.55-2.15-2-6.37-3-9.8-.72-2.51-1.85-5-1.2-7.61-.89-.56-.24-2.62-.8-3C154.43,282.88,155.26,287.28,155.44,288.2ZM372.36,311a3.52,3.52,0,0,0,2.6-2c-.47.24-.9.89-1.2.2-1.23-.06-.06,1.11-1.6.8C372.24,310.7,372.7,310.27,372.36,311Zm-57.23,2.2v-.4c5.54,1.91,11,3.95,17.21,3.4a4,4,0,0,0,3,.4c-2.72-1.46-5.91-.82-9.6-1.41-3.06-1.85-8-1-10.2-3.4-1,.64-1.5-.75-2,.2-.67-.18,0-.45-.4-.8-.77.28-1.46-.52-1.8,0-1.42-1.48-4.22-2.32-5.6-3.2a.55.55,0,0,0-.4.6C308.29,310.44,311.83,311.71,315.13,313.21Zm35.62,4.4c2.64-.76,5.5-1.3,7.8-2.4-1.83-1.12-3.64.77-5.6.4.65.82-1.22-.14-1.2,1.4-.47-.29-.37-.42-1-.2Zm-181.9,1.6c.22-.89-.34-1-.4-1.6-.66.06-.8-.55-1.4-1-.23,0-.36,0-.4.2.11,1.09,1.13,1.27,1,2.6.5,0,.62.31,1,.4v1a44.56,44.56,0,0,1,5.8,7.2c.4.33.26,0,.8,0,.26.61.74,1,.8,1.8,6.28,5.46,12.54,12,21.41,14.21a8.77,8.77,0,0,0,5.61,2c1.32.88,2.68.51,4.2,1.2.76-2.42-3.14-1.39-4.2-2.6a5.43,5.43,0,0,1-3.2-.4c-.3-.14-.5-.68-.8-.8-.77-.3-1.92-.21-2.8-.6-.71-.31-1-.94-1.8-1.4-1.47-.89-3.37-1.38-4.2-2-.25-.18-.34-.82-.6-1a39,39,0,0,0-3.8-1.8c-.51-.16-.51-.82-.8-1.2C178.41,331.26,174.34,324.53,168.85,319.22Zm95.26.4c-1.08,3.06-4,4.24-5.21,7.2,2.52-2,5.81-4.32,6.4-7.6C264.55,319,264.73,319.71,264.1,319.62Zm3.8,3.8c1.2-.87,1.8-2.34,2.6-3.6C269.17,319.75,268.24,321.82,267.9,323.42Zm284.36,14.41c-.11-.77-1.3-.68-1.6-.2-2.1-.25-5.9-3.16-7.61-1.2C546.31,337.37,549.26,338.65,552.27,337.83Z"/></g></g></svg>