<?xml version="1.0" encoding="utf-8"?>
<!-- Generator: Adobe Illustrator 21.1.0, SVG Export Plug-In . SVG Version: 6.00 Build 0)  -->
<svg version="1.1" id="Layer_1" xmlns="http://www.w3.org/2000/svg" xmlns:xlink="http://www.w3.org/1999/xlink" x="0px" y="0px"
	 viewBox="0 0 600 600" style="enable-background:new 0 0 600 600;" xml:space="preserve">
<style type="text/css">
	.st0{fill-rule:evenodd;clip-rule:evenodd;fill:#ECE3C3;}
</style>
<g>
	<path class="st0" d="M484.1,61.9c-2.1-0.8-4.8-1.8-7.2-3.2c-3.4-2-6-5.5-9.4-7.5c-3.7-2.2-8-3.8-12-6.2c-4.1-2.3-8.8-4.4-13.4-6.7
		c-2.4-1.2-4.2-2.9-6.7-4.3c-4.1-2.4-9.8-3.3-15.2-4.8c-4.5-1.3-9.1-3.5-13.9-5.4c-4.5-1.7-10.6-4-15.5-5.3c-4-1.1-8-1.1-12-1.9
		c-1.8-0.3-3.1-1.4-4.8-1.9c-1.6-0.4-3.5-0.1-5.1-0.5c-1.7-0.5-3.1-1.9-5.1-2.1c-2.6-0.2-5-0.2-7.5-0.8c-2.2-0.5-4.4-1.3-6.7-1.6
		c-2.6-0.3-5.3,0-8-0.3c-1.8-0.2-3.4-1.1-5.1-1.3c-2.6-0.4-5.2,0.1-8,0c-4-0.1-8.1-1.3-12-1.3c-1.2,0-2.5,0.5-4,0.5
		c-3.2,0.1-6.8-0.8-9.6-0.8c-1.4,0-3.1,0.7-4.5,0.8c-8.8,0.4-17.8,0.4-26.7,1.3c-2.7,0.3-5.3,1.4-8,1.6c-3.7,0.3-7.4,0.3-11,0.8
		c-1.7,0.2-4.1,1.5-5.9,1.9c-1.9,0.4-4.2-0.1-6.4,0.5c-1.4,0.4-2.6,1.4-4,1.9c-8.3,2.5-17.5,4.4-26.2,7c-2.1,0.6-4.3,1.7-6.4,2.4
		c-2.3,0.8-4.8,1.1-7,1.9c-1.5,0.5-2.6,1.8-4,2.4c-1.1,0.5-2.4,0.6-3.5,1.1c-1.9,0.8-4.1,1.6-6.4,2.7c-1,0.5-1.7,1.5-2.7,1.9
		c-0.9,0.4-2.1,0.2-2.9,0.5c-3.9,1.6-8.7,5.7-12.8,7.5c-2.8,1.2-8.1,2.9-10.4,4.3c-1.7,1-4.1,2.9-5.6,4c-2,1.4-4.2,2.1-6.2,3.2
		c-0.6,0.3-6.9,6.4-8.6,3.7c-1.2-2,2.1-3.4,3.7-4.3c8.4-4.3,16-9,24.3-13.4c1.3-0.7,2.7-1.2,4-1.9c1.4-0.8,2.8-0.9,4.3-1.6
		c2.4-1.1,4.6-3.7,6.7-4.5c1.5-0.6,3.3-0.7,4.8-1.3c3.2-1.2,6.1-3.4,9.4-4.5c1.3-0.5,2.9-0.3,4.3-0.8c1.3-0.5,2.5-1.7,3.7-2.1
		c1.2-0.4,2.6-0.4,3.7-0.8c3.3-1.1,6.7-2.4,10.4-3.7c1.7-0.6,3.4-1.7,5.1-2.1c1.3-0.4,2.7-0.2,4-0.5c2.8-0.7,5.2-2.2,8-2.9
		c3.3-0.8,7.2-0.8,10.7-1.6c3.2-0.8,6.3-2.1,9.4-2.7c3.4-0.6,6.9-1.2,10.4-1.6c3.3-0.4,6.6-1.2,9.9-1.6c7.4-0.9,15.7,0.2,23.8-1.3
		c5-1,15.1,0.1,20.1,0.5c2.8,0.3,5.7-0.3,8.3,0c1.2,0.1,2.3,0.7,3.5,0.8c2.7,0.2,5.3-0.5,7.8,0c1.1,0.2,2.3,1.2,3.5,1.3
		c1.2,0.1,2.5-0.6,3.7-0.5c1.7,0.1,3.2,1.1,4.8,1.3c2.5,0.3,5.1-0.1,7.5,0.3c2.1,0.3,3.8,1.2,5.9,1.6c1.5,0.3,3,0.1,4.5,0.5
		c4,1.1,7.9,3.2,11.8,3.7c1.5,0.2,3-0.2,4.5,0c3.6,0.4,7.6,1.8,11.2,2.7c7.1,1.8,13.7,4.4,20.3,7c3.2,1.2,7.2,3,10.2,3.5
		c1.2,0.2,2.4-0.2,3.5,0c1.1,0.2,2.2,1.1,3.5,1.6c1.3,0.5,2.9,0.6,4,1.1c1.2,0.6,2,2,3.2,2.7c1.1,0.6,2.6,0.7,3.7,1.3
		c2,1.1,3.6,2.8,5.3,3.5c1.2,0.5,2.7,0.4,3.7,0.8c1.5,0.6,2.6,2.3,4.3,3.2c4.6,2.7,9.6,5.5,13.9,8.3
		C473.3,53.7,480.1,56.7,484.1,61.9z"/>
	<path class="st0" d="M261.6,40.2c0.4-0.8,1.3,0.1,1.6,0.3C262.8,41.3,261.9,40.4,261.6,40.2z"/>
	<path class="st0" d="M382.8,49.6c0.7,0,1,0.4,1.1,1.1C383.2,50.6,382.8,50.3,382.8,49.6z"/>
	<path class="st0" d="M315.6,83.5c-3.8,1.7-9.9,0.8-14.4,1.1c-0.2-0.7-1.8-1.4-1.9-2.4c-0.2-1.4,1.1-1.8,1.9-3.5
		c0.7-1.6,1.4-5,1.3-7c-0.2-4.1-2.7-11,0.5-15c2.1,0.4,1.2,3.1,1.3,4.8c0.3,3,1.4,7.2,1.3,10.7c-0.1,2.5-1.9,4.8-0.8,7.2
		c2,1.4,6.8,0.8,8.6-0.5c0.8-2-1.2-4.7-1.3-8c-0.1-2.7,0.4-6.7,0.3-9.6c-0.2-3.8,0.1-7.3,2.9-4c0.7,6-0.8,11.4-0.3,16.3
		c0.2,1.6,1.7,2.9,1.9,4.3C317.3,80.2,316.3,82,315.6,83.5z"/>
	<path class="st0" d="M126.8,61.1c3.1,1.6-2.7,4.4-4,5.6c-6.2,5.8-12.8,12.5-19.5,17.4c-4,4.5-7.6,9.2-11.5,13.4
		c-1.9,2-4,3.3-5.6,5.3c-4.6,5.9-9.5,12.3-13.9,18.7c-4.5,6.5-10.1,12.1-13.1,19.8c-1,2.4-1.9,5-3.2,7.5c-1.1,2-2.9,3.7-4,5.6
		c-1.4,2.4-2.4,5.2-3.7,7.8c-4,7.3-7.5,15.9-10.2,24.3c-0.5,1.4-1.4,2.8-1.9,4.3c-4.3,12.8-8.1,25.4-11.2,39.6
		c-0.6,2.9-1.8,5.6-2.4,8.6c-0.7,3.1-0.1,6.6-0.8,9.9c-0.3,1.5-1.2,2.2-1.6,3.7c-0.4,1.8,0,3.9-0.3,5.9c-0.9,6.9-3.2,14.4-3.7,20.9
		c-0.8,9.9-1.1,18.6-1.1,28.9c0,7-0.4,14,0.5,21.1c0.3,2.4,1.4,4.8,1.6,7.2c0.4,4.6,0.6,8,0.8,12.6c0.1,2.7,1.4,5.8,1.9,8.8
		c1.4,9.3,2.3,20.1,5.1,27.5c1,2.8,3,5.1,4,7.8c0.6,1.5,0.9,3,1.6,4.3c0.6,1.2,1.6,2.2,2.1,3.5c0.7,1.7,0.7,3.7,1.3,5.3
		c1,2.9,3.2,6,4.8,9.1c1.6,3.1,2.9,6.6,4.3,9.6c1.4,3,3.2,6.1,4.8,9.1c1.7,3.3,2.8,6.7,4.5,9.4c1.3,1.9,3.3,3.2,4.5,5.1
		c1.2,1.9,2,4.2,3.2,6.2c1.4,2.3,3.2,4.2,4.8,6.4c1.6,2.2,3.7,3.8,5.3,5.9c2.9,3.8,5,8.1,8,11.8c1.4,1.7,3.3,2.8,4.5,4.5
		c1.3,1.7,1.9,3.9,3.2,5.6c2,2.7,4.8,5.3,7.2,8c2.4,2.6,4.7,5.3,7,8c2.3,2.7,5,5.2,7.2,8c2.3,2.9,4.8,5.6,7.2,7.8
		c5.4,4.7,11.1,9.3,16.9,13.4c5.9,4.2,11.3,9.4,17.9,12.3c1.9,1.7,3.9,3.5,6.2,4.8c1.8,1,4.1,1.1,5.9,2.1c2.4,1.3,4.1,3.4,7,4.8
		c5,2.4,10,4.6,13.9,8.3c10.8,4.1,20.8,9.3,32.6,12.3c2.2,0.6,4.6,0.6,7.2,1.1c2.7,0.5,5.2,1.5,7.8,2.4c2.7,0.9,5.6,1.1,8.6,1.6
		c5.6,0.9,11.2,1.9,17.4,2.1c8.6,0.4,20,4.3,30.5,2.7c4.2-0.6,7.8-3.5,12.3-3.7c1.4-0.1,3.1,0.6,4.8,0.8c1.5,0.2,3-0.2,4.3,0
		c2.7,0.4,5.2,1.9,7.5,2.1c3.5,0.3,9-0.3,13.1-0.8c6.4-0.9,13.6-1.7,20.9-2.9c2.5-0.4,4.4-1,7.2-1.3c2.1-0.3,4.4-0.8,6.4-1.3
		c3.6-1,7-3,10.4-4c1.7-0.5,3.4-0.3,4.8-0.8c2.8-1,6-3.3,8.8-5.1c3-1.8,6.3-3.2,9.1-4.8c1.9-1.1,3.5-2.8,5.3-3.7
		c6.6-3.4,13.8-5.4,20.6-8.8c1.4-0.7,3-1.2,4.5-1.9c1.4-0.6,2.6-1.6,4-2.1c6.2-2.4,13.3-2.5,20.3-4.8c1.4-0.4,2.6-1.6,4-2.4
		c2.9-1.6,6-2.7,9.1-3.7c6.2-2.2,11.4-5.4,16.6-9.1c1.3-1,2.8-1.5,4-2.4c1.7-1.3,3.1-3.6,5.1-5.6c3.6-3.7,6.1-7.6,9.4-11.8
		c1.7-2.2,3-4.9,4.8-6.7c1.7-1.7,4.3-2.7,5.9-4.3c1.3-1.4,2.2-3.4,3.7-4.8c1.6-1.4,3.5-2.5,4.5-3.7c3.7-4.5,6.7-10.8,10.7-15.8
		c1.3-1.6,3-3.2,4-4.8c1.9-3,3.1-6.5,4.8-9.6c0.9-1.7,1.9-2.9,2.7-4.5c1.5-3.4,2.8-6.3,4.5-9.4c0.8-1.4,1.5-2.8,2.1-4.3
		c1.4-3,2.1-6.2,3.5-9.4c0.6-1.4,1.8-2.4,2.4-3.7c0.8-1.7,1.3-3.6,2.1-5.3c0.7-1.6,2.1-3.1,2.7-4.5c0.7-1.7,0.7-3.6,1.3-5.3
		c1.1-2.9,2.7-5.8,3.5-9.1c1.1-4.6,1.7-9.6,2.9-14.4c0.8-3.4,2.8-6.5,3.5-9.9c0.5-2.7,0.5-5.5,1.1-8c1-4.4,3.3-8.8,4-14.2
		c0.2-1.5,0.2-2.6,0.5-4c1.8-8.6,3.9-18.4,5.6-26.7c1.6-7.8,4.9-15,5.3-22.2c0.1-1.9-0.4-3.4-0.3-5.6c0.3-4,1.3-8.6,1.6-12
		c0.7-7.5-0.3-15.6-0.8-23c-0.6-8.3-1.6-16.7-2.9-24.6c-2.1-12.3-6.2-24-9.4-35.6c-0.6-2.3-1.4-4.5-2.1-6.7
		c-2.1-6.5-4.5-13.9-7-20.6c-1.7-4.5-3.9-8.8-5.6-13.4c-3.4-9-8.1-17.1-12-25.7c-1-2.3-1.8-4.4-2.9-6.4c-1.1-1.9-2.8-3.4-4-5.3
		c-1.5-2.5-2.6-5.1-4-7.5c-1.3-2.3-3.2-4.2-4.8-6.4c-3.2-4.4-5.7-9.4-9.1-13.4c-1.3-1.5-3.3-2.5-4.5-4c-1-1.1-1.4-2.6-2.4-3.7
		c-4.4-5-10.3-9.5-15.2-13.9c-2.6-2.3-4.9-4.8-7.5-7.2c-2.3-2.1-5.7-3.9-6.7-7.2c6.2,1.8,9.8,6.3,13.9,10.2c1.5,1.4,2.2,3.1,3.5,4.5
		c1.4,1.5,3.6,2.4,5.1,3.7c3.3,3,5.7,5.4,8.8,8.8c1.4,1.6,3.3,2.8,4.5,4.3c3.2,3.8,6.3,8.2,9.4,12.3c3.1,4.1,6.9,7.8,9.4,12
		c6.6,11.2,12.9,22.9,18.5,35.3c0.9,2,2.3,3.6,3.2,5.6c1.6,3.6,3.2,7.5,4.8,11c2.1,4.5,4,9.6,5.9,14.4c2.5,6.4,5.1,13.1,6.7,20.6
		c0.2,1.2,0,2.6,0.3,3.7c0.5,1.7,2.3,3.3,2.9,4.8c1.1,2.5,1.5,5.7,2.1,8.8c0.6,2.8,1.9,5.6,2.4,8.3c0.8,4.3,1.6,8.3,2.1,12.6
		c0.7,5.4,1,11.9,1.9,17.1c1.5,9-0.2,21.3-1.3,30.8c-0.8,6.7,0,13.1-1.1,19.3c-0.8,4.4-3.1,8.5-4,13.1c-1,5.5-1.5,11.1-2.9,16.8
		c-0.4,1.7-1.5,3.3-1.9,5.1c-0.4,1.6-0.1,3.3-0.5,5.1c-0.7,2.9-2,5.7-2.7,8.8c-1.2,6.1-2,12.8-4,18.7c-0.9,2.8-2.7,5.5-3.2,8
		c-0.2,1.3,0.1,2.6,0,3.7c-0.4,3.6-2,6.5-2.7,9.9c-0.2,1.1,0,2.3-0.3,3.5c-0.4,1.6-1.3,3.2-1.9,4.8c-0.5,1.5-1.5,3.1-1.9,4.5
		c-0.3,1.1,0,2.3-0.3,3.5c-0.4,1.7-1.3,4.3-2.1,6.4c-1.1,2.8-3.8,4.7-5.1,7.5c-0.7,1.5-1.2,3-1.9,4.5c-0.7,1.5-0.7,3.2-1.3,4.8
		c-0.8,2.1-2.4,4.4-3.5,6.7c-2.7,5.7-5.4,13.4-8.6,18.5c-1.3,2.1-3.2,3.9-4.5,5.9c-1.4,2.2-3.3,3.9-4.5,5.9c-1.2,2-1.6,4.3-2.9,6.2
		c-0.6,0.9-1.5,1.6-2.1,2.4c-1.9,2.6-3.5,5.1-5.9,7.8c-1.5,1.6-2.7,3.7-4,5.1c-2.3,2.4-6.1,3.8-8.6,6.4c-0.9,1-1.8,2.5-2.7,3.7
		c-0.8,1.3-1.8,2.3-2.7,3.5c-1.9,2.5-3.1,5.4-4.8,7.8c-1.1,1.4-2.6,2.5-3.7,4c-1.1,1.5-1.8,3.5-2.9,4.8c-0.8,0.8-2.1,1.5-3.2,2.4
		c-0.9,0.8-1.8,2.1-2.7,2.7c-1.2,0.8-2.7,0.9-3.7,1.6c-6.7,4.2-15.2,7.5-23.8,10.4c-4.4,1.5-8.9,3.4-14.2,4.5
		c-5.6,1.2-11.9,2.9-16.8,5.3c-1.7,0.9-3.2,2.2-4.8,2.9c-6.5,3.1-12.7,3.4-18.2,7c-3,1.9-4.6,4.8-7.8,7c-4.9,3.4-11.2,6.2-17.4,9.1
		c-4.5,2.2-9.8,3.3-15,5.1c-1.7,0.6-3.1,1.7-4.5,1.9c-1.4,0.2-3.2-0.4-4.8-0.3c-3.6,0.2-7,2.9-11,3.2c-1.5,0.1-3.1-0.4-4.5-0.3
		c-1.6,0.1-3,1.3-4.8,1.6c-5.5,0.9-13.4,0.2-19.5-0.3c-1.9-0.1-3.7,0.2-5.3,0c-2.4-0.3-4.6-1.6-7-1.6c-2.1,0-4.9,0.2-6.7,0.5
		c-3.1,0.6-4.6,3.3-8,3.7c-3.8,0.5-8.9,0-13.4-0.3c-4.2-0.3-8.2-0.8-12-1.3c-1.1-0.1-2.2,0.1-3.2,0c-4.2-0.5-8.5-2.5-12.8-2.9
		c-4.8-0.5-9.6,0.3-13.9-0.5c-3.2-0.6-6-2.4-9.1-2.9c-1.4-0.2-2.7-0.1-4-0.3c-5-0.8-8.4-2.6-12.8-4.5c-1.5-0.6-3.3-0.7-4.8-1.3
		c-1.9-0.8-3.5-2.5-5.6-3.2c-2.6-0.9-5.3-0.9-7.5-1.9c-1.1-0.5-2.1-1.1-3.2-1.6c-3.6-1.5-6-2.8-9.4-4.8c-3-1.8-5.8-3.5-9.4-5.3
		c-3.2-1.7-6.3-4.2-9.6-6.2c-3.2-1.9-6.9-3.6-9.9-5.6c-7.2-4.8-13.4-11.6-20.6-16.6c-2.5-1.7-5.5-2.6-8-4.3
		c-5.5-3.7-11.4-11.9-16.3-17.4c-1.8-2-4-3.6-5.6-5.3c-1.2-1.3-2-3.3-3.5-4.8c-1.4-1.5-3.1-2.7-4-4c-0.7-1.1-0.9-2.4-1.6-3.5
		c-1.6-2.5-4-4.8-5.9-7.2c-1.9-2.5-3.7-5.2-5.6-7.5c-1.8-2.2-4-3.8-5.6-6.2c-4.7-6.7-9.5-13.8-14.4-20.6c-2.3-3.2-6.1-5.5-7.5-8.8
		c-0.6-1.4-0.5-2.9-1.1-4.3c-0.8-2.1-2.7-3.5-3.5-5.1c-0.8-1.7-0.9-3.8-1.6-5.6c-1-2.4-2.9-4.2-3.7-6.2c-0.4-1.1-0.3-2.3-0.8-3.5
		c-0.5-1.1-1.6-2-2.1-3.2c-0.6-1.3-0.7-2.8-1.3-4c-1.3-2.4-2.8-4.4-3.7-7c-4-10.3-8.4-19-11.5-31c-0.7-2.7-1.2-5.9-1.9-8.8
		c-2.7-12.5-4.1-28.4-6.2-41.5c-0.8-5.3-0.2-10.8,0-16.3c0.1-3.6-0.4-7.2-0.3-10.7c0.2-4.7,0.9-9.4,1.1-14.2
		c0.1-2.7,0.2-4.9,0.5-7.2c0.3-2.1,1.1-3.7,1.6-5.9c2-9.2,1.2-19.1,3.2-28.4c0.4-1.7,1.1-3.5,1.6-5.3c0.5-1.8,0.8-3.8,1.3-5.6
		c0.6-2.4,2.4-4.6,2.9-7.2c0.2-1.2-0.2-2.6,0-3.7c0.5-2.9,1.6-5.8,2.4-8.6c1.6-5.6,3.2-10.9,5.1-16.3c1-2.8,1.3-5.8,2.1-8.6
		c0.8-2.7,2.6-5.3,3.5-8c0.4-1.3,0.2-2.7,0.8-4.3c0.5-1.3,1.7-2.5,2.4-4c1.7-3.7,3.7-9.5,5.6-12.8c1.4-2.4,3.4-4.3,4.8-6.7
		c2.2-3.6,4.2-8.3,6.2-12c0.7-1.3,1.6-2.5,2.1-3.7c0.5-1.2,0.4-2.6,1.1-3.7c1.4-2.3,4.3-4.4,6.2-7.2c1.8-2.7,3.3-5.7,5.1-8.3
		c0.9-1.3,2.5-2,3.5-3.2c1.1-1.3,1.4-3.2,2.4-4.5c1.3-1.8,3.5-3,5.1-4.8c3-3.6,5.8-7.1,9.4-10.4c1.7-1.6,3.8-3.1,5.1-4.8
		c1-1.2,1.4-3.1,2.4-4.3c2-2.3,5.4-3.7,7.8-5.9c1.1-0.9,1.4-2.4,2.4-3.5c1.8-2,4.3-3.5,6.2-5.6c0.9-1,1.5-2.5,2.4-3.2
		c0.9-0.7,2.7-1,4.3-2.1c1.3-1,2.4-2.4,3.5-2.9C124.7,61.6,125.7,61.6,126.8,61.1z"/>
	<path class="st0" d="M235.4,74.7c-0.3,0-0.2,0.3-0.3,0.5C227.7,77.2,233.5,67.3,235.4,74.7z"/>
	<path class="st0" d="M382.8,74.7c9.2-1.9,15.2,8.8,10.2,16c-2,2.9-6.6,4.7-10.4,3.5c-3-0.9-4-3.9-6.4-6.4c-0.6-4.1-0.3-8.6,1.6-11
		C379.3,76.1,380.9,75.2,382.8,74.7z M390.3,79c-6.4-5.3-14.2,3.8-9.1,10.2C388.2,93.8,394.4,84.9,390.3,79z"/>
	<path class="st0" d="M246.9,89.7c-3,0.7-3-3.9-4.3-5.9c-2.7-0.2-9.4,0.7-10.2,3.2c-0.8,2.8,1.7,4.3,2.4,7c-4.2,3-6.3-3.8-5.9-7
		c0.7-4.9,5.9-6.1,11-7.2C243.7,79,249,86.1,246.9,89.7z"/>
	<path class="st0" d="M295.6,110.8c-2.8,1.3-4.2-2.2-6.2-3.5c-3.4-2.1-11.9-5.7-16.3-4c-3.8-0.5-7.9-0.6-11.5,0
		c-1.2,0.2-2.2,1-3.5,1.3c-1.1,0.3-2.3,0.3-3.5,0.5c-3.2,0.7-5.9,2.9-8.6,3.5c-1,0.2-2.1-0.1-2.9,0.3c-2.2,0.9-2.6,4.6-5.3,3.7
		c0.1-2.9,3.4-5.4,6.2-7c7.2-4,18.2-5.7,28.1-6.2c3.2-0.1,6.5-0.2,9.4,0.5c1.5,0.4,3.3,1.9,5.3,2.7
		C291.1,104.5,297.4,105,295.6,110.8z"/>
	<path class="st0" d="M255.2,118c-3.5-0.8-6.5-2.1-6.4-6.4c1.5-0.8,2.7-1.9,4.3-1.6C256,110.6,255.1,115.5,255.2,118z"/>
	<path class="st0" d="M161.8,122.9c2,1.7,3.5,3.8,5.1,5.9c-1.5,2.3-3.1,5.2-5.6,6.4c-1.1,0.5-4.2,1.8-5.6,1.6
		c-2.5-0.3-3.1-4.3-5.6-4.3c-2.9,0-5.9,4.3-7.8,5.9c-0.2,3.6,4.3,4.1,4.5,6.4c-2.6,4-5.9-2.1-7.5-4c-0.3-5.3,1.2-6.7,4.5-9.1
		c2.1-1.5,3.5-2.8,7.2-2.4c2,0.7,2.6,3.7,5.3,3.7c2.2,0.1,6.1-3.3,6.2-4.8c0.2-3.3-2.7-2.1-6.2-2.9c-3.1-0.7-6.5-3.5-9.6-5.1
		c-2.2-1.1-4.6-1.6-5.9-2.4c-1.7-1-2.6-3.9-4.3-4c-2.4-0.2-2.3,2.9-4.3,2.1c0.6-2.6,4.4-4.2,7-5.6c2.5,0.6,2.5,3.3,4,5.1
		c0.8,0.9,3.7,2,6.4,3.5C153.7,120.9,156.6,123.6,161.8,122.9z"/>
	<path class="st0" d="M287.8,169.4c-4.1,0.3-10.5,0.1-13.1,2.7c0.1,1.5-0.2,3.2,0.3,4.3c1.1,1.8,3.5,1.3,5.3,1.9
		c0.9,0.3,1.7,1.1,2.7,1.3c2.3,0.6,5,0.6,7.5,1.3c2.2,0.6,4.3,1.9,6.4,2.4c1.3,0.3,2.8-0.1,4,0.3c2.3,0.6,6.2,3.9,7.5,5.6
		c0.5,0.7,1.9,3.5,2.7,5.6c0.7,2.1,1.7,4.3,2.1,5.9c0.6,2.1,0.1,5-1.1,6.7c-8.4-2.4-4.7-16.2-11.5-19.5c-1.3-0.6-3.5-1.3-5.1-1.6
		c-3.8-0.8-7.6-2-11.5-2.7c-2.9-2.6-8-3.1-11.8-4.8c-4.6,2.9-4.7-2.4-8.8-1.9c-2.9-1.8,0.1-6.7,0.5-8.6c1.1-4.9,0-12.6,3.7-13.4
		c1.8-0.4,3.1,0.8,3.7,2.7c2.9,0.4,4.2,2.4,5.6,4.3c3.1,0.5,7.3,3.2,9.1-0.3c-0.7-4.9,3.6-7.3,2.1-12c-0.5-1.6-2.8-2.6-2.9-4
		c-0.2-1.7,2.1-4,2.9-4c2.3-0.1,2.4,2.9,3.2,4.8c1.6,0.6,2.6-0.3,3.7-0.8c1.9-4.4-2.6-9.7-3.5-13.9c-0.8-4,0-8.6-3.7-8.6
		c-1.2,0-1.9,1.1-2.7,1.9c-1.4,3,2.3,4.7,2.1,7.8c-0.1,2.2-7.1,9-8.8,5.3c0.1-2,1.4-2.8,1.6-4.5c0.3-2.1-0.9-4.1-0.8-6.2
		c0.1-1.4,1.9-6.6,3.2-7.8c1.2-1.1,4.4-0.7,6.2-1.1c3.1-0.6,6.2-3.8,7.2-0.3c0.4,1.3-0.9,3.1-1.1,4.5c-0.2,1.7-0.2,4.1,0,5.9
		c0.2,1.2,0.7,3.7,1.3,5.6c1,3,5.8,7.7,4.5,12c-0.8,2.5-2.8,3.2-4.8,5.3c-1.4,1.4-3.4,4.4-4,6.4C290.5,162.9,292,166.3,287.8,169.4z
		"/>
	<path class="st0" d="M130,118c0.5,2.1-3,2.3-3.2,4.3c-0.2,1.8,1.5,2.6,2.4,4.3c-0.7,8,1.7,12.2,5.1,16.3c1.1,1.4,3.1,2.4,3.2,4.3
		c-1.9,0.5-3.2-1.7-4.8-3.2c-2.8-2.5-4.8-4.2-5.3-9.4c-0.3-2.8,0.4-4.7-0.8-6.4c-1.3-2-4.8-2.1-3.2-5.9
		C124.2,120.3,128.5,118,130,118z"/>
	<path class="st0" d="M373.9,154.2c-3.1-0.9-1.5-5.6-2.4-8c-0.6-1.7-1.6-3.3-2.1-5.1c-0.6-1.9-0.8-3.8-1.3-5.6
		c-0.8-2.6-2.2-4.8-2.9-7.5c-0.7-2.7-1.9-5.1-2.4-7.8c1.7-3.3,5.9,1.9,6.4,4c0.2,1-0.1,2.3,0,3.5c0.4,3.8,2.4,9.4,3.5,13.6
		C373.5,145,376.7,150,373.9,154.2z"/>
	<path class="st0" d="M243.7,126.6c-2,1.4-5.7-0.6-5.9-2.1C237.3,120.5,244.2,122.9,243.7,126.6z"/>
	<path class="st0" d="M231.9,123.9c2.5,1,1.6,4,2.1,6.2c0.7,2.7,2.5,5.5,3.5,8.3c0.7,2,1.8,4.9,0,6.7c-2.7,0.1-3.2-3.1-4-5.9
		c-1.3-4.3-4.1-8.4-2.7-14.4c0.1-0.4,0.5-0.4,0.5-0.8C231.6,123.9,231.7,123.9,231.9,123.9z"/>
	<path class="st0" d="M137.5,124.7c1.4-0.7,3.5,0.6,3.2,2.1C140,130.5,134.1,126.4,137.5,124.7z"/>
	<path class="st0" d="M360.3,136.5c-2.8,0.8-6.3-2.3-6.4-4.3C353.6,126.1,363,132.6,360.3,136.5z"/>
	<path class="st0" d="M378.8,130.6c2.9,0.9,4.3,5.6,2.9,9.1C378.7,139,377.7,132.8,378.8,130.6z"/>
	<path class="st0" d="M130.3,154.7c5.5,3.6-4.1,9.8-6.2,13.1c-1.2,1.9-2,5.5-4.3,5.3c-2.1-0.1-2-3-2.7-4.5c-1.4-3.4-4-5.3-6.2-7.5
		c-3-2.9-4.7-3.3-8,0c-1.2,1.1-2.1,2.7-3.5,2.9c-3.4,0.7-6.1-1.8-6.4-4.5c-0.3-2.9,1.9-4.6,3.5-6.7c2.7-3.6,3.9-6.9,6.4-10.2
		c2.2-2.9,7.8-7.4,11.8-9.9c2.9-1.8,7.8,3.1,7.8,5.3c0,1.6-2.2,3.8-3.5,4.8c-1.6,1.2-4.2,1.9-3.7,4.3c0.2,1.2,8.2,6.5,11.2,7.2
		C127.7,154.7,128.4,154.7,130.3,154.7z M113.4,140c-1.4,1.6-3.6,2.7-4.8,4.3c-0.8,1.1-1.2,2.4-2.1,3.5c-1.5,1.8-3.9,3-5.3,4.8
		c-0.7,0.9-1,2.1-1.6,2.9c-1.2,1.6-3.8,2.6-2.7,4.8c5.4,0.7,4.3-6.3,9.9-5.1c1.3,0.3,4,2.7,5.6,4c2.3,1.9,5,6.8,7.2,6.7
		c1.4-0.1,2.3-2.5,3.2-3.5c1.4-1.5,2.8-1.9,3.2-3.7c-3.5-1.6-7.8-3.4-10.7-6.2c-1.3-1.3-4.3-4.3-4-6.7c0.5-4.5,8.7-3.8,7.5-9.6
		C115.8,134.4,115,138.3,113.4,140z"/>
	<path class="st0" d="M264.6,144.5c-3,1.3-8.6,5.8-11,1.3C252.8,140.1,265.8,136.8,264.6,144.5z"/>
	<path class="st0" d="M348.8,149.1c-1.6-0.8-3.2-1.7-3.2-2.9C345.5,141.3,353.3,147.3,348.8,149.1z"/>
	<path class="st0" d="M361.6,146.1c0.9,0.3,1.6,0.7,1.6,1.9C362,149,360.3,147,361.6,146.1z"/>
	<path class="st0" d="M233,152.8c0,1.9-2.1,3.9-3.5,2.1C229.8,153.5,231.4,151.4,233,152.8z"/>
	<path class="st0" d="M246.4,156.6c0.5,3.1-1.6,6.3-2.4,9.4c-0.2,0.7,0,1.8-0.3,2.4c-0.4,0.9-1.7,1.6-2.1,2.7
		c-0.7,1.5-0.7,3-1.3,4.3c-2.2,4.4-4.8,4.7-9.6,6.7c-2,0.8-4.4,2.3-6.7,3.7c-2.2,1.4-4.3,2.2-7,3.5c-1.1,0.5-2,1.6-3.2,2.1
		c-6.3,2.9-12.5,4.3-16.3,8.8c-0.4,0.5-0.8,1.4-1.3,2.1c-1.9,2.5-2.5,5-4,9.1c-0.6,1.8-1.5,3.7-1.9,5.1c-0.3,1.3-0.1,2.9-0.5,4.3
		c-0.6,1.8-2.3,3.5-2.9,5.6c-0.7,2.2-0.7,4.7-1.6,7.2c-0.7,2.1-2,4.2-2.4,6.4c-0.8,4.2-1.2,8.4-3.2,11.8c-1.8,3.1-5.4,6.5-9.1,6.7
		c-2.5,2.5-4.2,6.3-7,9.1c-1,1.1-2.6,1.5-3.5,2.7c-1.6,2.1-2.3,5.6-5.6,5.3c-1.6-2.3,1.8-3.8,1.9-6.2c3.3-3.1,6.4-6.5,9.9-9.4
		c2.7-0.4,4-1.2,4.3-4c2.2-2.1,5.4-4.8,6.4-8.3c0.6-2-0.1-4.3,1.9-5.6c-0.6-3,1.3-4.8,1.9-6.7c1-3.3,1.3-6.4,2.4-9.4
		c0.8-2.1,2.5-4.1,3.5-6.4c1.5-3.7,1.4-8.5,2.4-13.1c1.3-3,3.6-4.9,4.8-8c5.6-3.6,12.4-9.3,20.1-11.8c6-1.9,11.3-4.3,16.9-7.2
		c5-2.6,9.7-6.9,7.8-14.7c-4-0.1-11,4.3-12-2.1c1.3-2.1,2.9-0.4,4.8-0.8c1.2-0.2,1.9-1.6,3.5-2.9c2-1.6,5.3-4.5,6.7-4.8
		C244,153.5,244.9,154.9,246.4,156.6z"/>
	<path class="st0" d="M379.3,178.2c2.2,0.2,1.7,3.5,0.3,4.3C377.4,182.3,378.4,179.1,379.3,178.2z"/>
	<path class="st0" d="M367.3,202.3c-2.2,0-4.3,0.4-6.4,0c-1-0.2-1.7-0.9-2.7-1.1c-1.6-0.3-4.2,0.1-6.2,0c-1.3-0.1-2.6-0.6-3.5-0.5
		c-1.6,0.2-2.6,1.6-3.7,1.9c-3,0.6-7.7-0.2-10.7,1.1c-2.1,0.9-3,3.2-5.1,4.8c-1,0.8-3.1,1-3.7,2.4c-0.6,1.4,0.2,3.1-0.5,4.8
		c-0.7,1.5-2.6,1.5-3.5,3.2c0.5,6.7-4.3,8-4.8,13.6c-3.3-0.2-1.1-4.2-1.1-6.7c0-2.2-1.1-5.2-1.9-7.5c-0.8-2.2-2.6-5,0-6.4
		c3.8,0.1,2.5,5.3,5.1,6.7c3.1-1.8,2.6-5.6,4-8.3c0.6-1.2,2.6-2.7,4.5-4.3c1.6-1.3,3.3-3.4,4.5-4c0.9-0.5,2.8-0.3,4.5-0.8
		c1.1-0.3,2.2-1.4,2.9-1.6c2.9-0.8,7.3-1.1,10.2-1.9c1.7-0.4,2.9-1.3,4-1.3c1.6,0,3.5,1.8,5.1,1.3c4.4-1.3-1-17,6.4-11.5
		c0.2,2.7-0.3,4.1,0,6.2C365.5,197.1,370.8,198.7,367.3,202.3z"/>
	<path class="st0" d="M352.3,188.9c1.9,0.1,1.5,3.2,0.5,4C350.8,192.8,351.4,189.8,352.3,188.9z"/>
	<path class="st0" d="M378.8,192.7c-0.3,0.3-0.5,0.5-0.8,0.8C373.5,193.1,378.7,188,378.8,192.7z"/>
	<path class="st0" d="M271.2,198.6c-0.4,2.2-3.9,1.3-4-0.5C267.9,196.9,271.3,196.7,271.2,198.6z"/>
	<path class="st0" d="M388.1,198.8c-0.5,1.3-2.3,0.7-4,1.1c-2.6,0.6-5,2.8-6.2-0.5C379.5,197.7,386.9,195.8,388.1,198.8z"/>
	<path class="st0" d="M295.8,232.3c-1.2,1-3.4,1.1-4,2.7c0.4,1.8,0.5,3.7,1.6,4.8c1.9,0.5,5-0.7,5.9,1.3c0.1,2.8-1.5,3.3-0.8,6.2
		c-1.1,3.3-6.3,4.6-5.9,7.8c0.2,1.6,3.3,2.1,3.2,3.7c-0.1,2.5-4.5,1.9-4.3,5.1c3.6,3.8,7.4-2.8,11.2-2.4c2.7,0.2,2.6,2.9,4.8,4
		c2-0.9,2.4-3.3,2.1-5.3c-0.4-2.5-3.3-3.1-3.2-5.3c5.1-0.9,11.6,1.4,10.2,8.3c-0.2,1-1.4,2.3-1.9,3.7c-0.6,1.7-0.6,3.8-1.3,5.1
		c-1.2,2-4.2,5.6-5.3,6.7c-1,0.9-3.6,2.4-4.8,2.7c-0.9,0.2-1.8-0.2-2.7,0c-1.1,0.3-2.1,1.3-3.2,1.6c-1.6,0.5-3.9-0.2-4.5,1.9
		c-1,5.9,6.5,9,2.9,13.9c-2.2,3-10.8,0.8-11.8,5.1c-0.3,1.5,0.6,3.7,0.5,5.9c-0.1,3.4-0.3,6.5-0.5,9.6c-4.3-0.6-4.2-5.6-5.1-9.6
		c-2.8,0-1.8,3.7-2.4,5.9c-0.7,1.9-3.9,1.4-4.5,4c-0.2,0.9,0.3,2.2,0.3,3.5c-0.1,6.2-1.9,13,1.3,16.8c-0.9,14.7-3.1,30.8,2.4,41.7
		c0.8,1.5,2.5,2.7,3.5,4.3c0.5,0.9,0.6,1.9,1.1,2.7c0.9,1.4,2.5,2.2,2.9,3.5c0.4,1.1,0.2,2.9,0.5,4.5c0.2,1.1,0.9,2,1.1,2.9
		c0.9,4.9,1,11.2,0.8,16.3c-0.2,3.8,1.2,8,1.1,11.2c-0.1,1.8-1.3,3.4-1.3,5.1c-0.2,4.2,1.9,7,1.6,10.7c-0.2,2.1-1.2,3.8-1.3,5.6
		c-0.9,9,1.6,14.4,5.9,18.5c0.9,0.9,2.3,1.5,3.2,2.7c2,2.7,2.7,6.2,5.6,9.1c4.5,0.2,5.2,5,9.1,5.1c3.9,0,5-4.1,9.4-4.5
		c3-1.6,5.2-5.4,9.1-5.3c0.6,2.9-3.6,3.2-3.7,6.2c-3.7,0.2-2.5,5.4-4.3,7.5c-2.7,0.9-3.6-1.3-5.6-1.6c-6.6-0.9-10,7.8-15.2,3.2
		c0.3-1.6,2.2-1.5,2.7-2.9c1-3.2-1.4-5.5-4.3-5.9c-2.6-3.8-5.7-7.3-8.8-11c-2.5-3-4.1-4.8-6.4-8c-0.7-1-1.6-1.5-1.9-2.4
		c-1.2-3.7-0.2-8.5-3.2-11.5c1.5-3.3-1.7-4.9-2.1-6.2c2.5-1.6,4.3-2.7,4.8-6.4c0.2-1.6-0.5-4.2-0.5-7c-0.1-2.6,0.5-5.1,0.3-6.7
		c-0.5-3.3-3.6-7-3.5-9.4c0.1-1.5,2.8-2.8,3.2-4.8c0.5-2.6-0.7-8.9-1.3-12.8c-0.2-1.3-0.8-2.6-1.3-3.7c-1.3-2.4-3.4-5.2-5.1-8
		c-1.6-2.7-4.5-5.1-5.3-7.8c-0.4-1.3-0.2-3.3-0.5-5.1c-0.3-1.6-0.9-3.1-1.1-4.5c-0.6-5.5,0.5-13.4,0-19.8c-0.2-2.2-0.7-4.1-0.5-5.9
		c0.1-1,0.7-1.9,0.8-2.9c0.4-4.3-1.3-8.8-0.5-13.9c0.2-1.3,0.9-2.5,1.1-3.7c0.1-1.1-0.2-2.1,0-3.2c0.5-2.7,1.9-4.8,2.1-7.5
		c0.3-3.9,0.1-6.8,0.3-10.7c0.1-1.5,0.7-3.1,0.5-4.3c-0.3-2.3-3.5-3.8-3.7-5.9c-0.4-2.8,3.7-6,3.7-9.4c0.1-3.9-3.6-8.3-2.9-13.4
		c0.3-2.7,3-5.8,4.5-8.6c1-1.9,2.6-3.7,2.1-7.2c-0.4-1.5-3-0.9-2.7-3.2c1.9-1.6,5.2-1.8,7-3.5c0.6-2.7,3.3-6.8,4-10.7
		c0.7-3.8,1-11-2.1-11.5c-2.5-0.4-5.5,4-8,0.8c0.8-3.5,4.9-2.7,7.2-4.3c2.5-1.6,1.8-5.3,3.7-7.5c-0.6,0.7,10-6.3,11.2-6.2
		c1.8,0.1,4,2.9,4.3,4.8c0.2,1.5-0.7,3.2-0.8,4.8C295.7,218.5,297.3,226.1,295.8,232.3z M285.7,251c0.3,0,0.3,0.4,0.3,0.8
		c1.7,0.6,3.7,0,3.5-2.1c-0.2-0.1-0.3-0.2-0.3-0.5C287.5,248.4,285.8,249.3,285.7,251z M293.7,273.2c3.8,1,8.2-1.1,7.2-4.8
		C298.5,268.9,294.5,270.2,293.7,273.2z M273.9,278.3c3.7-2,8.6-4.3,8.8-8.8C278.7,271.2,273.5,273,273.9,278.3z M279.3,290.6
		c3.9-0.3,4.9,2.4,5.3,5.6c3.5,1.8,7.8-0.9,6.2-5.1c-3.4-1.6-4.7-5.3-7.5-7.5c-0.4-1.2-0.5-2.7-1.6-3.2
		C279.6,282.4,278.3,286.4,279.3,290.6z M277.4,306.9c2.3,0.3,2.5-2.5,1.9-4.3C277.4,301.9,276.6,304.9,277.4,306.9z"/>
	<path class="st0" d="M544,205.5c0-0.3,0.3-0.2,0.5-0.3c2.6,0.8,6.4,4.6,7,7.5c1.4,7.4-9.1,12.2-12,7.2c3.5,0.9,5.8-0.8,7.2-2.7
		C546.7,212.4,547.2,207.1,544,205.5z"/>
	<path class="st0" d="M529.3,225c1.8,0.1,2.5,1.4,2.9,2.9c0.6-0.4,1.2-1,1.6-1.6c-0.8-2.9-1.4-6.7-3.5-7.5c0-1,0.4-0.7,1.1-0.5
		c-0.5-2.5-1.2-4.7-2.7-6.2c-2.4,0-7.5,2.7-8.3-0.5c2.9-0.9,6.1-1.6,8-3.5c3.4,1.1,4,7.4,5.9,11.2c0.8,1.7,1.9,3.1,2.4,4.5
		c0.6,1.7,1.5,4.6,1.3,5.9C537.4,235.1,525.2,231.6,529.3,225z"/>
	<path class="st0" d="M386.8,209.8C390.3,208.6,387.7,213.3,386.8,209.8L386.8,209.8z"/>
	<path class="st0" d="M375.5,214.6c-0.7,1.7-2.4,1.1-3.2,2.9c-1.1,2.7,0.1,7.1-2.9,8.3c-3.7-0.2-1.6-6.1-2.9-8.6
		c-2-2.6-8-1.1-8.6-5.1c2.7-1.7,5.4,1.2,8.6,1.3C369.4,213.6,373.6,211.8,375.5,214.6z"/>
	<path class="st0" d="M398,273.2c-0.4-1.7,1.7-3.9,0.5-6.4c-2.1-1.1-5.6-0.8-7-2.7c0.6-1.2,2.3-2.3,1.3-4.3c-2.2,0.8-2.9,3.5-5.6,4
		c-4.9,0.9-11.3-1.4-12.3-5.3c-0.6-2.3,1.1-6.7,1.6-9.1c2.2,0.2,2.7,2.1,4,3.2c2.8-3.5,9.6-3,13.9-5.1c1.3-2.2-1.1-4.2-3.7-3.7
		c-1.7,0.3-1.8,2.2-3.2,2.4c-1.1,0.2-2.1-1-3.5-1.3c-1.9-0.5-5.2-0.6-4.8-2.9c0.5-3.1,5.7-0.5,8-1.6c2.2-1,0.7-2,1.9-4.5
		c1.1-1.2,3.9-1.5,4.8-2.9c1.7-2.6,0.8-5.5,1.6-8.6c1-3.7,4.7-4.8,8.6-6.4c3.3-1.3,5.2-3.1,9.6-2.9c0.9-0.3,1.6-0.9,2.1-1.6
		c1.3,1,2.9,1.7,3.2,3.2c0.3,1.3-0.8,2.8-1.1,4.5c-0.2,1.5,0.2,3.2,0,5.1c-0.1,0.9-0.7,2-0.8,2.9c-0.1,1.4,0.3,3,0.3,4.5
		c-0.1,2.6-0.6,4.8-0.5,7.8c0,3.1-1.2,7.2-1.9,9.6c-0.4,1.4-0.2,2.8-0.5,3.5c-0.7,1.7-2.9,2.4-4,4c-1.8,2.5-3.2,6.2-5.1,8.3
		C402.2,267.9,402,273.5,398,273.2z M410.6,220.8c0.8,0.7,2.4-0.9,1.6-1.9C411.3,219.1,410.1,220.1,410.6,220.8z M408.4,228
		c1.3,0.5,2.1-0.2,2.4-1.3C409.8,225.6,408.8,226.9,408.4,228z M401,234.7c1,1.1,3.4,0.4,3.5-1.1C403.5,231.8,401,232.7,401,234.7z
		 M397.2,241.1c1.6,0.6,2.9-0.2,3.5-1.3C398.9,239,397.7,239.4,397.2,241.1z M389.2,253.7c-3,0.3-8.1-1.8-8.3,1.3
		c1.6,2.7,5.8,0.9,8.8,0.8c3.3-0.1,7.3-0.5,8.3-2.9C395.4,250.9,392.2,253.4,389.2,253.7z"/>
	<path class="st0" d="M515.2,214.3c-3.2,0.8-4.7,3.3-9.1,2.9c-0.8,0.4-1.3,1.2-1.9,1.9c0.6,2.3-0.6,4.2-0.5,6.2
		c0.1,1.9,1.5,3.5,1.9,5.3c0.4,1.7-0.6,3.8,1.3,4.5c3.5-2.6-0.6-9.8,1.6-13.9c1.3-2.4,4.8-1.7,8.6-1.9c1.8,1,1.6,4.1,2.4,6.2
		c2.6,0.4,0.7-6.1,2.7-7.2c3.1-0.7,8.9-0.6,8,2.7c-1.2,0.8-2.1-0.7-3.5-0.5c-4.3,2.2-0.7,10.8-6.2,11c-2,0.1-3.5-1.9-4-2.9
		c-0.9-1.7-0.3-5-1.9-5.9c-1.4-0.7-2.7,0.6-3.5,1.6c-1.3,5,2.1,6.4,1.6,9.9c-0.5,3.9-7.7,4.9-9.6,0.8c-0.6-1.4-1.7-5.7-1.9-7.5
		c-0.2-2.3,0.4-6.6,0.5-9.1c0.1-1.8-0.2-2.9,0-3.5c1.1-2.9,3.9-0.4,5.9-0.3C509.3,214.7,512.4,212.6,515.2,214.3z"/>
	<path class="st0" d="M254.1,222.1c-2.6,0.9-5.1-0.8-8-0.3c-1.2,0.2-2.1,1.3-3.5,1.6c-1.2,0.2-2.5-0.2-3.7,0c-1.2,0.2-2,1-3.2,1.3
		c-2.5,0.7-6,1.4-9.4,1.1c-2.2-0.2-4.1-1.3-5.9-0.8c-3.9,1-3.8,9.4-5.1,14.2c-0.5,2-1.4,3.8-1.6,5.3c-0.2,1.5,0.1,3,0,4.3
		c-0.7,5.8-4,9.3-5.3,14.2c-0.3,1.3-0.2,2.5-0.5,3.7c-0.5,1.6-1.7,3-2.4,4.5c-0.8,1.7-1,3.5-1.6,5.1c-0.7,1.7-1.7,3.1-2.1,4.8
		c-0.5,1.8-0.3,3.8-0.8,5.9c-1,4.8-2.9,9.4-2.9,14.7c0,3.9,0.1,8.3,0.8,12.6c0.2,1.4,1.1,2.7,1.3,4c0.8,3.9,0.2,8,0.8,12
		c0.3,2.2,1.3,4.2,1.6,6.4c0.4,3.1-0.3,6.4,0.3,9.4c0.7,3.8,2.7,7.1,3.5,10.7c0.2,0.9-0.1,1.8,0,2.7c0.1,1,0.9,2,1.1,2.9
		c0.9,4,0.8,8.2,1.3,12.6c0.6,4.3,2.3,8.3,2.7,12.3c0.4,4.6,0.3,7.4,1.9,10.7c0.5,1,1.6,1.9,2.1,3.2c0.5,1.1,0.6,2.8,1.1,4.3
		c0.4,1.3,1.3,2.6,1.6,3.7c0.4,1.7,0.2,3.7,0.5,5.3c0.3,1.6,1.3,2.9,1.6,4.3c1.2,5.3,0.9,11.5,3.7,16c-0.3,4.1,2.2,7.9,2.9,12.8
		c0.2,1.5-0.2,3.6,0,5.4c1,9.1,4.9,19.2-4.3,21.1c-2.7-2.1,0.5-4.2,0.8-6.2c0.2-1.2-0.4-2.3-0.5-3.7c-0.3-3.4,0.3-7.6,0-11
		c-0.5-5.1-1.6-11.3-2.9-15c-1.1-2.8-4.4-5.3-5.1-8.8c0.1-5.5-1-9.9-2.1-14.4c-0.6-2.5-1.4-3.6-1.9-7c-0.3-1.7-1.5-3-1.9-4.5
		c-0.2-0.9,0.1-1.8,0-2.7c-0.3-2.3-1.8-4.3-2.4-6.4c-0.6-2.1-0.8-4.4-1.3-6.7c-0.9-3.9-0.7-7.4-1.3-12.6c-0.3-2.7-1.4-5.3-1.9-8
		c-0.4-2.2-0.2-4.6-0.5-7c-0.8-6.1-3.7-12.1-4.3-18.2c-0.2-1.8,0.2-3.6,0-5.3c-0.2-1.8-1.4-3.3-1.6-5.1c-0.2-1.5,0.4-3.3,0.3-4.8
		c-0.2-4-1.7-8.3-2.1-12.6c-0.4-4.6,0.2-9.4-0.3-13.9c-0.1-1.1-0.8-2.5-0.8-3.7c0-3.3,2.5-7.6,3.5-12c0.3-1.3,0-2.6,0.3-3.7
		c0.7-3.3,2.9-5.7,4-8.3c0.7-1.6,0.7-3.5,1.3-4.8c0.6-1.3,1.9-2.2,2.4-3.5c0.7-1.7,0.9-3.8,1.6-5.6c0.7-1.7,1.8-3.2,2.4-4.8
		c2.2-6.3,2.2-14.8,2.7-22.2c-2.4,0.3-1.9,3.1-2.7,4.8c-0.7,1.5-2.3,2.5-2.9,4c-0.6,1.2-0.6,3-1.3,4.5c-0.8,1.6-2.3,3.1-2.9,4.8
		c-1.3,3.2-1.3,7.4-3.2,9.9c-1.2,1.6-3.3,2.9-4.8,4.5c-0.7,0.8-1.1,1.7-1.9,2.7c-0.7,0.8-2.1,1.1-2.7,1.9c-0.7,0.8-0.7,2.1-1.3,2.9
		c-0.8,1.1-2.4,1.7-3.5,2.9c-1.9,2.3-3.3,5.3-5.1,7c-2.2,2-5.9,3.8-8.6,5.6c-5.2,3.7-10.2,7.5-15.2,11.2c-0.8,4.3,1.9,7.7,1.3,11.2
		c-0.2,1.1-1.1,2.1-1.6,3.2c-1.2,3-1.7,5.7-3.7,8c-0.5,1,0.6,2.4,0.3,4c-3.6,0.6-9.1-0.5-9.1-3.5c2.1-0.1,4.8,1,5.9-0.5
		c0.9-2.6-0.8-4.6-0.3-7.5c0.3-2,2.4-3.2,2.9-5.1c0.6-2.1,0.8-6.1,0.5-8.6c-0.3-3.4-3.8-6.1-3.5-8.8c0.2-1.5,2.2-3.4,3.2-3.5
		c1.7-0.1,2.9,2.3,4.3,2.4c1.9,0.2,4.2-2.2,5.9-2.9c1-0.5,2.3-0.4,3.2-0.8c2.3-1,4.7-2.4,6.2-3.5c1.7-1.3,2.7-3.4,4.3-5.1
		c2.1-2.2,5-3.7,7-6.2c1-1.2,1.4-3,2.4-4.3c1.5-2,3.8-3.4,5.1-5.6c0.8-1.3,1.1-2.9,1.9-4.3c0.6-1.2,1.9-2.3,2.4-3.5
		c0.5-1,0.3-2.2,0.8-3.2c0.6-1.3,2.1-2.2,2.7-3.5c0.5-1.1,0.4-2.6,0.8-3.7c0.9-2.4,2.7-4.6,3.7-7c1.2-2.8,1.7-6.1,2.9-8.8
		c0.4-1,1.2-1.7,1.6-2.7c1.4-3.5,1.4-7.5,2.7-11c3.6-2.2,6.2,2.7,8.8,4.3c1.2,0.7,3.4,1,4.8,1.9c2.6,1.6,3.6,3.4,5.9,3.5
		c1.4,0,3.9-1,6.2-1.6c2.1-0.6,4.5-1,6.2-1.6c1.9-0.7,3.6-2.4,5.3-2.7C248.3,217.4,252.9,217.8,254.1,222.1z"/>
	<path class="st0" d="M344.3,222.1c-2.7,1.4-2.1,4.6-3.2,7c-0.9,1.8-2.8,3.2-3.5,5.3c-0.6,1.8,0,3.5-1.3,5.1c0.4,4.8,1,8.7,2.1,14.4
		c0.3,1.5,1.3,6.4,2.9,6.4c3.6-0.1,1.1-13.5,4.3-15c3.5,0.4,0.8,7.1,2.4,9.4c1.8,0,1.9-2.1,2.9-2.9c1.1-0.8,2.4-0.6,3.7-1.3
		c2.9-3.4-0.2-9.6,0.8-13.1c5.4,1.2,3.5,10.1,5.4,15.5c0.4,1.3,1.6,2.5,1.9,3.7c0.5,2.4-0.7,4.4,0.8,5.9c3.2-1.6,1-8.9-0.3-11
		c0-3.1,0.3-5.4-0.3-8.3c-0.4-2-2-3.4-1.3-5.6c1.2-3.8,7.5-1.1,8.6,1.6c0.6,1.5,0.8,4.5,0.5,5.9c-0.8,3.7-6.3,2.8-3.7,8.8
		c7.1,1.4,5,11.8,3.5,16.6c0.6,1.7,3.6,1.1,4.3,2.7c-0.5,1.3-1.6,1.5-2.4,2.7c-1.1,1.6-1.4,4.2-2.4,5.6c-0.5,0.7-2.9,2.8-4,2.7
		c-2.3-0.2-2-4.1-2.9-6.2c-1.9-3.9-6.9-3.5-11.8-5.1c-2.1-0.7-3.8-2.3-5.9-2.1c-2.1,0.5-2.2,2.8-2.9,4.5c-0.7,1.8-2.1,3.5-2.7,5.3
		c-0.4,1.2-0.1,2.5-0.5,3.7c-0.9,2.6-2.9,4.5-3.7,7.2c-0.3,1.1-0.2,2.5-0.5,3.7c-0.6,2.3-2.1,5-2.9,8c-0.3,1.1-0.2,2.4-0.5,3.5
		c-0.2,0.8-0.9,1.4-1.1,2.1c-0.5,1.6-0.2,3.6-0.8,5.3c-0.3,1-1.2,1.7-1.3,2.7c-0.5,3.6,0.5,8.4,0.3,12.8c-0.3,6.2-0.8,12.3,1.1,17.7
		c2.4-2,6.7-6.4,9.1-1.6c-2.1,3.9-7.3,8-8.3,15c-0.5,3.8-0.4,12.4,0.3,15.8c0.3,1.5,1.3,3.3,2.1,3.5c2.4,0.5,6.7-4.6,6.4-8
		c1.6-2.2,6.1-2.6,7,0.3c1,3.6-2.2,8.5-6.7,7.2c-3.3,0.8-3.5,8.8-8.8,8.3c-3.6-0.4-2.9-3-3.5-7.5c-0.2-1.2-0.8-2.3-0.8-2.7
		c-0.2-1.7,0.3-3.9,0-5.9c-0.2-1-0.7-1.8-0.8-2.7c-0.4-2.9,0.3-5.9,0-8.8c-0.4-3.6-1.9-6.9-2.1-10.4c-0.3-3.9,0.3-8.1,0.3-12.3
		c0-3.8,0.3-7.6,0-11.5c-0.5-6.8,0.7-11.5,1.3-18.2c0.3-2.9,1.9-5.3,2.4-7.8c0.4-2.2,0.5-3.9,2.1-4.8c1.9-4.4,2.2-9.1,4.5-13.4
		c2.5-4.7,6-7.3,4.5-15.2c-0.4-2.2-3-3.8-3.7-6.4c-0.7-2.3-0.3-5.1-1.1-7.5c-0.9-2.8-2.3-4.7-2.4-8.8c-3.2-0.9-4.4,3.6-6.7,5.3
		c-1.7,1.3-4.3,2.9-6.2,0.8c3.6-1.4,5.8-6.8,8.3-10.4c1.9-2.8,4.4-5.7,5.6-8.6c0.4-0.9,0.2-1.9,0.5-2.7c0.9-2.4,2.3-4,2.7-6.2
		c0.6-3,0.9-6,3.7-6.4c3-0.5,9,1.3,9.1,3.5C348.6,221.4,346.4,221.8,344.3,222.1z M356.6,261.9c1.4-0.2,2.6-2.5,1.1-3.2
		C357,259.5,355.6,260.5,356.6,261.9z M359.5,268.1c-1.5-1.5-7.2-1.7-6.2,1.3c1,0.2,2.1,0.4,3.5,0.3c2.2,1.1,9.8,3.5,11-0.3
		C365.8,268.2,362.4,267.5,359.5,268.1z"/>
	<path class="st0" d="M566,224.8c2.5,0.9,2.5,4.3,2.9,7.2C566.9,231.9,565.7,227.2,566,224.8z"/>
	<path class="st0" d="M552.9,226.9c2.1-0.2,2.4,2.3,3.2,3.7c0.4,0.7,1.5,1.7,1.6,2.7c0.4,3.7-8.3,10.9-10.7,5.3
		C552.7,238.4,554,233.1,552.9,226.9z"/>
	<path class="st0" d="M250.4,236.5c-4.2,0.9-9.9,4.2-14.2,2.4c1.7-2.1,4.6-2.2,6.7-3.7c1.7-1.3,2.7-3.1,4.3-4.5
		c2-0.2,2.2,1.3,3.2,2.1C250.4,234,250.4,235.3,250.4,236.5z"/>
	<path class="st0" d="M568.1,233.9c2.8,1.5,3.2,5.4,2.9,9.9C569,244,568,238.1,568.1,233.9z"/>
	<path class="st0" d="M60.5,247c4.7,0.2,9.4,2.7,14.7,3.2c1.9,1.3,3.9,3.8,6.4,3.5c2.9-0.4,3.4-4.8,2.9-8.3
		c-7.9-1.8-16.2-3.3-21.4-7.8c0-0.7,0.4-0.8,0.8-1.1c2.5,0.2,5.8,1.6,8.8,2.7c2.5,0.9,5.1,2.7,7.8,3.2c1.4,0.3,2.9-0.5,4.3-0.3
		c6,0.9,4.4,6.3,2.7,11.2c-0.6,1.8-1.4,6.2-3.5,6.4c-2.1,0.2-3.8-3.7-5.6-4.8C73.1,251.6,62.8,253.5,60.5,247z"/>
	<path class="st0" d="M533.9,258.7c-0.3-3.1,1.3-5.7-0.3-7.8c-4,1.1-2.2,6.3-3.5,9.6c-1.4,3.8-6.9,8.3-13.4,6.2
		c-3.4-1.1-7.9-6.6-8.3-11.5c-0.3-3.4,1-7.3,0.8-11.2c3.2-2,9.8-0.8,10.4,2.7c0.6,3-2.9,5.6-0.8,8.8c2.9,0.1,1.6-4.2,2.7-5.9
		c5.2,1.7,1.4,10-2.7,9.6c-4.3-0.4-3.8-7.8-3.2-11.5c-0.2-1-1.8-0.5-2.4-1.1c-2.4,2.5-2.4,6.6-2.1,9.1c0.5,4.5,4.8,8.8,10.7,8
		c1.2-0.2,4-1.2,5.1-2.7c3-4.1-1-13.6,5.3-13.6c4.5,0,5.6,5.5,4.5,9.9c0.8,1.4,4.8,1,5.3-0.3c-1-4,0.7-9.3-1.3-11.8
		c-1.5-1.9-5.3-2.4-7.8-2.1c-3.9,0.5-6.7,4.4-9.6,3.7c0.6-3.4,4.5-6.2,8-6.7c8.1-1.1,13.1,4.1,13.1,10.7c0,2.6,2.4,6.4,1.3,8.6
		C544.4,262.5,535.2,261.9,533.9,258.7z"/>
	<path class="st0" d="M556.3,255.5c2.4-1.7,3.2-4.3,4-8.3C565.3,248.8,560.4,258.9,556.3,255.5z"/>
	<path class="st0" d="M318.3,249.9c-1.3,1.4-4.6-0.1-3.7-1.6C316.4,247.2,317.2,249.3,318.3,249.9z"/>
	<path class="st0" d="M46,255.5c-0.3,0-0.2,0.3-0.3,0.5c-1.2,0.8-2.7-0.2-2.7-1.6C43.7,252.7,45.9,254.3,46,255.5z"/>
	<path class="st0" d="M573.5,264.1c2.8,0.3,2.7,5.8,1.9,8C572.5,271.7,573.7,267.1,573.5,264.1z"/>
	<path class="st0" d="M544,302.3c-3.8-1.7-0.7-8.8-2.7-12c-3.8,0.6-8.4,1-11.8,3.2c-2,1.4-2.4,5.1-6.2,4.3
		c-3.1-0.6-2.9-7.2-3.5-10.4c-0.8-4.3-3-7.7-1.3-11c3.6,0.2,5.2,2.1,9.4,2.1c3.3,0,9.7-1.1,10.2-3.2c0.9-4.1-2.3-9.4,2.7-10.4
		c2.5-0.5,4.6,1.3,5.9,3.5c3,5,3.7,10.2,4.3,17.9C551.5,292.2,553.8,304.4,544,302.3z M541.9,276.4c-0.3,1.2-1.2,2.2-2.4,2.7
		c-1.6,0.7-4.7,1.3-7,1.6c-3.2,0.4-7-0.5-9.1,1.6c0.7,2.6,1.1,5.5,1.3,8.6c4.4-1.5,12.3-6.5,18.2-3.7c4.6,2.2,0,8.8,3.2,12.6
		c4.1,0.6,1.7-4.2,1.3-7c-1-7.4-1.5-14.6-2.9-20.6c-0.3-1.5,0.2-3.5-1.3-4C539.7,268,542.5,273.8,541.9,276.4z"/>
	<path class="st0" d="M237.5,273.4c1.6-0.5,4,1,4,2.9c0.1,3.7-5.4,3.3-5.9,0.3C235.5,275.4,235.8,274,237.5,273.4z"/>
	<path class="st0" d="M150.9,282c-4.9-0.2-5.8-6.5-12.3-5.9c-0.2-0.7-1.1-0.7-1.1-1.6c4.4-1,8.9,0.2,10.2,3.2
		C149.2,278.6,151.6,279.7,150.9,282z"/>
	<path class="st0" d="M132.7,277.2c-0.4,2.5-3.1,2.2-4.5,3.5c-1.2,1.1-1.3,3.1-2.4,4.3c-0.5,0.6-1.6,0.8-2.1,1.3
		c-1.4,1.3-2.2,3.3-4,4c-3.2-1.5,1.2-4.9,3.5-7.2c1.9-2,6.4-6.9,7.8-7C131.6,276.1,132.3,276.3,132.7,277.2z"/>
	<path class="st0" d="M395.1,280.7c-1,2.9-4.9,0.7-4.5-1.1C391,277.2,394.7,278.5,395.1,280.7z"/>
	<path class="st0" d="M406.6,292.4c2.3,1,7.4,0.2,7,2.9c-0.4,2.6-5.8,0.1-6.4,3.2c1.5,2.5,7.4-1.1,7,3.5c-1,2.7-7.1,0.2-7.2,3.7
		c1.5,2.9,6.4-1.4,7.2,1.9c1,3.8-5.9,2.2-6.2,5.3c-0.2,3.4,4.8,1.8,6.2,4.5c-0.6,4.3,0.8,8.4,0,12c-0.3,1.4-1.8,2.2-1.9,3.5
		c-0.1,1.9,2,2.6,1.6,4.3c-0.8,1.9-5.7,1.3-4.3,4.5c0.8,0.9,2.1,0.2,3.2,0c1.2,0.6,2,3.2,0.8,4.5c-1.3,0.2-2-0.4-2.9-0.5
		c-3.2,1.8-4.4,6.4-2.9,10.7c-0.9,2.1-4.8,1.3-5.6,3.5c0,2.6,3.6,2.5,2.4,4.8c-1.2,2.5-6.6-0.2-7.5,3.5c1.6,1.5,5.3,0.8,5.9,3.2
		c0.3,1.2-0.6,2.2-0.5,3.5c0.1,1.7,1.8,3,2.1,4.8c0.7,3.2-0.3,7.9-0.3,12c0,3.2-0.1,6.6,0,9.6c0.1,3.7,1,6.5,0.3,9.6
		c-0.5,2.4-2.5,8.4-1.1,11.5c0.5,1.1,2,1.2,2.4,2.4c-2,2.4-0.8,6.5-1.1,10.7c-0.1,1.6-1,3.3-1.1,4.8c-0.1,1.7,0.4,3.2,0.3,4.8
		c-0.3,2.9-2.4,5-1.9,7.8c0.1,1.5,3.7,1.2,3.5,3.5c-0.4,3.3-6,0.2-8.8,0.3c-1,0-9.4,3.9-9.4-0.5c0-2.4,3.6-1,4-3.5
		c0.3-2.2-0.6-0.9-2.1-3.2c2.9-2.7,4.7-10.4,1.1-13.6c0.9-1.9,2.7-2,2.9-4c0.3-2.4-2.1-4.5-1.9-6.4c0.7-5.1,6.2-0.5,8.8-2.9
		c0.2-3.2-1.5-6.2-5.1-7c-4-0.8-10.9-0.3-12.8,1.6c-0.1,2.6-0.6,5.4-0.5,8c0.1,1.6,0.9,3,0.5,4.3c-0.5,2.2-3.3,2.9-4,4.8
		c-2.8-2.1-4.1-3.7-9.9-3.2c-3.2,0.2-6.7,0.5-9.9,0.8c-5.1,0.5-11.8,3-13.4-1.9c2.4-1,5.6,0.6,8.8,0.5c1.6,0,3.2-0.9,4.8-1.1
		c3.1-0.2,6.2,0.3,8.8,0c0.9-0.1,1.6-0.8,2.9-1.1c2-0.4,3.5,0.2,4.5-0.5c2.5-1.7,1.7-7,1.9-10.4c-5.4,1.4-15.4,0.7-22.5,1.3
		c-3,0.3-6.7,1.8-7.5-2.1c3.3-1.7,7.9,0,12.6-0.3c1-0.1,2-0.7,3.2-0.8c2.2-0.2,4.6,0.4,6.4,0c1-0.2,1.8-0.9,2.7-1.1
		c3.3-0.5,7.6,1.1,8.3-2.4c0.2-1-0.6-1.9-0.5-2.7c-7.1-0.1-15.5,1-23,1.1c-1.4,0-2.7-0.6-4-0.5c-3.1,0.2-6.4,2.8-8.8,0.5
		c3.9-4.4,10.9-2,17.7-2.9c1.1-0.1,2.1-0.9,3.2-1.1c4.7-0.7,10,0.6,14.4-0.3c1.4-0.4,1.6-2.4,1.1-4c-5.8-0.4-13.1-0.5-20.1,0.3
		c-1.1,0.1-2.1,0.7-3.2,0.8c-3.7,0.3-7.7-0.2-11-0.3c-1.7,0-4.2,1.3-4.5-1.3c2.1-1.7,6.7-0.3,10.2-0.8c1.3-0.2,2.4-1,3.5-1.1
		c1.1-0.1,2.7,0.5,4.3,0.5c1.9,0,4.5-1,7.2-1.1c2.6,0,6.2,0.2,8.6,0c3.1-0.2,9.2-1.7,7.2-5.3c-1.7,0.1-3.3-1.4-5.1-1.3
		c-1.1,0-1.8,1-2.9,1.3c-2.5,0.7-5.5,0.9-7.5,0.5c-1.1,0.2-0.9,1.6-2.1,1.6c-3-0.1-6.7-0.4-10.2,0c-1,0.1-2,0.7-2.9,0.8
		c-0.9,0-1.7-0.5-2.7-0.5c-2.4,0-5.5,2.2-6.7-0.8c0.3-1.9,2.2-1.4,2.4-2.9c0.2-1.5-1.8-1.9-1.6-4c1.3-0.9,3.3-0.4,4.5,0.3
		c5.4-1.1,17-4.9,17.7,2.9c6.5,0.9,11.2-2.4,18.2-1.9c2.2-1,2.8-5.7,1.6-8.3c-2.1-2-8.8,0.6-10.4-1.9c2.6-2.3,9.2-0.6,12.3-2.4
		c0.9-6.2,5.2-12.4,2.9-19.3c-2.2-1.8-6.2-1.9-7.2-4.8c0.5-1.4,1.5-1,2.1-1.9c1-1.3,0.7-3.3,2.1-4c2.2-1.1,4.1,0.6,6.4,0.8
		c1.8,0.2,5.1,0.4,6.4,0c2.3-0.7,3.3-6.5,2.9-10.7c-0.4-4.2-0.6-8.8-1.1-12.3c-0.4-2.6-1.7-5.3-2.1-8c-0.6-4.1,0.7-8.3-0.3-12.6
		c-2.2-1.6-4.5-3.2-1.9-6.4c-0.1-1.5-1.2-2-1.3-3.5c0.5-1.9,2.3-1,2.7-2.7c0.5-2.1-1.9-3.1-2.4-5.1c1.3-1.5,2.8-2.7,5.9-2.4
		C404.5,286.3,405.5,289.4,406.6,292.4z M394.8,383.6c0.6,2.4,4.5,1.8,3.7-1.3C397.3,381,395,382.2,394.8,383.6z M394,393.8
		c-0.1,2.4,0.4,5.4-0.5,7c-1.6,1-4.8,1.4-3.7,4.3c2.4-0.4,5.1,0.4,7.2-0.3c4.4-1.3,3.1-10.3,2.4-13.9
		C396.8,390.2,395.7,392.8,394,393.8z M387.6,412.5c3.3-0.9,12.2,2,11-3.5C395.3,407.9,386.1,407.3,387.6,412.5z M395.9,454
		c1.4,0.2,2-0.3,2.7-0.8C399.2,447.9,393.8,451.1,395.9,454z"/>
	<path class="st0" d="M123.6,297c2.2-6.5,4.9-12.4,14.4-11.5c4.8,2.6,0.8,5.7-3.2,8.3c-2.6,1.7-5.2,3.9-6.7,4.5
		C126.1,299.2,124.3,298.5,123.6,297z"/>
	<path class="st0" d="M113.7,294.3c-2.4,2-4.9-0.8-6.2-2.4C108.9,289.6,113.4,292.1,113.7,294.3z"/>
	<path class="st0" d="M134,306.6c0.3-2.2,2.6-2.2,4-3.5c2.2-2,2.2-5.5,4.3-7.8c1-0.2,2.2,0.8,2.4,1.6c0.6,2-3.1,11.5-5.9,12
		C136.7,309.5,135.7,308.6,134,306.6z"/>
	<path class="st0" d="M227.6,303.7c-2.1,0.2-3.2-1.2-2.9-2.4C225.2,298.3,230.3,301.3,227.6,303.7z"/>
	<path class="st0" d="M103,308.5c1.6-4.1,9.5-0.5,8.8,2.4C111,314.5,103.6,309.7,103,308.5z"/>
	<path class="st0" d="M232.2,317.6c-1.3,11.8,3.3,19,5.6,28.1c0.7,2.9,1.6,5.8,2.7,8.6c2.8,7.6,5.8,16.3,9.1,24.1
		c1.2,2.7,2.7,5.6,4.3,8.8c0.9,1.9,2.2,4.1,2.4,5.3c0.3,1.9-0.8,3.7-0.8,5.6c0,2.2,1.1,5,1.9,7c1.6,4.4,3.4,9.3,6.2,12.8
		c-1.1,2.9,2.3,4.6,2.9,7c0.2,0.8-0.1,2,0,2.9c0.4,2.5,2.4,4.7,2.7,6.7c0.2,2-0.7,4.2-0.5,6.4c0.2,2.7,1.8,5.5,1.9,8
		c0.2,6.1-3.8,12.7,0.3,18.5c3.4,2,5.2,4.3,6.7,8.6c1.4,4,4.3,6.4,5.9,10.7c3.8,4,9-3.5,11.5,1.6c-0.6,1.9-2.1,4.7-4.5,5.1
		c-1.9,0.3-2.6-0.8-4.5-1.6c-0.9-0.4-2-0.2-2.7-0.5c-1.8-0.9-3.1-3.1-5.1-3.5c-1.8-0.4-4.7,0-7,0c-12.2,0.1-25-1.4-35.6,1.3
		c-2.7,0.7-5.8,3.9-8.6,1.3c0.9-2,3.7-3.6,6.4-4.3c3.6-0.9,10.4-1,11-5.1c0.4-2.7-2.9-6.8-3.2-9.9c-0.1-1.3,0.3-2.6,0.3-4
		c-0.2-4.6-1-9.9-1.1-13.9c0-1.3,0.6-2.6,0.5-3.7c-0.1-2.8-1.6-5.7-1.9-8.6c-0.6-6.6,1-13.3-0.3-19.5c-0.2-1-0.9-1.9-1.1-2.9
		c-0.5-2.8,0.2-5.6-0.3-8c-0.9-4.7-3.3-7.8-4.5-13.1c-1-4.5-4.7-5.9-4.3-11.8c0.1-1.5,0.7-2.3,0.8-3.5c0.1-2.9-1.5-6.5-1.3-8.8
		c0.1-1.6,1.6-3,1.9-5.1c0.3-3.3-0.8-5.7-1.3-8.6c-2.6-0.6-4.7-2.1-8-1.1c-1,0.3-7,5.7-8,1.6c-0.7-2.9,4.1-3.5,6.2-4.3
		c0.9-0.4,3-2.4,5.1-3.2c1.5-0.6,3.7-0.5,4.3-1.1c2.4-2.4,0.3-6.9,0.3-10.4c-3.6-2.2-5.6-6-6.2-11.2c-0.5-1.3-2.9-0.7-2.7-2.7
		c2.5-1.4,6.8-0.7,6.2-4c-0.5-2.4-4.3-1.4-5.1-4c-0.5-3.4,1.9-4.9,3.5-7c1-1.2,1.1-2.7,2.1-2.9c1.9-0.5,3.9,1.7,5.3,1.6
		c1.8-0.2,2-3.5,4-3.7c1.3-0.2,2.8,0.8,3.2,2.4C239.6,313.6,235.8,314.3,232.2,317.6z M269.6,473.2c-2.6-4.1-5.9-9.3-5.1-15.8
		c0.4-3.3,1.5-8.4,0.8-13.1c-0.3-1.8-1.6-3.5-1.9-5.1c-1-5-0.7-9.9-2.4-14.4c-0.8-2-2.2-3.7-2.9-5.6c-0.9-2.2-1.5-4.3-2.4-6.4
		c-1.8-4.4-2.5-8.8-4-13.6c-0.7-2.1-2.6-4.3-1.9-7.5c-1.4-5.7-4.5-10.1-6.4-14.7c-2.1-4.9-2.8-10.4-5.3-15.2c-0.3,0-0.3-0.2-0.5-0.3
		c-0.6,0.2-0.7,0.9-1.3,1.1c-1,4.4,0,8.3,0.5,12.6c0.7,5.7-0.5,11.5,0,17.4c0.4,4.8,3.1,9.1,4.3,12.6c2,5.9,4,11.7,4.5,18.7
		c0.3,3.3-0.6,6.6-0.5,9.1c0.1,8.5,2.6,16.5,2.1,25.7c-0.2,4.6-0.1,9.7,1.1,14.2c0.7,3,2,5.7,3.2,8c5.2,1.3,11.3,3,17.1,2.9
		c1.2,0.9,5.1,1.4,6.2,0C275.3,479,271.6,476.4,269.6,473.2z"/>
	<path class="st0" d="M553.7,307.1c1.3,0.1,2.1,1.9,1.3,3.2C553.2,310.4,552.7,308.4,553.7,307.1z"/>
	<path class="st0" d="M293.2,342.2c-5.5,0.7-8.1-1.6-9.1-5.3c2.5-1.7,5.6-3.8,4.3-7.2c-0.8-2.1-3.8-1.8-4-4.5
		c2.4,0.3,4.6,1.7,5.3-0.5c0.5-1.3-1-2.5-1.3-4.3c-0.7-4,0.2-9.5,1.1-11.8c2.9-1.3,6.3,1.6,6.4,4.5c0.1,1.8-1.2,3.6-1.3,5.3
		c-0.1,1.2,0,3,0.3,4c0.4,1.7,1.8,3,1.9,4.3c0.1,1.4-1.5,2.7-1.6,4.3c-0.1,1.3,1.1,2.6,1.1,3.7c-0.1,1.2-1.2,1.9-1.6,3.2
		C294,339.6,294.6,341.5,293.2,342.2z"/>
	<path class="st0" d="M120.4,310.9c2-0.6,4.3,0,4.3,2.1C124.6,318.4,114.2,312.9,120.4,310.9z"/>
	<path class="st0" d="M127.6,316.5c0.9-5.3,9.4-0.9,8.8,1.9C135.8,321.5,128.2,318.5,127.6,316.5z"/>
	<path class="st0" d="M553.9,321.6c1.7,0,2,2.8,1.3,4.3C553.2,325.9,552.5,322.7,553.9,321.6z"/>
	<path class="st0" d="M553.7,337.6c1.4,0.3,1.8,2.9,0.8,4C552.5,341.4,552.8,339,553.7,337.6z"/>
	<path class="st0" d="M550.7,359.6c2.1,0.2,1.9,4.2,0.5,5.1C548.8,364.6,550.3,360.7,550.7,359.6z"/>
	<path class="st0" d="M548.9,376.1c0.4-0.1,0.5,0.3,0.8,0.3c0.7,1.2-0.2,2.7-0.5,3.7C547.2,380,548.4,377,548.9,376.1z"/>
	<path class="st0" d="M332.2,396.2c-1.1,0.7-2.7-0.1-2.4-1.6C330.9,393.9,332.5,394.7,332.2,396.2z"/>
	<path class="st0" d="M544.3,401c0.4-0.1,0.5,0.3,0.8,0.3c-0.7,2.5,0.7,7,0,9.1C541.6,410.8,542.9,402.8,544.3,401z"/>
	<path class="st0" d="M333.3,401.3c2.2,1.1,0.7,2.6,0.5,5.1c-0.2,2.8,0.8,4.9-1.1,5.3C328.6,412.7,326.2,400,333.3,401.3z"/>
	<path class="st0" d="M540.6,420.5c-2.7-0.2-0.7-5.7,1.1-2.9C541.6,418.9,541.4,420,540.6,420.5z"/>
	<path class="st0" d="M273.9,425.1c-1.1,1-2.8,0.3-2.9-1.1C272,422.9,273.9,423.2,273.9,425.1z"/>
	<path class="st0" d="M334.1,452.6c-3.1-0.5-4.8-3.3-4.8-8c0-5.7-0.6-16.4,1.1-17.9c0.4-0.4,0.9-0.5,1.6-0.5c2.5,1.5,2.3,5.1,2.9,8
		c0.3,1.5,1.4,3,1.3,4.5c-0.1,1.9-1.9,3.4-2.1,5.3C333.6,447.3,336.1,450,334.1,452.6z"/>
	<path class="st0" d="M539.8,430.4c-1.1,0.1-1.4-0.8-1.9-1.3C538,426.4,541.2,428.7,539.8,430.4z"/>
	<path class="st0" d="M381.7,441.4c-1.1,1.1-3.5,2.5-5.6,2.7c-2.1,0.1-5.9-2-5.9,1.9c0.7,2,12.1-1.2,11.5,3.2
		c-0.3,2.3-6.3,1.1-4.8,5.9c-1.8,2-6.3,1.4-7.2,4.3c2.5,1.3,6.6,1.1,6.2,4c-0.3,2.1-4.1,1.7-4.8,4c0.1,2.1-0.4,3.6-1.3,4.5
		c-1.4,0.2-1.9-0.4-3.2-0.3c-1.6,2.4-4.4,3.6-5.9,0.3c0.4-7.6-1.9-14.5,0.3-20.9c0.5-1.4,1.8-2.4,1.9-3.7c0.1-2.2-2.2-3.5-2.1-5.3
		c3.3-1.3,7.1-1.2,12-1.9C376.6,439.6,380.4,438.1,381.7,441.4z"/>
	<path class="st0" d="M528.3,450.8c-0.4,1.6-1.6,2.3-2.4,3.5c-0.9,0.2-0.8-0.4-1.3-0.5C524.5,451.6,526.9,449.7,528.3,450.8z"/>
	<path class="st0" d="M332.5,463.6c-5,0.2-1.8-9,1.3-5.1C333.9,460.7,334,462.9,332.5,463.6z"/>
	<path class="st0" d="M423.4,486.9c5.3,0.4,12.1-0.6,18.5-0.8c1.3,0.6,1.9,3.4,0.8,4.8c-3.2,0.6-7.7,0.3-10.2-0.8
		c-4.4,2-10.3,0.4-15.5,0.8c-1.8,0.1-3.6,1.2-5.3,1.1c-1.3-0.1-2.6-1-3.7-1.1c-2.5-0.1-6.7,2.5-7.2-1.6c4.4-1.1,14.9,1.5,16-3.5
		c0.6-2.8-1.1-5.3-4.3-5.6c-2-1.7-2.6-4-4.3-6.2c-2.3-2.8-5.7-3.8-5.9-8.6c-3.2-1.8-10.7,1.5-13.1-2.1c0.4-1.3,2.3-0.9,3.2-1.6
		c1.2,0,1.3,1,2.4,1.1c5.7-2,10.7-5,13.4,0.3c0.5,1,0.4,2.3,0.8,3.2c0.7,1.4,2.3,2.4,2.9,3.7c0.7,1.5,0.5,3.3,1.3,4.8
		c1.3,2.3,3,1.9,5.3,3.5c2.1,1.4,2.4,4.3,4.5,5.6C423.1,485,423.1,486.1,423.4,486.9z"/>
	<path class="st0" d="M521.3,463.3c-0.8,2-2.5,2-3.5,3.5c-1.7,2.5-1.4,5.8-2.7,8.6c-1.3,2.9-6.8,4.1-8.3,7.8
		c-0.5,1.2-0.3,2.5-0.8,3.5c-1.5,2.9-5.9,4-7.2,7.5c-0.7,1.8-0.1,3.8-1.1,5.9c-0.9,1.8-3.6,2.5-4.8,4c-0.9,1.2-1.1,3.1-1.9,4.5
		c-0.8,1.4-2.4,3.1-3.5,4c-2,1.6-4.8,1.5-6.7,3.2c-1.7,1.6-1.6,4.9-4.5,4.8c-0.2-0.5-0.6-0.8-1.1-1.1c0.5-6.1,7.6-5.4,11-8.6
		c1.6-1.5,1.8-5.4,3.5-7.5c0.9-1.1,2.8-1.5,3.7-2.7c1.5-1.9,1.2-5.1,2.4-7.5c1.7-3.2,5.9-4.7,7.5-7c1.1-1.6,1.1-4.2,2.1-5.6
		c1.3-1.8,4.1-2.5,5.6-4.3c1.5-3.4,4.2-12.8,7.2-13.9C519.3,462.2,520.8,461.9,521.3,463.3z"/>
	<path class="st0" d="M349.1,467.6c-0.9,1.2-1.7,0.1-3.2,0.3c-3.5,0.4-7.1,3.4-8.6,0.3C338.1,465.1,348.3,463.3,349.1,467.6z"/>
	<path class="st0" d="M354.4,479.4c-1.6,2.5-4.6,0-7-0.5c-2.6-0.6-6.2-0.1-7.2-2.4c-0.1-0.4,0.3-0.5,0.3-0.8
		C346,474.9,353,475.1,354.4,479.4z"/>
	<path class="st0" d="M379.6,482.9c-0.1,1.9,0.4,4.3-0.8,5.1c-3.3,1.3-4.3-2.2-7-2.4c-4-0.3-9.3,4.9-12.6,6.2
		c-4.2,1.3-6.4-2-9.6-2.4c-1.2-0.1-2.4,0.4-3.7,0.3c-2-0.2-4.1-1.9-6.2-2.1c-3.2-0.4-7.8,0.4-10.7,1.1c-2.2,0.6-5.1,2.3-6.2-1.1
		c2.5-2.7,6.2-3.7,10.7-3.7c3.4-0.1,7.2-1.1,11-0.5c2.6,0.4,5,2.6,8,3.2c0.9,0.2,2.1-0.1,3.2,0c2.1,0.3,3.6,1.5,4.8,1.3
		c2.9-0.3,3-2.9,4.8-4.5c2-1.8,4.3-2.8,7.8-3.5c2.4-0.5,4.8-2.3,7-2.4c2.8-0.2,3.7,0.6,3.7,1.9C383.9,481.1,379.5,481.5,379.6,482.9
		z"/>
	<path class="st0" d="M218.3,479.4c-1.4,0.9-5,6.4-7.5,6.2c-3.6-0.4-1.5-7.3,3.2-6.2C215.4,478.6,217.4,477.2,218.3,479.4z"/>
	<path class="st0" d="M203,486.9c-1.1,0-1.6-0.5-1.6-1.6C202.5,484.3,204,485.8,203,486.9z"/>
	<path class="st0" d="M397.7,490.6c-2.4,0.9-8.5,1.3-8.8-1.6C391,487.6,397.4,487.8,397.7,490.6z"/>
	<path class="st0" d="M455.8,500.2c0.1,1.3-1.7,0.8-1.9,1.9c5.8,0.1,12.2-0.9,18.2-1.6c2.9-0.3,6.9,0.4,8.3,0
		c1.3-0.4,1.2-2.3,3.2-3.2c2.1-0.9,4.8-0.8,5.1,1.1c0.5,2.8-6,3.8-9.1,4.3c-4.4,0.7-7.9,1-11.5,1.6c-3.6,0.6-5.8,1.3-9.9,1.3
		c-8.1,0-14.8,2.4-22.7,2.4c-4,0-8.8-0.1-11.2,2.4c0.8,5.1,4.8,7.9,8.3,11.2c3,3,5.2,5.5,10.2,6.2c1.1,2.2,3.8,5,3.5,7.5
		c-0.5,3.6-9.1,6.4-14.7,5.6c-3.1-0.8-1.7-5.3-4-6.4c-2.7-1.3-9.2,2.8-11,4c-0.9,4.7,3.4,5.5,3.2,8.6c-4.7,2.2-6.7-3.6-7-5.9
		c-0.7-6.1,3.9-8.1,8.3-9.6c4.5-1.6,6.9-1,9.4,1.9c0.9,1,1.6,3.2,2.9,3.7c2.6,1.1,8.3-2,8.6-4c0.4-3-3.1-3.6-5.3-4.8
		c-3.8-2.1-6.1-5.7-9.6-8.8c-4.2-3.7-7-4.8-8.6-9.6c-2.2-0.6-3.6,1.5-5.9,1.6c-1.7-0.1-0.3-1.6-1.6-1.9c-6.9-1-13.6,1.2-20.3,1.3
		c-4.9,0.1-9.9-0.4-15-0.3c-3.2,0.1-6.5-0.4-9.6-0.5c-5.9-0.3-12.1,0.4-18.2,0.5c-4,0.1-8.2-0.4-12,0c-1.2,0.1-2.5,0.7-3.7,0.8
		c-1.4,0.1-2.8-0.5-4.3-0.5c-3.1,0-7,1.1-11,1.3c-0.9,0.1-1.8-0.3-2.7-0.3c-3,0-5.8,1.2-8.6,1.3c-1,0.1-2-0.4-2.9-0.3
		c-2.1,0.2-4.2,1.3-6.4,1.6c-4.4,0.5-9.1-0.8-13.4-0.3c-4,0.5-7.7,1.6-11.5,1.3c-1.2-0.1-2.5-0.7-3.7-0.8c-3.8-0.3-9.4,0-12.6,0.5
		c-2.4,0.4-4.4,2.6-8.8,1.9c-1.3-0.2-2.4-1.3-4-1.6c-1.4-0.2-3.1,0.2-4.5,0c-1.8-0.2-3.5-1.3-4.8-1.3c-2.9-0.2-6.1,0.8-9.1,0.8
		c-7.9-0.1-16-1.4-24.1-1.3c-2.5,0-5.2-0.6-7.8-0.8c-2.6-0.2-5.8-0.6-7.8,1.3c3.3,3.4,7.6,7.9,8.6,13.4c1.7,10-5.5,16.7-11.2,19.5
		c-0.2,3.1,3.2,3.7,1.9,6.4c-2.1,4.4-12.8-3.7-13.9-5.4c-0.6-0.8-1.1-2.4-1.1-2.9c-2.7-2.9-7.1-4.7-9.6-8.3c-1.4-2-3.5-5.4-3.5-7.2
		c0-1.7,1.2-4.3,1.9-6.4c1.4-4.3,3.7-6.9,6.4-9.6c-5.4-1.9-11.7-0.3-17.9-1.1c-1.2-0.1-2.3-0.9-3.5-1.1c-4.7-0.7-10.1,0.1-13.9-0.8
		c-1.3-0.3-1.7-1.4-2.9-2.1c-1.4-0.8-3.1-0.4-3.7-1.9c4.1-3,11.4-0.3,16,0.3c7.9,1,16.5-0.9,24.6-0.3c1,0.1,1.9,0.7,2.9,0.8
		c7.4,0.6,16.2-0.8,23.8-0.8c4.2,0,8.3,1.9,11.2,1.6c1.6-0.1,3-1.4,4.5-1.3c1.7,0,3,1.4,4.3,1.6c4.8,1,10.6,0.3,15.8,0
		c6.6-0.4,14.5-0.5,21.9-0.5c2.5,0,4.9,0.9,7,0.8c1.2-0.1,2.3-0.9,3.5-1.1c5-0.5,10.6,1,16,0.8c1.8-0.1,3.5-0.7,5.3-0.8
		c1.4-0.1,2.9,0.3,4.3,0.3c1.6-0.1,3.2-0.7,4.8-0.8c7.7-0.4,15.7,0.8,23.5,0.3c7.4-0.5,15.6-1,23.3-1.9c3.8-0.4,6.7-2.1,11.5-1.6
		c2.8,0.3,5.3,1.2,8,1.3c2.5,0.1,4.9-0.6,7.5-0.8c6.9-0.6,14.1,0.9,20.9,0c1.7-0.2,3.6-1,5.3-1.3c1.6-0.3,3.8,0,4.8-1.9
		c-3-0.8-6.1,0.5-9.4,0.5c-6.4,0.1-14-1.1-21.1-0.5c-4.3,0.3-8.6,1.2-12.6,0.8c-1.9-0.2-3.8-1.1-5.6-1.1c-5.7,0-11.3,1.9-16.8,1.1
		c-1.4-0.2-2.7-1.4-4-1.6c-2.5-0.3-5.4,1.3-7.8,1.6c-4.2,0.5-8.7-0.3-13.4-0.5c-5-0.2-10.5-0.1-15.5,0c-28,0.5-61.5,0.6-87.5,0
		c-1.4,0-2.9,0.5-4.3,0.5c-8.6,0.4-17.1-0.8-25.1-0.8c-1.9,0-3.8,0.4-5.6,0.3c-2.4-0.1-4.8-1.1-7.2-1.3c-4.8-0.4-9.7,0-14.7,0
		c-2.8,0-5.4-0.9-8-1.1c-2.1-0.1-4.8,1.6-6.2-1.3c3.6-3,8.1-0.6,12.6,0c5,0.7,12-0.8,18.5-0.3c3.8,0.3,7.4,1.1,10.4,0.8
		c1.2-0.1,2.4-0.7,3.5-0.8c1.3-0.1,3,0.8,4.3,0.5c1.2-0.2,2.1-1.9,3.2-2.1c2.4-0.6,4.8,1.3,7.2,1.6c5.5,0.6,13-0.8,20.1-1.1
		c3.7-0.2,7.3,0.2,10.7,0c4.7-0.3,9.1,0.5,13.4,0.5c1.3,0,2.5-0.5,3.7-0.5c3,0,6.1,0.5,9.6,0.3c1-0.1,1.9-0.8,2.9-0.8
		c1,0,2.1,0.4,3.2,0.5c4.1,0.3,8.7-0.6,12.8-0.3c7.5,0.5,15.3,0.5,22.2,0.3c2.8-0.1,5.2,0.8,8,1.1c3.1,0.3,6.8-0.6,10.2-0.5
		c1.8,0,3.3,0.7,4.8,0.5c1.2-0.1,2.3-1,3.7-1.3c3.5-0.9,7.8-0.7,9.9-1.9c5.5-1.4,8.2,2.9,12.8,3.2c1.1,0.1,2.3-0.5,3.5-0.5
		c4.7-0.2,9.8,0.3,14.4,0.3c1.7,0,3.3-0.9,5.1-0.8c1.4,0.1,2.6,0.9,4,1.1c5,0.5,10-0.6,15.2-0.8c1.5-0.1,3,0.5,4.5,0.5
		c7.4,0,14-1.5,21.7-0.5c1,0.1,1.9,0.8,2.9,0.8c2.8,0.1,5.5-0.5,8.3-0.5c3.1,0,6.3,1.3,9.4,1.3c3.7,0.1,7.2-0.8,10.7-1.1
		c1.8-0.1,3.1,0.7,4.8,0.8c1.2,0.1,2.3-0.6,3.5-0.5c1.1,0.1,2.3,0.7,3.5,0.8C449.8,498.9,453.5,497.6,455.8,500.2z M392.9,504
		c2.6,0.4,5.5,1.8,8.6,1.9c6.2,0.2,13.4-1.8,19.8-1.6c2.9,0.1,4.4-0.3,7-0.5c1.8-0.2,4.7,0.7,5.1-1.6c-12-0.4-25.8,1-38.8-0.3
		C394,502.5,392.4,503.2,392.9,504z M437.3,503.5c1.4-0.1,2.4-0.6,2.9-1.6C438.7,501.8,437.9,502.5,437.3,503.5z M434.4,503.7
		c1.6,0,2.7-0.5,3.2-1.6C435.9,502,435,502.7,434.4,503.7z M179.5,546.8c0.2-1.4,2.8-3.3,3.7-4.3c1.4-1.5,3.1-2.7,3.7-4.3
		c2.5-6.2,0.2-10.4-2.4-15.2c-0.5-0.9-0.6-2-1.1-2.7c-6.7-9.5-25-3-24.1,8.3c0.1,1.5,1.3,3.4,2.1,5.1c1.7,3.3,3.1,5.2,5.1,7.5
		c1.9,0.7,3.5,1.7,4.5,3.2c-0.1,1,0,2,0.3,2.7c2.8,1.5,5.4,5.1,8.8,4.3C181,549.3,179.1,549,179.5,546.8z"/>
	<path class="st0" d="M410.3,512.6c-0.9,1.7-5.3,1.3-5.9,3.7c-0.4,1.5,1.3,3.5,1.3,5.1c0.1,3.1-2.2,6.5-2.1,10.2
		c0.1,6.3,4.9,10.4,5.1,15c-2.7-0.6-6.1-5.9-7.2-8.6c-0.6-1.5-0.7-5.9-0.3-8.6c0.2-1,1.2-2,1.3-2.9c0.7-3.7-1-5.9-2.9-8.3
		C400.2,513.6,406.1,511.7,410.3,512.6z"/>
	<path class="st0" d="M172.5,519c5.1-0.9,11.6,4.4,12,10.4c0.5,7-6.2,12.7-14.2,9.9c-3.9-1.4-8.2-6.9-7.8-11.2
		c0.1-1.2,1.9-5.4,2.9-6.4C166.8,520.5,170.4,519.3,172.5,519z M175.8,536.1c8-1.6,6-17.1-4.3-14.2
		C163.7,524.9,167.3,537.8,175.8,536.1z"/>
	<path class="st0" d="M140.7,525.7c-4.7-0.6-0.6-7.1,0.8-3.2C141.9,523.6,141.5,525.1,140.7,525.7z"/>
	<path class="st0" d="M415.1,522.2c1.4-0.6,3.9,0.8,3.5,2.7C417.7,528.8,411.1,523.9,415.1,522.2z"/>
	<path class="st0" d="M474.2,524.9c-1.5,2-4.4,2.6-7.5,2.9c-0.2-0.6-0.9-0.7-1.1-1.3C466.5,524.2,472.6,522,474.2,524.9z"/>
	<path class="st0" d="M392.4,533.7c-3.8,0.4-3.4-5.7-7.2-6.2c-1.6,0.8-3.9,0.2-6.2,0.5c-2.9,0.4-9,3.3-12.6,4.3
		c-2.3,0.6-5.7,1.2-5.9,3.5c-0.2,1.9,3.8,5.7,4.5,7.2c0.4,0.9,0.4,2,0.8,2.9c0.8,2,2.3,3.8,2.9,5.9c1.1,3.4,0,7.2,2.4,10.2
		c2.4,0,4.7-2.2,6.7-3.5c0.6-4.1-4.5-6.9-4.3-10.7c0.2-2.5,2.8-4.7,5.3-4.3c5.4,0.8,4.7,9.3,7.2,13.6c3.4-1.8,7.3-3.1,8.8-6.7
		c-1-1.3-2.5-0.2-4-0.5c-2.1-0.5-5.3-3.7-5.6-5.1c-0.7-3.3,2.3-6.5,5.4-7.5c3.5,2.4-2.5,5.6-2.4,8c0,1.3,1.6,2.5,3.2,2.7
		c3,0.4,7.4-2.2,7,2.9c-0.2,2.6-3.7,4-5.3,5.3c-1.8,1.5-3,4.4-7,3.5c-3.7-0.9-3.7-6.8-6.2-10.7c-1.3-0.1-1.3,1.1-2.1,1.3
		c0.8,3.4,3.8,6.1,3.2,9.6c-0.5,2.9-6.4,6.4-11.5,5.1c-3.3-2.6-2.8-9.1-4.8-14.7c-1.3-3.6-3.1-7-4.8-9.4c-2.3-3.2-6.8-6.6-1.6-9.9
		c1.2-0.8,4.3-1.6,7.2-2.4c5.8-1.6,16.2-6.5,22.7-2.9C390.9,527.3,392.4,530.5,392.4,533.7z"/>
	<path class="st0" d="M221.2,533.7c-0.6,3-5.1,4.8-6.2,8c-1,3.2-0.7,7.4,0.3,10.7c2.6,1,4.7,0.8,6.4-0.5c2.1-1.5,4.9-9.1,4.8-13.4
		c0-1.5-1.3-3.6-0.8-5.1c1.5-4.5,8.6,0,12.3-0.3c1.7,1.4,4.2,1.8,5.3,3.7c-0.5,1.9-2.1,1.8-2.7,3.5c-0.7,2.2,0.1,5.1-0.5,7.5
		c-1,4.1-6.6,5.7-7.5,9.6c-4.4,1.9-9.8,5.7-15,6.4c-6.5,0.9-10.5-1.7-13.4-5.6c-2.7-3.6-4.4-9.8-3.5-16.6c0.3-2.1,1.6-4.1,2.1-6.4
		c1.2-4.9,1.1-7.2,8-6.4C214.8,529.3,219.5,531.4,221.2,533.7z M210,533.1c-4.1,6.7-8.8,19.7-2.4,27c2.5,0.8,5.1,2.1,7.8,2.1
		c2.8,0.1,5.5-1.7,8.6-2.9c3.6-1.5,3.8-1.5,6.4-4c1.1-1.1,2.8-2,3.7-2.9c3.4-3.5,4.5-9.3,2.9-15.2c-1.6-0.5-3.3-1-4.8-1.6
		c-3.1,2.3-0.4,7.3-1.3,11.5c-2,3.5-4.8,7.7-9.1,9.1c-1.5,0.5-4.1,1.2-5.9,0.8c-4.6-1.1-4.4-9.3-3.2-13.9c0.9-3.6,3.8-6.2,3.5-9.1
		C215.1,532.7,212,532.7,210,533.1z"/>
	<path class="st0" d="M152,535.8c-1.7,1.9-5.8,1.7-6.4-0.5C144.1,529.7,152.9,528.5,152,535.8z"/>
	<path class="st0" d="M375.8,538.8c-0.1-1.4,1.9-0.8,1.9-2.1c-5.4-3.2-3.8,4.8-6.2,5.3c-2.1,0.5-4.1-3.8-3.5-5.9
		c0.5-1.9,8.7-6.3,12.3-5.1c2.5,0.8,4.9,4.7,2.1,7.2C381.3,539.3,377.6,540.8,375.8,538.8z"/>
	<path class="st0" d="M299.6,548.1c-0.2-2.3-1.5-6.2,0-9.1c2.2-1.9,7.5-0.7,11.5-0.5c3.5,0.2,6.8,0.3,7.5,3.2
		c0.8,3.6-2.9,5.1-4.3,7.5c-2.9,5-3.5,11.1-7.8,13.6c-0.2,4.8-2.1,7-4,11c-1.1,2.4-2.4,4.6-4.8,4.3c-2.1-0.2-3.9-5.4-5.1-7.8
		c-4.6-9.2-9.7-17.8-14.2-26.7c-0.8-1.7-2.3-3.2-1.6-5.3c2.6-1.7,5.8-1.2,9.6-0.8c3.6,0.3,9.2-0.4,9.6,2.1c0.2,1.4-1.9,2.4-2.1,4
		C293.7,546,297,550.8,299.6,548.1z M281.9,543.6c-0.2,1.7,2.2,5.7,3.5,7.5c3,4.2,4.5,9.8,7.5,13.1c1.1,2.5,2.2,5,3.5,7.2
		c5,2.2,4-9.9,9.1-9.9c2.7-4,3.1-10,5.1-14.4c0.6-1.3,2.5-2.1,1.6-3.7c-2.6-0.7-8.5-2-10.2,0.3c0.4,4.1,1.7,8.5,0.5,12.6
		c-1.8,0.1-3.1,0.8-4.8,1.1c-3.2-4-6-8.4-8.8-12.8c-0.2-1.2,0.4-1.6,0-2.4C285.9,541.3,282.3,540.6,281.9,543.6z"/>
	<path class="st0" d="M352.5,567.6c-3.2,1.9-7.9,1.7-12.3,2.7c-4.1,0.9-7.5,3.4-9.4-0.3c1.2-7.3,1.7-14.6,2.4-21.9
		c2.6,0.4,1.4,2.9,1.3,4.8c0,2.6,0.7,5.7,0.3,8.6c-0.2,1.8-1.5,3.1-0.8,4.5c1.6,1.8,4.9-0.3,7.2-0.8c1.9-0.4,4,0.2,4.5-1.6
		c-0.8-2.4-3.2-3.2-4.3-5.3c0.4-5.8-0.8-10.7-0.5-16.3c-3.1-1.7-6.6,0.4-7.5,2.7c-2.6-0.6-6.2-0.6-6.2-3.2
		c0.1-4.1,12.5-3.8,17.4-4.3c4.4,2.8-2.2,11.3,1.6,16c0,2,0.3,3.7,0.8,5.1C348.6,561.8,351.8,563.6,352.5,567.6z"/>
	<path class="st0" d="M261.6,570.1c-1.5-1.1-0.2-2.6,0-4.3c0.4-3.5-0.3-8.1,0.5-11.8c0.6-2.5,3.5-4.4,1.6-7.2
		c-2.3-0.9-7.4-1.9-8.6,0.5c0.9,4.5-0.3,10-1.1,15.2c-0.4,2.5-0.7,5.2-2.1,6.7c-3.4-1.7-1.1-5.7-0.5-8.8c0.3-1.6,0.4-3.6,0.8-5.3
		c0.4-1.7,1.3-3.3,1.3-4.5c0-1.7-1.2-3.2-1.1-4.8c0.4-7.3,9.9-2.7,15.5-2.7c0.3,0.7,1.8,1.5,1.9,2.7c0.1,1.7-2.1,2.5-3.2,4.5
		C263.9,555.6,266.9,566.9,261.6,570.1z"/>
	<path class="st0" d="M402.8,110c1.6,1.2,3.8,1.7,5.9,2.4c3.6-1.4,2.4-9.8,7.2-10.2c2.2-0.1,4.6,1.3,5.1,3.5
		c1.2,5.7-5.7,7.3-5.6,11.8c2.3,1.4,6.9,3.3,9.6,1.9c-1.4-2.4-3.8-5-2.4-9.4c1.2-2.4,9.3-3.6,9.1-0.3c-0.2,3.3-7.2,0-7.5,4.5
		c-0.2,2.8,4,3.4,4,6.2c0,3.7-4.8,2.3-8,1.6c-5-1-8.9-2.2-6.4-7.5c1.2-2.6,2.5-3.6,2.7-7c-3.9,0.3-3.3,7.3-7,8.3
		c-4.2,1.1-9.9-3.1-10.2-6.2c-0.3-3.5,5.1-6.9,7.5-11.2c1.7-3.1,3.4-7.3,4-9.6c0.8-3.3-0.6-5.8,2.7-6.7c1.1-0.3,5.2,0.8,5.1-1.1
		c-0.1-1.7-3.9-0.9-5.9-1.3c-3.3-0.8-6.2-4.5-8.6-6.7c-2.5-0.5-5.2-0.7-6.2,1.1c4.5,3.8,4.2,13,1.9,19c-4.9,9.2-19.9,12.7-26.5,2.4
		c-2.8-4.4-5.3-16-1.3-21.7c1-1.4,3.6-3.3,5.3-4.3c2.2-1.2,5.4-1,7.2-3.2c-10.2,3-12.9-8.9-19.8-3.2c0.7,1.2,2.4,2.1,2.7,3.7
		c0.7,4.1-3.5,5.3-4.5,9.1c-0.9,3.4-0.4,7.8-0.8,10.7c-0.3,2.3-2.1,3.9-3.7,5.1c-5.3-0.1-12.4,0.2-12-4.5c3.5-2.6,5.6,1.5,9.1,0.5
		c3.2-0.9,2.1-6.5,3.2-9.9c0.3-0.9,1.3-1.6,1.6-2.4c0.6-1.5,0.6-3.2,1.1-4.3c0.5-1.2,2.6-2.4,1.6-4.3c-0.7-1.3-8.6-0.2-8-3.7
		c0.3-1.8,3.4-1.1,3.7-2.7c-4-5-10.9-1-14.7,1.6c1.1,6.2,5.4,0.2,8,0c1.3,1.6-0.8,2.9-1.9,4c-2.5,2.7-4.6,4.2-7.5,0.5
		c-1-1.2-1.5-3.7-2.7-4.5c-1-0.7-4.2-1.6-6.2-1.1c-2.8,0.7-2,3.7-2.7,7c-0.9,4.3-4.9,8-4.3,13.1c3.6,0.8,4.6,2.1,6.7,1.6
		c2.3-0.5,2.4-2.8,4-4.8c1.3-1.6,4.7-3.9,6.4-3.7c3.1,0.3,6,10.6,1.6,11c-2.4,0.2-1.9-2.9-3.2-4.3c-3.8,0.7-3.8,5.3-6.2,7.5
		c-4.3,0.5-10.3-0.9-12.8-2.7c-4.6-3.1-0.2-5.5,1.3-9.6c1-2.5,1-5.6,1.6-7.8c0.3-1.1,1.1-2.1,1.3-3.2c0.6-3.7-0.2-6.7,2.7-8.6
		c-5.9,0.9-11.7-4.6-15.8-0.8c-0.1-0.5,0.5-0.7,0-0.8c-4.3,1-7.7-1.3-11.8-0.8c-2.2,0.3-4.1,1.8-6.2,1.9c-3.1,0.1-5.1-2.5-8-2.9
		c-3.1,1.9,0.6,3.2,1.6,5.3c0.4,4.1,2.4,9,1.1,13.1c3.1,4.3,0.9,14.1-4.8,12.6c-0.7-0.2-1.6-1.3-1.6-1.9c-0.1-1.8,2.6-2,3.5-3.2
		c1.6-2.4,0.4-4.8,1.6-7.5c-2.2-3.3-1.3-8.3-2.9-12.3c-1.6-1-4.5-1.2-5.1,0.8c0.5,1.6,1.5,4.8,0.3,6.4c-5.2,0-5.3-5.1-8-7.5
		c-6-1.2-18.4-4-16.3,5.1c0.6,2.4,2.3,5.3,3.2,8.3c1,3.4,0.8,7,1.9,9.9c2.2,1,8.1,1.2,9.6-0.8c-2.4-1.1-4.1-3-4.8-7
		c-0.7-3.8-3.1-7.8-2.7-9.9c0.2-1.4,1.5-2.4,2.7-2.4c3.5-0.1,4.4,5.3,7.2,6.7c2.3,2.3,4.9,4.2,6.4,7.2c-3.9-0.5-5.1-3.6-8.3-4.8
		c-0.7,0.3-0.9,1.1-1.6,1.3c0.8,5.1,7.5,6.8,5.1,13.4c-6,0.7-15.3,2.4-17.4-2.9c-0.7-1.8-0.1-4-0.5-6.2c-1.3-6.1-5.3-12.9-4-19.5
		c-2.1-2-3.9,0.9-5.9,1.6c-2.4,0.8-5.8-0.1-7.2,2.1c0.1,5.8,3.8,8.2,6.7,11.5c1.5,1.7,3.8,3.4,3.7,5.9c-2.4,0-4.5-2.4-6.2-4.3
		c-1.3-1.5-2.5-3.5-4-5.1c-2.5-2.6-4.9-3.8-5.6-7.8c-3.8-0.2-6.5,3.1-11.8,2.4c-0.3,0.6-0.8,1-1.3,1.3c0.3,2.3,1.2,3.6,1.1,5.6
		c-0.1,3-2.5,5.6-2.7,8.3c-0.4,5.2,3.1,8.7,3.7,13.9c-1.9,0.4-3-1.9-3.7-3.2c-1.6-2.8-3.4-7-2.1-12.3c0.3-1.2,1.7-2.1,1.9-3.5
		c0.6-3.9-2.9-5.3-1.9-8.6c-3.3,0-5.6,1.3-8,1.9c-2.2,0.5-4.6,0-6.7,0.5c-3.4,0.9-5.8,4.4-9.9,5.3c-1.3,0.3-2.6,0.1-3.7,0.5
		c-3.4,1.2-5.5,4.8-9.1,6.4c-3,1.4-5.9,0.5-8,3.2c1.3,3.1,4,6.9,2.7,11c-2.4,1.9-8,0.6-8.6,4.3c3.4,1.2,6.4-1.3,9.4-1.6
		c5.9-0.7,11.4,3.4,12.3,8.6c1,5.2-3.4,11-7,13.1c-1.4,0.8-4.2,1.4-6.4,2.1c-2,0.7-4.7,2.6-6.2,2.4c-3.8-0.4-5.1-8.3-2.4-11.2
		c3-1.2,8.6,0.2,9.6-2.9c-1.9-2.5-6.1,2.7-7.5-0.8c2.1-4.5,12.4-4.4,11.5,1.6c-0.5,3.5-6.3,3.9-8.8,5.3c-1.4,0.8-2.2,2.3-0.8,3.7
		c7.9-1,14.8-4.5,13.9-13.1c-0.4-3.6-3.3-6.1-7.5-5.9c-3.6,0.2-6.8,3.6-11.2,2.4c-2-0.6-3-2.4-2.7-4.8c0.6-4.2,5.9-4,8.6-6.2
		c0.3-0.9-0.5-2.8-1.3-3.5c-4.8,2.7-13.3,2-12.3,10.2c0.7,5.7,6.4,7,9.1,11c-8.4,1.4-15.2-8-11.5-17.1c-3.2,2.4-5.2,5.4-9.4,7.2
		c-2.8,1.2-6,1-8.3,2.7c-2,1.5-2.2,4.7-4.3,6.4c-3.5,3-7.9,3.4-11.2,6.4c-2,3-3.1,6.5-6.4,9.4c-2.2,1.9-6.2,2.8-7.8,5.1
		c-0.5,0.7-0.7,1.9-1.1,2.7c-1.4,2.9-3.1,6.1-5.6,8.3c-1.5,1.3-3.7,2-4.8,3.5c-0.8,1.1-0.7,2.6-1.3,3.7c-1.3,2.6-4.5,6.2-7,7.8
		c-2.4,1.5-5.9,2-6.4,4c-0.4,1.7,0.4,3.4,1.1,4.8c0.9,3.7-3.2,6.4-3.2,9.1c0,2,1.9,3.4,3.5,4.8c2.7-0.9,2.2-4.9,4.8-5.3
		c3.2-0.5,5.5,4,9.4,6.2c1.1,0.6,2.5,0.6,3.5,1.1c1.2,0.6,2,1.7,2.9,2.1c3.5,1.5,6.6,0.7,11,0.8c4.6,2.2,0.8,5.4-1.1,9.4
		c-1.3,2.8-2.7,5.2-3.2,6.7c-0.9,2.5-0.8,4.7-3.2,4.8c-2.6,0.1-7.8-6.5-9.4-8c-1.5-1.5-3-2.9-4.5-4c-1.5-1.1-4.1-2-3.5-4.5
		c2.5-1.2,3.5,1.7,5.1,2.9c2,1.6,4.6,2.8,6.4,4.5c1.1,1,1.6,2.8,3.2,3.2c2.7-2.1,3.3-6.3,5.1-9.4c-2.3-1.4-3.5,0.5-5.9,0
		c-1.2-0.2-2.6-1.8-4.3-2.9c-1.6-1.1-3.4-1.9-4.5-2.7c-1.8-1.3-3.5-4.2-5.4-4c-3.6,0.3-2.4,5-2.4,8c-4.8,0.2-5.5-5.1-8-7.5
		c-0.8-0.8-3.4-2.3-4.5-2.1c-2.6,0.3-3,5-4,6.7c-2.5,4.3-9.7,7.4-9.1,13.6c1.8-0.2,2.1-4.1,4-5.1c4.7-0.1,6.9,5.3,11.2,1.6
		c2.4,1.8,4.4,4,5.6,7c2.8,4.5,7.2,7.4,9.9,12c1.9,1.4,3.8,2.7,5.6,4.8c1.5,1.7,5.4,5.5,3.5,8c-1.5,2-8.1,1-12.3,1.6
		c-7.6,1.1-19.2,3.1-25.7,3.2c-0.8-0.7-1.6-1.3-2.1-2.1c0.9-5.8,3.6-9.7,5.6-14.4c1.2-0.5,3.3,0.3,3.7-1.3c0.2-0.7-1.5-2-1.6-3.2
		c-0.4-3.5,3.7-6,3.5-9.6c-4-2.8-8.2-1-9.1,4c-0.2,0.9,0.4,1.9,0.3,2.9c-0.3,2.8-4.3,7.1-4.3,10.4c-3.5-0.2-4.9,0.3-6.2,3.2
		c-0.5,1.2-1.4,3.5-1.3,4.5c0.3,3.4,6.2,3.8,7,8.3c1,5.3-2.9,6-4.3,11c-1.1,0.3-2.1,0.3-2.9-0.3c-1.5,2.7-5.9,6.2-9.6,4
		c0.9-3.1,5.6-2.4,7.5-4.5c-4.3-1.9-1.6-4.4,1.6-5.6c-1-3.1,2-4.4,1.6-6.4c-0.4-2.1-3.8-1.9-5.6-3.5c-3.1,2.2-3.7,5.9-4.5,10.7
		c-0.3,1.9-2,3.8-2.4,5.9c-0.3,1.5-0.1,3-0.5,4.3c-0.6,1.9-1.9,3.3-2.1,4.8c-0.1,1,0.3,2,0.3,2.9c-0.1,1.2-0.9,2.3-1.1,3.5
		c-0.5,3.5-0.3,7-0.3,10.4c1.6,1.7,5.9-0.2,7-2.4c1.1-2.2-0.4-5.3,1.3-7.2c6.4,1.5,16.3,1.9,19.5,7.5c-0.6,4.3-4.2,8-2.9,12.6
		c6,2.1,3.5-8.3,4.3-12.6c2-1.3,4.6-2.5,8-2.1c1,0.1,1.7,0.7,2.7,0.8c1.3,0.2,2.8-0.3,4,0c1.5,0.4,4.3,2.9,4.5,4
		c0.3,1.3-1.1,3.2-1.6,4.5c-1.1,2.8-1.5,8.8-2.9,11.8c-0.5,0.9-3.5,4.6-4.5,5.3c-2.3,1.7-8.1,4.7-11.8,5.1c-8.7,1-17.4-4.8-20.6-11
		c-1.9,1.6-3.3,3.6-5.3,4.8c-1.4,0.8-2.7,0.5-3.7,1.6c-1.3,1.5-0.9,3.4-1.3,5.3c-0.6,2.8-1.8,5.1-1.9,8c0,2.7,1.2,5,1.6,8
		c0.4,2.8-0.9,6-0.8,9.1c0,2,1.1,4.1,1.1,5.9c0,0.9-0.7,1.7-0.8,2.7c-0.2,1.6,0.1,4,0.3,5.6c0.7,6.3,2.4,13,3.7,17.4
		c0.8,9.1,4.2,17.4,7,25.1c1.7,4.6,2.8,9.2,5.3,13.4c1.1,6.6,3.3,12.5,5.6,18.2c2.3,5.7,5.5,10.8,7.5,16.3c0.4,1.1,0.3,2.2,0.8,3.2
		c1.4,3,5,5.5,3.7,9.6c-3.1-1.2-4.3-4.8-5.6-7.5c-1.4-2.9-3.2-5.7-4.5-8.6c-3.5-7.5-5.8-15.9-9.6-23.5c-0.8-1.6-1.5-3.1-2.4-5.1
		c-1.1-2.3-3-3.9-4.3-6.2c-1.2-2.1-2.3-6-3.5-9.4c-1.1-3.1-2.5-6.6-3.2-9.4c-1.2-4.6-1.5-10.4-2.4-15.8c-0.9-5.1-2.4-7.6-2.7-13.6
		c-0.3-6.1-1.9-13.1-1.6-20.1c0.3-6.4,0.6-13.3,0.3-20.3c-0.1-2.2,0.8-4.2,1.1-6.4c0.8-6.4,1.5-13.4,2.7-19.5c0.2-1,0.9-1.9,1.1-2.9
		c0.7-4.5-0.9-8.8-0.3-13.1c0.3-1.8,1.1-4.4,1.9-6.2c0.5-1.1,1.7-1.9,2.1-2.9c1.3-2.9,1.8-8,2.9-12.3c0.8-3.1,2-6.9,2.7-10.4
		c0.7-3.4,0.8-7.1,1.9-9.4c1.8-4,6.7-5.5,5.9-11.5c2-3.5,5.1-6,7-9.6c-2-8,7.3-10.2,9.6-15.2c1.2-2.7,0.9-5,2.1-7
		c0.8-1.2,1.6-2.2,2.7-3.2c0.8-0.8,2.3-1.3,3.2-2.4c2.8-3.2,1.7-6.8,1.9-11c0.3-5.6,6-7.5,11-8.3c3.5-2.5,1.5-10.1,5.6-12
		c1.4-0.7,3.2-0.3,4.5-0.8c4.4-1.5,4.5-4.4,5.1-10.2c0.1-1,2.5-3.8,3.5-4.3c1.1-0.5,2.4-0.2,3.5-0.5c2.3-0.8,5.2-3.1,5.9-4.8
		c0.6-1.6,0.2-3.9,1.1-5.6c2.3-4.6,8.2-3.4,12.6-6.7c2.2-1.6,4.6-4.7,3.2-8.8c-2.8-3.3-9.2-2-11.8,0.8c-2.4,2.6-1.4,6.2-3.2,9.1
		c-1.9,3-4.5,2-7.5,3.2c-1.4,0.6-3.5,2.5-4.3,4c-1.2,2.5-1.1,5.3-3.2,7.2c-1.6,1.5-4.9,2-6.7,3.2c-1.2,0.8-2.1,2.6-3.5,4.3
		c-1.3,1.6-3.3,2.4-4.5,4.3c-1.3,1.9-1.7,4.9-2.9,7.5c-1.1,2.3-3.3,5-5.1,7.8c-2.8,4.3-4.9,9.2-7.5,13.6c-1.1,1.8-2.4,3.3-3.7,6.4
		c-1.6,3.5-3.5,7.7-6.2,4.5c1.2-3.5,1.4-7,2.9-10.7c1.8-4.4,6.2-7.8,8-12.6c0.5-1.2,0.3-2.6,0.8-3.7c1-2.4,3.2-4.4,4.5-7
		c0.9-1.6,1.1-3,2.1-4.5c3-4.6,6.6-10.9,10.2-15.5c1-1.3,2.7-2,3.7-3.2c3.4-3.9,5.5-8.8,8.8-12.6c0.8-0.9,2.1-1.5,2.9-2.4
		c1.6-1.8,2.5-4,4-5.6c0.8-0.9,2.4-1.4,3.5-2.4c2.4-2.2,4.2-5.4,6.2-7c0.8-0.7,2.1-1,2.9-1.6c3.5-2.6,5.9-6.4,9.6-8.6
		c0.9-0.5,1.8-0.6,2.7-1.1c2.4-1.4,4-3.8,6.2-5.1c1.7-1,3.9-1.1,5.9-2.1c2.3-1.2,3.8-2.6,6.7-3.7c2.9-1.2,6.1-2.9,9.1-4.3
		c2.3-1.1,4.2-3.1,6.4-4.3c1.2-0.6,2.6-1,3.7-1.6c2.9-1.6,5.8-3,9.6-4.5c2.1-0.9,3.9-2.4,5.6-2.9c2.6-0.8,5.4-1,8-1.9
		c2.6-0.9,5.1-1.2,7.5-2.1c1.2-0.5,2.2-1.5,3.5-1.9c1.4-0.4,3-0.1,4.3-0.5c3.3-1.1,6.9-2.4,10.4-3.5c3.2-1,4.7-2.2,8.8-2.7
		c3.3-0.4,7.1-1.6,10.2-2.4c1.6-0.4,3-1.6,4.5-1.9c1.2-0.2,2.4,0.3,3.7,0.3c6.9-0.2,14.3-3.5,21.4-3.7c1.5-0.1,2.9,0.4,4.3,0.3
		c2.8-0.2,5.7-1.2,8.6-1.3c2.3-0.1,4.6,0.7,7,0.5c1.9-0.1,3.8-0.8,5.6-0.8c2.3,0,4.8,0.5,7.2,0.5c2.1,0,4.2-0.7,6.2-0.5
		c1.1,0.1,2.3,0.7,3.5,0.8c2.1,0.2,3.9-0.5,5.9-0.3c2,0.2,3.2,1.1,4.5,1.3c5.2,0.8,10,0.1,14.7,0.8c1.3,0.2,2.7,0.9,4,1.1
		c2.3,0.4,4.7,0,7,0.3c2,0.2,4,1.2,6.2,1.3c2.2,0.2,4.5-0.2,6.7,0.3c2,0.4,3.7,1.7,5.6,2.1c1.5,0.3,3.1,0,4.5,0.3
		c1.7,0.3,3.5,1.2,5.3,1.6c9.7,1.9,18.5,5.2,27,7.8c1.9,0.6,3.7,1,5.3,1.6c1.6,0.6,2.9,1.7,4.5,2.4c3.2,1.3,6.6,1.9,9.6,3.2
		c1.3,0.5,2.2,1.8,3.5,2.4c3.7,1.8,8,3.2,11.5,5.3c1.2,0.7,1.9,2,3.2,2.7c2,1.1,4,1.5,5.9,2.4c1.8,0.9,3.3,1.9,5.1,3.2
		c3.2,2.3,6.9,4,10.2,6.2c2.9,2,5.1,5.2,8,7.5c3.6,2.8,7.9,5,11.2,7.8c1,0.9,1.5,2.3,2.4,3.2c1.2,1.2,3.1,2.2,4.5,3.5
		c3.9,3.5,8.6,7.3,12.3,11.2c2.3,2.4,2.8,3.4,6.2,5.3c1.1,0.6,1.7,1.5,2.4,1.6c0.9,0.2,2.8-0.5,3.7-0.3c2.4,0.5,6.1,4.2,6.4,5.9
		c0.4,1.9-0.9,3.9-0.5,6.4c0.4,2.2,3.2,5.1,5.1,7.8c5.1,7.2,10.6,15.3,14.7,23c1.5,2.7,2.5,6,3.7,8.6c1.3,2.6,2.7,4.8,3.7,7.5
		c4.9,12.1,12,24,13.9,38.2c-2.5-2-3.2-5.4-4.3-8c-1.2-2.9-2.1-5.8-3.2-8.8c-1.7-4.3-3.5-8.3-5.9-12.6c-2.9-5.1-4.1-12.2-7.2-17.7
		c-0.6-1.1-1.7-1.8-2.4-2.9c-1.8-2.8-2.5-6.5-4.5-9.4c-1.4-2-4.3-3.7-5.3-5.9c-2-4.3-4.8-7.4-7.8-11c-1.9-2.3-3.1-5-5.9-6.4
		c-0.5-0.3-1.4-0.1-2.4-0.5c-3.6-1.4-10.6-5.8-14.2-8.8c-3.1-2.6-5-6-1.3-8.6c-2.1-5.6-7.7-8.1-11.8-12c-1-1-1.7-2.5-2.7-3.5
		c-2.1-2.1-5.2-3.1-7.8-5.3c-6.5-5.8-16-11.6-23.8-15.5c-2-1-3.6-2.9-5.6-4c-2.3-1.2-5-1.9-7.5-3.5c-2.1-1.4-4.5-3.1-6.7-4
		c-1.3-0.5-3-0.5-4.3-1.1c-1.1-0.5-1.9-1.6-2.9-2.1c-1.6-0.8-3.6-1-5.4-1.9c-1.7-0.8-3.2-1.8-4.8-2.4c-3.4-1.3-7.4-2.2-10.7-3.7
		c-5.5-2.6-10.8-6-18.5-6.7c-5.2,0-11.3-3.4-16.9-4c-4.3-0.5-7.4-1.8-11.5-2.1c-1.6-0.1-3.4,0.1-5.1,0c-3.1-0.2-6.1-1.2-9.1-1.3
		c-6.6-0.3-13,0-19.5-0.8c-2.6-0.3-5.1-1.4-7.8-1.3c-0.8,0-1.6,0.3-2.4,0.3c-1.2-0.1-2.5-1-3.7-1.1c-1.3-0.1-2.7,0.3-4,0.3
		c-7.7-0.3-15.4-0.8-22.7,0c-1.1,0.1-2.2,0.7-3.2,0.8c-6.7,0.8-14.4-0.3-20.3,1.3c-7.4,2-14.9,3.9-22.7,5.6c-3.7,0.8-7,2.7-10.4,3.2
		c-5.2,0.8-10.3,0.7-13.6,5.1c1.5,1,3.6,3.2,5.9,3.2c3.1,0,6.5-3.8,9.9-4c5.2-0.4,8.3,4.1,10.4,8.6c6.7,4,15.1-2.3,9.6-9.9
		c-1.2-0.8-3.5-0.4-3.7-2.1c2.7-1.4,4,2,6.2,2.1c1.7,0.1,2.3-1,4-0.8c0.3,2.4-1.5,7,0.8,9.4c2.1,2.1,7.6,0.8,9.9-0.8
		c2.5-1.7,3.5-5.4,2.9-8c-0.4-1.9-2.1-2.3-2.4-4c6.6,2.7,10.2-4.2,17.7-1.6c1.3,0.5,1.9,2,3.2,2.7c1.3,0.7,3,0.3,4,1.9
		c-3.4,10.9,14.6,10.3,15.2,3.2c0.4-4.7-4.4-5.6-5.6-8.3c3.7,1.6,6.3,3.4,11.2,2.7c-0.4,2-3.3,3.8-2.9,6.7c0.5,4.5,9.1,4.8,11.5,1.3
		c0.5-2.3,0.8-5.3-0.3-7.2c-1.9-2.1-5.6-0.2-8-0.8c3.7-6.1,10,0.6,15,0c1.1-0.1,2-1.1,3.2-1.3c4.4-0.7,6.3,4.2,10.4,4.3
		c2.9,0.1,6.1-2.6,8.8-2.1c3.8,0.6,4.1,5.8,9.1,5.3c3-0.3,4.8-3.6,9.4-2.1c2.1,0.7,2.8,3.5,4.8,4.8c1.4,0.9,2.5,0.3,3.7,1.6
		c-1.3,2.8-2.8,6.8-0.8,9.9c3.3,1,10.4,3.9,12.8,0.3c1.5-2.2,0.2-5.3,0.5-8c1.7,1.2,3.2,2.5,4.5,4c-1.8,3.5-2,8.5,1.1,10.7
		c3.7,2.7,10.3,1.8,11-3.2c0.7-4.9-2.2-7.2-5.1-9.9c2.2,0.6,3.6,1.4,5.1,3.2c1.5,1.7,2.5,5.1,4.5,5.6c1.9,0.5,4.3-0.8,5.9-0.5
		c5.9,0.8,7,5.5,10.7,9.6c-2.3,1.8-4.7,5.4-2.9,9.6c4.8,4.6,13.2-2,9.1-7.2c-1.5-1.9-4.5-0.7-4.8-3.2c5.6-3,6.8,3.9,10.7,5.9
		c2.6,1.3,5.6,1,7.8,2.4c1.2,0.8,4.1,3.8,4.5,5.3c1.3,3.9-2.3,9.5-0.3,12.8c1,1.6,5.8,2.6,8,1.1c2-1.4,2.3-6.8,0.8-8.8
		c-1.1-1.5-4.1-0.6-4.5-3.2c5.5-1.6,10.6,5.2,8.8,11.5c-0.4,1.4-1.8,2.5-1.9,4c-0.1,3.8,4.3,8,8.3,7.8c3.8-0.2,5.5-6.5,3.2-10.2
		c-1.4-2.2-3.9-1.1-4-3.5c7-0.1,8.5,5.2,10.4,10.2c7.3,0.2,10.4,4.8,12,10.7c7.8,1.2,11.8,6.2,12.6,14.4c6.4,0.7,9.1,5,11.8,9.4
		c-1.2,5.1,1.9,5.9,4.3,7.8c2.5,2,4,5,5.9,7.2c0.4,3.4-1,5-1.1,8c4.5,1.7,8.7,2.5,10.7,6.4c1,2,1.3,5,1.1,7c-0.2,2-1.9,3.9-0.5,5.9
		c0.9,1.4,3.1,1.1,4.3,1.9c1.2,0.8,4.6,5.5,4.8,7.5c0.6,5.1-6.1,8.9-10.2,8.3c-3.4-0.5-6.6-5.7-6.7-9.9c0-2.2,1.3-3.9,0.5-6.7
		c-2.9-0.8-6.4-0.9-7-4c2.4-0.3,3.6,1,5.9,0.8c8.1-0.8,4.6-15.4-3.2-14.4c-3,0.4-2.4,3.7-5.4,4.5c-1.2-0.8-0.3-2.1-1.1-3.2
		c-1.6-0.9-2.8-0.5-4-1.1c-2.8-1.3-6.8-7-7.2-9.6c-0.4-2.9,2.1-6.8-1.6-6.7c-2.3,0.1-1.2,2.6-2.1,4.3c-3-0.4-2.8-4-5.1-5.1
		c-2.1-0.6-5.2-0.1-7.8-0.3c-4.8-1.7-1.3-7.3-0.3-10.7c-0.3-1.1-1.7-1.2-2.7-1.6c-2-1.7-3.2-4.3-5.3-5.9c-3.9,2.6-5.5,6.4-9.1,9.9
		c-2.1,2-8.2,4.5-8.6,7.5c-0.3,2.5,2.5,5,4.8,5.3c3.8,0.5,12.8-6.7,14.4-1.1c0.5,1.7-0.1,5.1-0.8,7c-0.8,1.8-3.3,3.1-3.5,4.8
		c-0.3,2.2,3.7,6.3,5.1,6.4c2.1,0.2,4.8-3.8,6.2-5.3c1.9-2.3,3.9-4.7,5.3-5.9c0.9-0.8,4.1-3.3,5.9-1.3c-1.2,3.3-4.6,3.6-6.7,6.2
		c-0.7,0.9-0.8,2.2-1.6,3.2c-0.9,1.1-2.8,2-4,3.5c-2,2.5-2.3,6-5.1,6.2c-1.4,0.1-3.9-1.7-5.1-2.7c-1.6-1.3-5.7-5.1-5.9-7.5
		c-0.4-4.7,5.6-5.5,4.3-10.2c-2.3,0.2-3.6,0.5-6.4,0.5c-1.6,0-2.9,0.8-4,0.5c-2.5-0.5-7.8-6.8-8-9.4c-0.5-6.4,9.4-8.1,13.9-12.8
		c1.9-2,2.6-6.3,4.5-7.8c1.4-1.1,8-0.4,8-2.4c0-3-7.4-2.3-8.3-4.3c-1.2,0.5-1.3,2.1-2.4,2.7c-6.7,1.8-12.3,4.6-17.7,7.8
		c-1,0.2-1.4-0.2-1.9-0.5c-3.9,3.7-8.2,6.9-15.2,7.5c-3.3-1.9,0.1-10.4,0.5-14.2c1-8.2,0.7-18.3,2.9-24.9c1.3-0.6,3.1-0.7,4-1.6
		c-0.2-4.5-8.5-4.2-10.7-3.5c2.5,3,2.5,8.1-0.3,11c-3.9-0.7-0.5-3.2-0.3-5.1c0.7-5.2-5.3-7.4-8.6-9.9c-0.6,0.5-1.4,0.9-1.6,1.9
		c0.7,0.5,1.4-0.8,1.9-1.3c0.6,0.5-1.2,0.9-1.1,1.9c0.7,0.5,1.4-0.8,1.9-1.3c0.6,0.5-1.2,0.9-1.1,1.9c0.7,0.5,1.4-0.8,1.9-1.3
		c0.5,0.3-0.7,1.1-1.1,1.3c0.7,1.5,3.3,4.6,1.6,7c-1.9,2.5-7.3,0.3-8.3-2.9c1-0.4,2.6-0.1,2.4-1.6c-1.6-2.5-4.2,0.2-6.4,0.3
		c-2.2-1.5-0.3-4.8,1.1-5.9c3.5-0.8,6.1,3,7.8,0c0.6,0.4-1,1-1.1,1.6c0.5,0.5,1.1-1.2,1.9-1.3c-1.2-0.9-5.6-4.3-7.8-5.3
		c-5.7-2.8-4.6,2.4-6.4,6.4c-0.4,0.9-1.5,1.5-2.1,2.7c-0.9,1.7-1.2,4-2.1,5.6C406.7,105.1,402.4,106.8,402.8,110z M74.9,213.8
		c-1.4-1.7-3.3-1.9-4.3,0.3c0.9,2.4,6.2,4.1,7.2,0.5C77.7,213.5,76.1,213.8,74.9,213.8z M272.6,49.6c1.4,1.9,6.3,2.7,8.3,2.1
		c7-1.9,5-11.8-2.1-11C274.2,41.3,269.3,45.3,272.6,49.6z M323.1,49.3c0.4,2.7,5.2,4.9,8,4.3c2.1-0.4,4.8-4.2,4.8-6.2
		c0.1-3.9-3.9-5.9-8.6-5.1C325.5,44.7,322.7,46,323.1,49.3z M341,53.9c6.1,4.4,16.2-0.4,11-8C347,41.9,336.6,46.8,341,53.9z
		 M357.4,55.5c2.8,1.7,7.7,4.5,11.8,2.4c1.6-2.3,0.6-6.8-0.3-9.1C364.1,46,355,47.9,357.4,55.5z M204.4,48.2
		c-3.2,1.1-7.1,1.5-10.7,3.2c-6.1,2.8-11.3,4.9-16.8,7.2c-4.3,1.8-7.7,5.2-11.2,6.7c-2,0.8-4.1,0.1-4.8,2.9c1.4,0.9,5.4,0.6,7.2,0.3
		c2-3.3,4.1-7.1,8.3-7.8c3-0.5,6,1.1,9.4-0.3c2.1-0.9,2.8-4.5,5.3-5.1c3-0.7,6.6,1.4,9.4,0.3c1.2-0.5,2.8-2.8,3.5-3.5
		c1.2-1.2,2.7-2.4,2.4-4C205.4,47.9,205,48,204.4,48.2z M222,58.9c3.3,1.3,6.9,0.5,9.4-1.1c0.9-2.2,2.3-5.4,1.1-8
		C225.9,44.8,216,52.4,222,58.9z M202.5,57.9c-0.3,2.9,3.7,5.3,6.2,5.3c5.3,0.2,10.2-5.6,5.9-10.7C209.8,51.2,202.8,53.9,202.5,57.9
		z M186.7,66.4c3.9,2.4,9.7,1,12.6-1.3c0.5-1.7-0.3-3.4-0.8-4.8C193.4,57.1,185,60.1,186.7,66.4z M168,80.1c1.3-2.1,0.4-3.7,2.1-4.5
		c2.5-1.2,6.7,1,9.4,0.5c4.5-0.8,6-6.8,2.7-9.1c-2.4-1.7-7.7-1-10.4,0.5c-2.3,0.9-2.1,5.7-4.5,6.4c-1.8,0.5-4.2-1.5-6.2-1.3
		c-3.9,0.3-7.5,5.6-7.2,9.1C158,84.4,165.8,83.6,168,80.1z M407.4,68.6c0.4,2.9-0.1,5.6,1.9,7.5c2.1,2,7.7,1.9,9.1-0.3
		c1.4-2.1,0.2-5.7-0.5-8C415.1,66,408.8,65.2,407.4,68.6z M376.1,74.7c-1.9,2.3-3.1,8.8-2.4,13.6c0.2,1.5,2.2,6.9,2.9,7.8
		c2.3,2.8,7.9,3.1,11.2,2.4c1.5-0.3,4.8-2.4,5.9-4c1.2-1.8,1.6-4.6,2.1-7.5c0.3-1.5,1.3-2.7,1.3-3.5c0.1-2.3-1.5-6.2-2.4-7.5
		c-1.7-2.4-8-5.5-12.3-4.5C380.1,72,377.2,73.3,376.1,74.7z M147.1,77.1c3.3,3.6,5.4-1.4,6.2-4.3C150.3,72.3,147.7,74.4,147.1,77.1z
		 M437.6,93.2c1.6,0.7,4.6,0.3,5.9-0.5c4.6-2.9,2.4-13.3-5.1-11C434.4,82.9,433.4,91.4,437.6,93.2z M135.9,94
		c7.2,4.3,16.3-1.5,13.4-10.4C142.1,78.7,134.3,86.8,135.9,94z M423.7,85.4c0.1-0.8-0.9-0.6-1.3-0.8
		C422.2,85.5,422.9,85.5,423.7,85.4z M428.8,90.2c1,0.4,1.5,1.2,2.7,1.3c-0.1-1.1,1.3-0.8,1.1-2.1C430.9,88,430.1,89.4,428.8,90.2z
		 M454.2,106.3c1.1,0.7,2.3,1.2,3.2,2.1c1-0.2,1.2-1.1,2.1-1.3c-0.4-0.6-0.7-1.4-0.8-2.4C456.8,104,454.4,104.5,454.2,106.3z
		 M446.4,106c-2.9,0.8-1.7,5.9-1.9,8.8c-0.2,2.6-1.3,5.4-1.6,8.3c-0.2,1.5,0.1,3.2,0,4.5c-0.2,3.2-1.5,5.9-0.8,7.8
		c4,0.2,6.6-3.1,10.2-4.3c0.9,0.2,1.6,1.9,2.4,1.3c0.2-2,2.9-2.1,4.5-3.2c2.3-1.6,4.5-3.7,7-5.1c1.3-0.7,3-0.8,3.5-2.4
		c-2-2.3-4.3-4.3-7.8-5.1c-2.9,2.7-3.5,7.5-7,9.6c-1.7-0.7-4-0.8-4.8-2.4c0.2-5.3-0.7-11.6,1.3-15
		C450.4,107.6,448.5,105.5,446.4,106z M457.9,112.2c-4.1-1-5.6,7.1-0.8,6.7c0.8-3.5,3.4-5.1,5.6-7.2c-0.5-1.4-1.6-2.4-2.7-3.2
		C459.9,110.2,458.8,111.1,457.9,112.2z M474.8,114c-2,10.7,13.9,8.5,10.2-0.5C482.1,111.8,476.6,110.6,474.8,114z M494.3,133
		c4.4-0.3,4-6.3,1.6-9.1C487.8,119.7,487,133.6,494.3,133z M504.5,135.2c-3.1,0.3-5.9,4.3-5.9,7.2c0.1,5.5,8.6,8.6,11.5,2.9
		C510.2,140.1,509.3,134.7,504.5,135.2z M490.8,137.8c1.9,3-0.3,6.6-0.3,9.1c1.8,1.1,5.8,0.6,7.2-0.5c-0.8-3-1.1-6.4-2.4-8.8
		C493.6,136.8,492.2,136.7,490.8,137.8z M510.6,161.6c2.5,2.9,10.2,2.9,11-0.3c0.7-3-1.9-9.1-4.3-9.9c-2.8-1-7.3,1.1-8.3,4.5
		C509.4,157.8,509.3,160.1,510.6,161.6z M531.5,198.3c6.9,5.2,11.4-4.4,6.7-9.9C532.5,184.5,528.7,192.9,531.5,198.3z M61.5,200.4
		c-1.5,2.6-5.6,3.8-4.5,8C61.2,209.8,62.9,203.7,61.5,200.4z M77.9,225c2.4-0.4,4.8,0.2,7.2,0c0.9-0.1,2.6-0.9,4-1.1
		c3.4-0.5,7.7,0.5,8-1.9c0.3-2.4-5.7-5.3-6.2-7c0.1-1,0-1.7-0.3-2.4c-3.6-3.7-7.9-6.7-11.8-10.2c-1.6,0.7-3.8,4.4-3.5,7
		c4.5,1.9,13.1,1.4,10.2,9.1c-4.4,1.5-9.7,3.4-15.5,2.7c-0.8,1.3-2,2.2-1.9,4.5C70.4,227.8,74.1,225.6,77.9,225z M50.9,274.5
		c-0.9,3.6-2.5,6.1-2.4,8c0.4,10.1,18.8,11.9,25.9,5.9c4.1-3.4,4.5-9.4,5.1-15.5c-1.4-0.7-3.4-0.7-5.3-0.8c-2.1,1.8-1.1,4.8-1.9,7.2
		c-0.8,2.2-3,5.7-4.5,6.7c-4.2,2.6-9.8-1.2-10.7-5.1c-1.3-5.7,2.4-8,2.4-12c-1.7-1-4.3-1.1-6.4-1.6C50.5,268.6,51.7,271,50.9,274.5z
		 M39.4,284.1c0.8,0.5,2.3,0.4,3.2,0.8c2-2.3,1.1-7,2.1-10.7C40.6,274,38,279.8,39.4,284.1z"/>
	<path class="st0" d="M390,190.5c-3.3,0.4-2.6-4-3.2-7c-0.3-1.5-1.9-2.7-2.1-4c-0.5-3.1,2.3-6.3,1.3-9.1c-1.5-1.3-2.8-0.3-4.5-0.8
		c-1.2-0.3-2.3-2-3.7-2.1c-2-0.2-3.7,1.7-5.9,1.3c-2.1-0.3-3.4-2.7-4.5-4.5c-1.2-1.8-3-3.6-2.7-5.6c4.6,0.1,4.9,5.7,11,4.8
		c3.9-0.6,3.8-5.4,6.4-8.3c1.7-1.9,5.6-2.3,5.9-5.9c0.1-1.3-0.8-2.6-0.8-4c0-1.4,1.1-2.6,1.1-3.7c0-1.2-0.8-2.1-1.1-3.5
		c-0.7-3.5-0.8-9.5-0.5-13.6c0.1-1.9,1.1-4.1,0.8-5.6c-0.3-1.7-3.5-5.3-6.7-5.9c-1.8-0.4-4.6,0.4-7,0c-0.9-0.1-1.9-1-2.7-1.1
		c-0.9,0-1.3,0.6-2.1,0.5c-1.2-0.1-2.4-1-3.5-1.1c-2-0.2-3.4,1-5.9,1.6c-1.9,0.4-4.3,0-6.2,0.3c-0.8,0.1-1.7,0.9-2.7,1.1
		c-0.8,0.2-1.6-0.2-2.1,0c-4,1.2-8.1,6.1-8.3,11c-0.1,2.6,1.5,4.9,1.3,7.8c-0.1,1.4-1.4,3.1-1.9,4.5c-1.7,5.2-2.4,11.5-4.8,15.5
		c0.1,1.6-0.3,3.7,0.3,4.8c1.3,1.2,3.7,1.1,5.9,0.8c2.5,1,1,3.7,2.4,7c0.7,1.6,2.4,2.5,2.7,3.5c0.5,1.9-0.9,4.1,0.3,6.2
		c3.2,1.3,6.6-0.8,8.8-2.1c0.1-1.3-0.7-2.9,0-4c3.7-0.8,11.1,0.9,11.5,4c0.2,1.5-1.6,3.9-2.7,4.8c-2.4,1.9-6.4,2-8,4.3
		c-0.4,2.1-1.1,4-2.9,4.8c-1.1-0.7-1.1-2.5-1.3-4c-3.9-0.8-9.6-3.1-10.7-6.7c-0.3-1,0.1-2.2,0-3.2c-0.3-2.7-2-4.9-2.7-7.5
		c-3.8-2.5-9.1-4.6-8-9.9c0.9-4.5,2.5-9.7,4.3-14.4c0.6-1.6,1.7-2.3,1.9-4.3c0.3-3.4-1.2-6.8-1.1-9.9c0.1-2,1.9-6.8,2.9-8.6
		c1.5-2.6,7.9-7.6,11.2-8.8c1.5-0.5,3.6-0.3,5.6-0.5c1.7-0.2,3.6-1.1,4.8-1.1c1.3,0,2.8,1,4,1.1c0.8,0,1.8-0.5,2.7-0.5
		c2.4-0.1,6,0.4,8.8,0.8c7.8,1.2,14.1,2.7,19,7c1.5,1.3,2.6,3.3,4,5.1c3.2,4.1,7.6,8.3,7.5,15.5c-0.1,5-2.8,9.9-3.7,14.7
		c-0.5,2.3-1.4,4.3-1.6,6.4c-0.3,4.2,3.7,8.6,0.5,13.9c1,3-0.3,6.4-0.5,10.2c-0.1,1.4,0.4,2.8,0.3,4.3c-0.1,1.3-1.1,2.4-1.3,3.7
		c-0.4,2.6-0.3,6.8,0.8,8.3c1.3,1.7,3.7,1.2,6.7,1.6c1.7,0.3,2.6,1.7,4.5,0.5c1.5,0.4,1.9,2,2.9,2.7c4.2,3,8,4.4,11.2,9.1
		c0.7,1,1.1,2.1,1.9,3.2c1.6,2.2,2.2,3.6,3.7,6.4c0.9,1.6,2.4,3.1,2.7,4.3c0.2,1.1-0.2,2.4,0,3.7c0.1,1,0.7,2,0.8,2.9
		c0.3,2.5-0.6,4.6-0.8,7c-0.1,1.5,0.4,2.9,0.3,4.3c-0.2,2.9-2.1,5.9-2.7,8.8c-0.3,1.3,0.1,2.7-0.3,3.7c-1,3.3-4.6,4.9-5.9,7.5
		c-0.5,1-0.4,2.2-0.8,3.2c-1.8,4.4-5.3,7.5-7.5,11.5c-0.5,1-0.5,2.2-1.1,3.2c-0.5,0.9-1.8,1.4-2.7,2.7c-1.5,2.3-1.3,4-3.2,4
		c-5.6,0.1,1-6.9,1.1-8.6c4-2.3,6.1-7.8,8.3-12.6c2.1-4.6,6.1-8.3,7.8-12.8c0.9-6.2,2-11.7,2.9-18.5c0.3-2,1.2-4.1,1.1-5.9
		c-0.1-1.8-1.6-3.4-2.4-5.1c-2.1-4.8-3.9-10.6-7.2-13.9c-1.1-1.1-3.2-1.6-4-2.9c-7.1-0.7-9.4-6.3-17.7-5.9c-2.1-2.3-4.8-4.1-7-6.4
		c0.9-12.1,3.9-24.1,2.1-37.2c-0.7,0.3-0.9,1.1-1.6,1.3c0.3,6.3,0.1,11.3-0.3,16.6c-0.2,2.7-1.9,4.8-2.4,7.2
		C390.6,186.6,391.6,188.8,390,190.5z M394.8,158.7c-0.3,0.7-1.1,0.9-1.3,1.6C394.2,160.2,395.4,159.2,394.8,158.7z M394.3,130.9
		c1.1-0.5,1.6-1.5,1.1-2.9C393.5,127.1,391.9,130.4,394.3,130.9z"/>
</g>
</svg>
